{
.appVersion = "1202";
classes = (
{
code = "dieresiscomb dotaccentcomb gravecomb acutecomb hungarumlautcomb circumflexcomb caroncomb brevecomb ringcomb tildecomb macroncomb uni0305 commaturnedabovecomb uni0325 uni035B uni1DD1 uni1DD2 uni0363 uni0364 uni0365 uni0366 uni0367 uni0368 uni0369 uni036A uni036B uni036C uni036D uni036E uni036F uni1DD3 ";
name = CombDiacritics;
},
{
code = "a b c d e g h i j k l m n o p q r s t u v w x y z\012agrave aacute acircumflex atilde adieresis aring ae\012ccedilla egrave eacute ecircumflex edieresis igrave\012iacute icircumflex idieresis eth ntilde ograve\012oacute ocircumflex otilde odieresis oslash ugrave\012uacute ucircumflex udieresis yacute thorn ydieresis\012germandbls amacron emacron imacron omacron umacron\012abreve cdotaccent dcaron ebreve eogonek gdotaccent\012ibreve dotlessi lslash obreve oe tcaron ubreve\012longs uni0195 uni01BF uni01E3 uni01EB uni021D\012uni0233 uni0237 uni1D79 uni1E8F uni1E9C uniA741\012uniA751 uniA753 uniA757 uniA75D uniA76B uniA76F\012uniA77A uniA77C uniA783 uniA785 uniA787\012# uniFB00 uniFB01 uniFB02 uniFB03 uniFB04\012uniFB05 uniFB06\012# f_f_udieresis f_thorn f_thorn.nordic f_eth.nordic\012# f_j f_udieresis f_odieresis";
name = AllLowerCaseexclf;
},
{
code = "agrave acircumflex atilde adieresis aring egrave\012ecircumflex edieresis igrave iacute icircumflex\012idieresis ograve ocircumflex otilde odieresis\012ugrave ucircumflex udieresis ydieresis amacron\012abreve emacron ebreve imacron ibreve omacron\012obreve umacron ubreve uni01E3 aacute eacute iacute\012oacute yacute aeacute aeacute.square";
name = HighDiacritics;
},
{
code = "f uniFB00";
name = LowerCase_f;
},
{
code = "zero one two three four five six seven eight nine dollar";
name = FIGURES_LINING_TABULAR;
},
{
code = "zero.tosf one.tosf two.tosf three.tosf four.tosf five.tosf six.tosf seven.tosf eight.tosf nine.tosf dollar.tosf";
name = FIGURES_OLDSTYLE_TABULAR;
},
{

glyphs = (
{
glyphname = A;
lastChange = "2019-01-27 16:34:52 +0000";
layers = (
{
anchors = (
{
name = bottom;
position = "{476, 0}";
},
{
name = ogonek;
position = "{903, 10}";
},
{
name = top;
position = "{1276, 1363}";
}
);
guideLines = (
{
position = "{117, 30}";
}
);
hints = (
{
horizontal = 1;
origin = "{1, 5}";
type = Anchor;
},
{
horizontal = 1;
origin = "{2, 3}";
type = Anchor;
},
{
horizontal = 1;
origin = "{2, 3}";
target = "{3, 3}";
type = Align;
options = 4;
},
{
horizontal = 1;
origin = "{1, 5}";
target = "{2, 3}";
other1 = "{4, 3}";
type = Interpolate;
},
{
horizontal = 1;
origin = "{4, 3}";
target = "{4, 2}";
type = TTStem;
options = 4;
},
{
horizontal = 1;
origin = "{2, 3}";
target = "{2, 2}";
type = TTStem;
options = 4;
},
{
horizontal = 1;
origin = "{2, 2}";
target = "{3, 2}";
type = Align;
options = 4;
},
{
horizontal = 1;
origin = "{2, 3}";
target = "{2, 2}";
other1 = "{0, 3}";
type = Interpolate;
options = 4;
},
{
horizontal = 1;
origin = "{0, 3}";
target = "{1, 11}";
type = Align;
options = 4;
}
);
layerId = "72F15D98-3CFC-4C1E-A8AD-435DAE6C7B41";
paths = (
{
closed = 1;
nodes = (
"69 30 LINE",
"1240 1242 LINE",
"1209 1272 LINE",
"-48 30 LINE"
);
},
{
closed = 1;
nodes = (
"842 30 LINE",
"1324 1179 LINE SMOOTH",
"1343 1224 OFFCURVE",
"1386 1316 OFFCURVE",
"1410 1367 CURVE",
"1391 1385 LINE",
"1168 1294 LINE",
"1159 1263 LINE",
"1198 1237 OFFCURVE",
"1225 1198 OFFCURVE",
"1154 1029 CURVE SMOOTH",
"735 30 LINE"
);
},
{
closed = 1;
nodes = (
"271 0 LINE",
"293 58 LINE",
"-134 58 LINE",
"-156 0 LINE"
);
},
{
closed = 1;
nodes = (
"977 0 LINE",
"999 58 LINE",
"605 58 LINE",
"583 0 LINE"
);
},
{
closed = 1;
nodes = (
"998 504 LINE",
"1036 562 LINE",
"565 597 LINE",
"511 541 LINE"
);
}
);
width = 1170;
},
{
anchors = (
{
name = bottom;
position = "{481, 0}";
},
{
name = ogonek;
position = "{908, 10}";
},
{
name = top;
position = "{1421, 1363}";
}
);
guideLines = (
{
position = "{240, 50}";
}
);
layerId = "9207B417-A6D7-41AF-BE7C-4506B089B767";
paths = (
{
closed = 1;
nodes = (
"154 50 LINE",
"1308 1242 LINE",
"1229 1272 LINE",
"-11 50 LINE"
);
},
{
closed = 1;
nodes = (
"1017 50 LINE",
"1492 1179 LINE SMOOTH",
"1511 1224 OFFCURVE",
"1554 1316 OFFCURVE",
"1578 1367 CURVE",
"1559 1385 LINE",
"1188 1294 LINE",
"1179 1263 LINE",
"1218 1237 OFFCURVE",
"1245 1197 OFFCURVE",
"1174 1029 CURVE SMOOTH",
"762 50 LINE"
);
},
{
closed = 1;
nodes = (
"349 0 LINE",
"383 96 LINE",
"-108 96 LINE",
"-142 0 LINE"
);
},
{
closed = 1;
nodes = (
"1184 0 LINE",
"1218 96 LINE",
"646 96 LINE",
"612 0 LINE"
);
},
{
closed = 1;
nodes = (
"1015 446 LINE",
"1057 542 LINE",
"591 574 LINE",
"528 480 LINE"
);
}
);
width = 1361;
},
{
anchors = (
{
name = bottom;
position = "{442, 0}";
},
{
name = ogonek;
position = "{937, 10}";
},
{
name = top;
position = "{1257, 1358}";
}
);
guideLines = (
{
position = "{855, 37}";
}
);
layerId = "521C1B5A-C509-4418-B7D4-F4ADA96264C1";
paths = (
{
closed = 1;
nodes = (
"52 37 LINE",
"1245 1272 LINE",
"1179 1272 LINE",
"-73 37 LINE"
);
},
{
closed = 1;
nodes = (
"816 37 LINE",
"1294 1179 LINE SMOOTH",
"1313 1224 OFFCURVE",
"1356 1316 OFFCURVE",
"1380 1367 CURVE",
"1361 1385 LINE",
"1138 1294 LINE",
"1129 1263 LINE",
"1168 1237 OFFCURVE",
"1195 1198 OFFCURVE",
"1124 1029 CURVE SMOOTH",
"709 37 LINE"
);
},
{
closed = 1;
nodes = (
"241 0 LINE",
"266 69 LINE",
"-161 69 LINE",
"-186 0 LINE"
);
},
{
closed = 1;
nodes = (
"947 0 LINE",
"972 70 LINE",
"578 70 LINE",
"553 0 LINE"
);
},
{
closed = 1;
nodes = (
"976 511 LINE",
"1003 581 LINE",
"551 613 LINE",
"488 545 LINE"
);
}
);
width = 1228;
},
{
anchors = (
{
name = bottom;
position = "{408, 0}";
},
{
name = ogonek;
position = "{835, 10}";
},
{
name = top;
position = "{1312, 1363}";
}
);
guideLines = (
{
position = "{945, 42}";
}
);
layerId = "3C607254-4343-4A81-9940-4A77E9130A74";
paths = (
{
closed = 1;
nodes = (
"118 42 LINE",
"1219 1242 LINE",
"1152 1272 LINE",
"-35 42 LINE"
);
},
{
closed = 1;
nodes = (
"888 42 LINE",
"1366 1179 LINE SMOOTH",
"1384 1222 OFFCURVE",
"1428 1316 OFFCURVE",
"1452 1367 CURVE",
"1433 1385 LINE",
"1099 1294 LINE",
"1090 1263 LINE",
"1134 1234 OFFCURVE",
"1153 1188 OFFCURVE",
"1086 1029 CURVE SMOOTH",
"671 42 LINE"
);
},
{
closed = 1;
nodes = (
"280 0 LINE",
"311 86 LINE",
"-124 86 LINE",
"-155 0 LINE"
);
},
{
closed = 1;
nodes = (
"1008 0 LINE",
"1039 86 LINE",
"552 86 LINE",
"521 0 LINE"
);
},
{
closed = 1;
nodes = (
"939 461 LINE",
"980 547 LINE",
"540 578 LINE",
"479 494 LINE"
);
}
);
width = 1170;
}
);
leftKerningGroup = A;
note = A;
rightKerningGroup = A;
unicode = 0041;
},
{
glyphname = Aring;
lastChange = "2019-01-27 16:34:52 +0000";
layers = (
{
anchors = (
{
name = top;
position = "{1819, 1358}";
}
);
guideLines = (
{
position = "{141, 27}";
}
);
hints = (
{
horizontal = 1;
origin = "{5, 5}";
type = Anchor;
},
{
horizontal = 1;
origin = "{5, 5}";
target = "{6, 5}";
type = TTStem;
options = 4;
},
{
horizontal = 1;
origin = "{2, 3}";
type = Anchor;
},
{
horizontal = 1;
origin = "{2, 3}";
target = "{3, 3}";
type = Align;
options = 4;
},
{
horizontal = 1;
origin = "{6, 11}";
target = "{5, 11}";
type = TTStem;
options = 4;
},
{
horizontal = 1;
origin = "{2, 3}";
target = "{2, 2}";
type = TTStem;
options = 4;
},
{
horizontal = 1;
origin = "{5, 5}";
target = "{2, 3}";
other1 = "{4, 3}";
type = Interpolate;
},
{
horizontal = 1;
origin = "{4, 3}";
target = "{4, 2}";
type = TTStem;
options = 4;
},
{
horizontal = 1;
origin = "{2, 2}";
target = "{3, 2}";
type = Align;
options = 4;
},
{
horizontal = 1;
origin = "{2, 3}";
target = "{2, 2}";
other1 = "{0, 3}";
type = Interpolate;
options = 4;
},
{
horizontal = 1;
origin = "{0, 3}";
target = "{1, 3}";
type = Align;
options = 4;
}
);
layerId = "72F15D98-3CFC-4C1E-A8AD-435DAE6C7B41";
paths = (
{
closed = 1;
nodes = (
"66 27 LINE",
"1295 1298 LINE",
"1264 1328 LINE",
"-51 27 LINE"
);
},
{
closed = 1;
nodes = (
"840 27 LINE",
"1369 1287 LINE",
"1273 1313 LINE",
"733 27 LINE"
);
},
{
closed = 1;
nodes = (
"271 0 LINE",
"293 58 LINE",
"-134 58 LINE",
"-156 0 LINE"
);
},
{
closed = 1;
nodes = (
"977 0 LINE",
"999 58 LINE",
"605 58 LINE",
"583 0 LINE"
);
},
{
closed = 1;
nodes = (
"998 495 LINE",
"1036 562 LINE",
"555 597 LINE",
"501 532 LINE"
);
},
{
closed = 1;
nodes = (
"1466 1255 OFFCURVE",
"1585 1377 OFFCURVE",
"1585 1499 CURVE SMOOTH",
"1585 1545 OFFCURVE",
"1556 1644 OFFCURVE",
"1409 1644 CURVE SMOOTH",
"1279 1644 OFFCURVE",
"1166 1541 OFFCURVE",
"1166 1417 CURVE SMOOTH",
"1166 1323 OFFCURVE",
"1232 1255 OFFCURVE",
"1339 1255 CURVE SMOOTH"
);
},
{
closed = 1;
nodes = (
"1297 1323 OFFCURVE",
"1262 1363 OFFCURVE",
"1262 1422 CURVE SMOOTH",
"1262 1497 OFFCURVE",
"1319 1577 OFFCURVE",
"1397 1577 CURVE SMOOTH",
"1452 1577 OFFCURVE",
"1486 1539 OFFCURVE",
"1486 1481 CURVE SMOOTH",
"1486 1404 OFFCURVE",
"1430 1323 OFFCURVE",
"1351 1323 CURVE SMOOTH"
);
}
);
width = 1170;
},
{
anchors = (
{
name = top;
position = "{1908, 1358}";
}
);
guideLines = (
{
position = "{237, 46}";
}
);
layerId = "9207B417-A6D7-41AF-BE7C-4506B089B767";
paths = (
{
closed = 1;
nodes = (
"151 46 LINE",
"1372 1308 LINE",
"1293 1338 LINE",
"-14 46 LINE"
);
},
{
closed = 1;
nodes = (
"1017 46 LINE",
"1550 1317 LINE",
"1300 1330 LINE",
"762 46 LINE"
);
},
{
closed = 1;
nodes = (
"349 0 LINE",
"383 96 LINE",
"-108 96 LINE",
"-142 0 LINE"
);
},
{
closed = 1;
nodes = (
"1184 0 LINE",
"1218 96 LINE",
"646 96 LINE",
"612 0 LINE"
);
},
{
closed = 1;
nodes = (
"1027 488 LINE",
"1067 582 LINE",
"601 614 LINE",
"540 522 LINE"
);
},
{
closed = 1;
nodes = (
"1585 1250 OFFCURVE",
"1721 1372 OFFCURVE",
"1721 1519 CURVE SMOOTH",
"1721 1571 OFFCURVE",
"1691 1698 OFFCURVE",
"1519 1698 CURVE SMOOTH",
"1342 1698 OFFCURVE",
"1205 1583 OFFCURVE",
"1205 1433 CURVE SMOOTH",
"1205 1318 OFFCURVE",
"1287 1250 OFFCURVE",
"1421 1250 CURVE SMOOTH"
);
},
{
closed = 1;
nodes = (
"1397 1346 OFFCURVE",
"1384 1403 OFFCURVE",
"1384 1458 CURVE SMOOTH",
"1384 1538 OFFCURVE",
"1432 1609 OFFCURVE",
"1484 1609 CURVE SMOOTH",
"1535 1609 OFFCURVE",
"1550 1571 OFFCURVE",
"1550 1503 CURVE SMOOTH",
"1550 1426 OFFCURVE",
"1497 1346 OFFCURVE",
"1445 1346 CURVE SMOOTH"
);
}
);
width = 1361;
},
{
anchors = (
{
name = top;
position = "{1775, 1358}";
}
);
guideLines = (
{
position = "{98, 36}";
}
);
layerId = "521C1B5A-C509-4418-B7D4-F4ADA96264C1";
paths = (
{
closed = 1;
nodes = (
"52 36 LINE",
"1270 1298 LINE",
"1204 1298 LINE",
"-73 36 LINE"
);
},
{
closed = 1;
nodes = (
"814 36 LINE",
"1339 1284 LINE",
"1233 1288 LINE",
"707 36 LINE"
);
},
{
closed = 1;
nodes = (
"241 0 LINE",
"266 69 LINE",
"-161 69 LINE",
"-186 0 LINE"
);
},
{
closed = 1;
nodes = (
"947 0 LINE",
"972 70 LINE",
"578 70 LINE",
"553 0 LINE"
);
},
{
closed = 1;
nodes = (
"978 515 LINE",
"1003 581 LINE",
"551 613 LINE",
"490 549 LINE"
);
},
{
closed = 1;
nodes = (
"1438 1255 OFFCURVE",
"1557 1377 OFFCURVE",
"1557 1499 CURVE SMOOTH",
"1557 1545 OFFCURVE",
"1528 1644 OFFCURVE",
"1381 1644 CURVE SMOOTH",
"1251 1644 OFFCURVE",
"1138 1541 OFFCURVE",
"1138 1417 CURVE SMOOTH",
"1138 1323 OFFCURVE",
"1204 1255 OFFCURVE",
"1311 1255 CURVE SMOOTH"
);
},
{
closed = 1;
nodes = (
"1269 1323 OFFCURVE",
"1234 1363 OFFCURVE",
"1234 1422 CURVE SMOOTH",
"1234 1497 OFFCURVE",
"1291 1577 OFFCURVE",
"1369 1577 CURVE SMOOTH",
"1424 1577 OFFCURVE",
"1458 1539 OFFCURVE",
"1458 1481 CURVE SMOOTH",
"1458 1404 OFFCURVE",
"1402 1323 OFFCURVE",
"1323 1323 CURVE SMOOTH"
);
}
);
width = 1228;
},
{
anchors = (
{
name = top;
position = "{1884, 1358}";
}
);
guideLines = (
{
position = "{184, 41}";
}
);
layerId = "3C607254-4343-4A81-9940-4A77E9130A74";
paths = (
{
closed = 1;
nodes = (
"118 41 LINE",
"1282 1305 LINE",
"1215 1335 LINE",
"-35 41 LINE"
);
},
{
closed = 1;
nodes = (
"889 41 LINE",
"1433 1309 LINE",
"1223 1326 LINE",
"672 41 LINE"
);
},
{
closed = 1;
nodes = (
"281 0 LINE",
"312 86 LINE",
"-124 86 LINE",
"-155 0 LINE"
);
},
{
closed = 1;
nodes = (
"1009 0 LINE",
"1040 86 LINE",
"552 86 LINE",
"521 0 LINE"
);
},
{
closed = 1;
nodes = (
"949 490 LINE",
"989 577 LINE",
"562 607 LINE",
"503 522 LINE"
);
},
{
closed = 1;
nodes = (
"1484 1251 OFFCURVE",
"1616 1374 OFFCURVE",
"1616 1514 CURVE SMOOTH",
"1616 1564 OFFCURVE",
"1586 1684 OFFCURVE",
"1420 1684 CURVE SMOOTH",
"1256 1684 OFFCURVE",
"1125 1572 OFFCURVE",
"1125 1429 CURVE SMOOTH",
"1125 1319 OFFCURVE",
"1203 1251 OFFCURVE",
"1330 1251 CURVE SMOOTH"
);
},
{
closed = 1;
nodes = (
"1301 1340 OFFCURVE",
"1282 1393 OFFCURVE",
"1282 1449 CURVE SMOOTH",
"1282 1527 OFFCURVE",
"1333 1601 OFFCURVE",
"1391 1601 CURVE SMOOTH",
"1443 1601 OFFCURVE",
"1463 1563 OFFCURVE",
"1463 1497 CURVE SMOOTH",
"1463 1420 OFFCURVE",
"1409 1340 OFFCURVE",
"1351 1340 CURVE SMOOTH"
);
}
);
width = 1170;
}
);
leftKerningGroup = A;
leftMetricsKey = A;
widthMetricsKey = A;
note = Aring;
rightKerningGroup = A;
unicode = 00C5;
},
{
glyphname = AE;
lastChange = "2019-01-27 16:34:52 +0000";
layers = (
{
anchors = (
{
name = bottom;
position = "{691, 0}";
},
{
name = top;
position = "{1532, 1363}";
}
);
guideLines = (
{
position = "{165, 31}";
}
);
hints = (
{
horizontal = 1;
origin = "{1, 3}";
type = Anchor;
},
{
horizontal = 1;
origin = "{1, 3}";
target = "{1, 2}";
type = TTStem;
options = 4;
},
{
horizontal = 1;
origin = "{1, 3}";
target = "{3, 8}";
type = Align;
options = 4;
},
{
horizontal = 1;
origin = "{1, 2}";
target = "{3, 7}";
type = Align;
options = 4;
},
{
horizontal = 1;
origin = "{0, 9}";
type = Anchor;
},
{
horizontal = 1;
origin = "{0, 9}";
target = "{0, 10}";
type = TTStem;
options = 4;
},
{
horizontal = 1;
origin = "{0, 9}";
target = "{0, 1}";
type = TTStem;
options = 4;
},
{
horizontal = 1;
origin = "{1, 3}";
target = "{0, 9}";
other1 = "{4, 3}";
type = Interpolate;
},
{
horizontal = 1;
origin = "{4, 3}";
target = "{4, 2}";
type = TTStem;
options = 4;
},
{
horizontal = 1;
origin = "{1, 3}";
target = "{1, 2}";
other1 = "{2, 3}";
type = Interpolate;
options = 4;
},
{
horizontal = 1;
origin = "{2, 3}";
target = "{0, 14}";
type = Align;
options = 4;
}
);
layerId = "72F15D98-3CFC-4C1E-A8AD-435DAE6C7B41";
paths = (
{
closed = 1;
nodes = (
"879 31 LINE",
"1326 1300 LINE",
"1736 1300 LINE SMOOTH",
"1816 1300 OFFCURVE",
"1857 1282 OFFCURVE",
"1856 1254 CURVE SMOOTH",
"1845 1023 LINE",
"1870 1023 LINE",
"2003 1358 LINE",
"1004 1358 LINE",
"1004 1300 LINE",
"1080 1300 OFFCURVE",
"1150 1276 OFFCURVE",
"1182 1237 CURVE",
"758 31 LINE"
);
},
{
closed = 1;
nodes = (
"314 0 LINE",
"336 58 LINE",
"-107 58 LINE",
"-129 0 LINE"
);
},
{
closed = 1;
nodes = (
"79 31 LINE",
"1201 1286 LINE",
"1146 1321 LINE",
"-20 31 LINE"
);
},
{
closed = 1;
nodes = (
"1583 0 LINE",
"1705 342 LINE",
"1680 342 LINE",
"1501 104 LINE SMOOTH",
"1476 71 OFFCURVE",
"1435 58 OFFCURVE",
"1381 58 CURVE SMOOTH",
"581 58 LINE",
"570 0 LINE"
);
},
{
closed = 1;
nodes = (
"1458 612 LINE",
"1480 671 LINE",
"586 671 LINE",
"564 612 LINE"
);
},
{
closed = 1;
nodes = (
"1428 425 LINE",
"1586 872 LINE",
"1527 872 LINE",
"1369 425 LINE"
);
}
);
width = 1820;
},
{
anchors = (
{
name = bottom;
position = "{690, 0}";
},
{
name = top;
position = "{1571, 1363}";
}
);
layerId = "9207B417-A6D7-41AF-BE7C-4506B089B767";
paths = (
{
closed = 1;
nodes = (
"1060 0 LINE",
"1515 1262 LINE",
"1858 1262 LINE SMOOTH",
"1947 1262 OFFCURVE",
"1974 1242 OFFCURVE",
"1978 1216 CURVE SMOOTH",
"2013 1011 LINE",
"2069 1011 LINE",
"2189 1358 LINE",
"957 1358 LINE",
"957 1262 LINE",
"1033 1262 OFFCURVE",
"1186 1238 OFFCURVE",
"1214 1206 CURVE",
"773 0 LINE"
);
},
{
closed = 1;
nodes = (
"380 -1 LINE",
"414 96 LINE",
"-104 96 LINE",
"-138 -1 LINE"
);
},
{
closed = 1;
nodes = (
"86 0 LINE",
"1262 1248 LINE",
"1155 1297 LINE",
"-80 0 LINE"
);
},
{
closed = 1;
nodes = (
"1767 0 LINE",
"1891 354 LINE",
"1835 354 LINE",
"1661 166 LINE SMOOTH",
"1631 133 OFFCURVE",
"1593 96 OFFCURVE",
"1541 96 CURVE SMOOTH",
"634 96 LINE",
"600 0 LINE"
);
},
{
closed = 1;
nodes = (
"1598 594 LINE",
"1598 686 LINE",
"611 686 LINE",
"579 594 LINE"
);
},
{
closed = 1;
nodes = (
"1589 417 LINE",
"1750 881 LINE",
"1623 881 LINE",
"1462 417 LINE"
);
}
);
width = 1955;
},
{
anchors = (
{
name = bottom;
position = "{734, 0}";
},
{
name = top;
position = "{1619, 1363}";
}
);
layerId = "521C1B5A-C509-4418-B7D4-F4ADA96264C1";
paths = (
{
closed = 1;
nodes = (
"924 0 LINE",
"1399 1300 LINE",
"1835 1300 LINE SMOOTH",
"1921 1300 OFFCURVE",
"1965 1282 OFFCURVE",
"1964 1254 CURVE SMOOTH",
"1952 1023 LINE",
"1979 1023 LINE",
"2122 1358 LINE",
"1051 1358 LINE",
"1051 1300 LINE",
"1157 1300 OFFCURVE",
"1201 1284 OFFCURVE",
"1246 1237 CURVE",
"795 0 LINE"
);
},
{
closed = 1;
nodes = (
"323 0 LINE",
"349 70 LINE",
"-125 70 LINE",
"-151 0 LINE"
);
},
{
closed = 1;
nodes = (
"48 0 LINE",
"1270 1297 LINE",
"1220 1336 LINE",
"-57 0 LINE"
);
},
{
closed = 1;
nodes = (
"1686 0 LINE",
"1817 342 LINE",
"1790 342 LINE",
"1598 104 LINE SMOOTH",
"1571 71 OFFCURVE",
"1527 58 OFFCURVE",
"1469 58 CURVE SMOOTH",
"605 58 LINE",
"593 0 LINE"
);
},
{
closed = 1;
nodes = (
"1555 612 LINE",
"1579 671 LINE",
"615 671 LINE",
"591 612 LINE"
);
},
{
closed = 1;
nodes = (
"1523 425 LINE",
"1692 872 LINE",
"1629 872 LINE",
"1460 425 LINE"
);
}
);
width = 1943;
},
{
anchors = (
{
name = bottom;
position = "{640, 0}";
},
{
name = top;
position = "{1511, 1363}";
}
);
layerId = "3C607254-4343-4A81-9940-4A77E9130A74";
paths = (
{
closed = 1;
nodes = (
"958 0 LINE",
"1419 1272 LINE",
"1736 1272 LINE SMOOTH",
"1824 1272 OFFCURVE",
"1854 1252 OFFCURVE",
"1857 1226 CURVE SMOOTH",
"1880 1014 LINE",
"1928 1014 LINE",
"2051 1358 LINE",
"919 1358 LINE",
"919 1272 LINE",
"994 1272 OFFCURVE",
"1126 1248 OFFCURVE",
"1156 1214 CURVE",
"716 0 LINE"
);
},
{
closed = 1;
nodes = (
"313 -1 LINE",
"344 86 LINE",
"-105 86 LINE",
"-136 -1 LINE"
);
},
{
closed = 1;
nodes = (
"77 0 LINE",
"1196 1258 LINE",
"1102 1303 LINE",
"-72 0 LINE"
);
},
{
closed = 1;
nodes = (
"1630 0 LINE",
"1753 351 LINE",
"1705 351 LINE",
"1530 150 LINE SMOOTH",
"1501 117 OFFCURVE",
"1462 86 OFFCURVE",
"1410 86 CURVE SMOOTH",
"570 86 LINE",
"542 0 LINE"
);
},
{
closed = 1;
nodes = (
"1472 599 LINE",
"1477 682 LINE",
"584 682 LINE",
"555 599 LINE"
);
},
{
closed = 1;
nodes = (
"1457 419 LINE",
"1618 879 LINE",
"1508 879 LINE",
"1348 419 LINE"
);
}
);
width = 1820;
}
);
leftKerningGroup = AE;
note = AE;
rightKerningGroup = AE;
unicode = 00C6;
},
{
glyphname = B;
lastChange = "2019-01-27 21:50:45 +0000";
layers = (
{
anchors = (
{
name = bottom;
position = "{382, 0}";
},
{
name = top;
position = "{863, 1363}";
}
);
hints = (
{
horizontal = 1;
origin = "{0, 14}";
type = Anchor;
},
{
horizontal = 1;
origin = "{0, 14}";
target = "{0, 15}";
type = TTStem;
options = 4;
},
{
horizontal = 1;
origin = "{0, 36}";
type = Anchor;
},
{
horizontal = 1;
origin = "{0, 36}";
target = "{0, 35}";
type = TTStem;
options = 4;
},
{
horizontal = 1;
origin = "{0, 14}";
target = "{0, 36}";
other1 = "{0, 27}";
type = Interpolate;
},
{
horizontal = 1;
origin = "{0, 27}";
target = "{0, 26}";
type = TTStem;
options = 4;
},
{
horizontal = 1;
origin = "{0, 36}";
target = "{0, 35}";
other1 = "{1, 3}";
type = Interpolate;
options = 4;
},
{
horizontal = 1;
origin = "{0, 14}";
target = "{0, 15}";
other1 = "{1, 2}";
type = Interpolate;
options = 4;
}
);
layerId = "72F15D98-3CFC-4C1E-A8AD-435DAE6C7B41";
paths = (
{
closed = 1;
nodes = (
"487 0 LINE SMOOTH",
"984 0 OFFCURVE",
"1045 213 OFFCURVE",
"1045 362 CURVE SMOOTH",
"1045 538 OFFCURVE",
"950 648 OFFCURVE",
"719 718 CURVE",
"712 690 LINE",
"1074 690 OFFCURVE",
"1197 875 OFFCURVE",
"1197 1039 CURVE SMOOTH",
"1197 1215 OFFCURVE",
"1058 1358 OFFCURVE",
"777 1358 CURVE SMOOTH",
"369 1358 LINE",
"355 1300 LINE",
"657 1300 LINE SMOOTH",
"917 1300 OFFCURVE",
"1068 1233 OFFCURVE",
"1068 1053 CURVE SMOOTH",
"1068 943 OFFCURVE",
"1014 864 OFFCURVE",
"943 819 CURVE SMOOTH",
"869 772 OFFCURVE",
"757 748 OFFCURVE",
"463 748 CURVE SMOOTH",
"398 748 LINE",
"393 687 LINE",
"445 687 LINE SMOOTH",
"856 687 OFFCURVE",
"904 485 OFFCURVE",
"904 374 CURVE SMOOTH",
"904 204 OFFCURVE",
"808 58 OFFCURVE",
"383 58 CURVE SMOOTH",
"-79 58 LINE",
"-99 0 LINE"
);
},
{
closed = 1;
nodes = (
"209 28 LINE",
"668 1329 LINE",
"546 1329 LINE",
"87 28 LINE"
);
}
);
width = 1104;
},
{
anchors = (
{
name = bottom;
position = "{460, 0}";
},
{
name = top;
position = "{941, 1363}";
}
);
layerId = "9207B417-A6D7-41AF-BE7C-4506B089B767";
paths = (
{
closed = 1;
nodes = (
"572 0 LINE SMOOTH",
"981 0 OFFCURVE",
"1211 129 OFFCURVE",
"1211 362 CURVE SMOOTH",
"1211 554 OFFCURVE",
"1072 658 OFFCURVE",
"732 745 CURVE",
"719 693 LINE",
"1093 693 OFFCURVE",
"1363 787 OFFCURVE",
"1363 1039 CURVE SMOOTH",
"1363 1263 OFFCURVE",
"1149 1358 OFFCURVE",
"820 1358 CURVE SMOOTH",
"366 1358 LINE",
"332 1262 LINE",
"744 1262 LINE SMOOTH",
"973 1262 OFFCURVE",
"1077 1217 OFFCURVE",
"1077 1049 CURVE SMOOTH",
"1077 938 OFFCURVE",
"1039 889 OFFCURVE",
"989 852 CURVE SMOOTH",
"896 782 OFFCURVE",
"820 773 OFFCURVE",
"548 773 CURVE SMOOTH",
"402 773 LINE",
"397 677 LINE",
"530 677 LINE SMOOTH",
"789 677 OFFCURVE",
"905 577 OFFCURVE",
"905 374 CURVE SMOOTH",
"905 168 OFFCURVE",
"759 96 OFFCURVE",
"468 96 CURVE SMOOTH",
"-60 96 LINE",
"-94 0 LINE"
);
},
{
closed = 1;
nodes = (
"378 48 LINE",
"820 1305 LINE",
"534 1305 LINE",
"92 48 LINE"
);
}
);
width = 1265;
},
{
anchors = (
{
name = bottom;
position = "{357, 0}";
},
{
name = top;
position = "{856, 1363}";
}
);
layerId = "521C1B5A-C509-4418-B7D4-F4ADA96264C1";
paths = (
{
closed = 1;
nodes = (
"507 0 LINE SMOOTH",
"1050 0 OFFCURVE",
"1116 213 OFFCURVE",
"1116 362 CURVE SMOOTH",
"1116 538 OFFCURVE",
"1013 648 OFFCURVE",
"760 718 CURVE",
"753 690 LINE",
"1148 690 OFFCURVE",
"1282 875 OFFCURVE",
"1282 1039 CURVE SMOOTH",
"1282 1215 OFFCURVE",
"1161 1358 OFFCURVE",
"774 1358 CURVE SMOOTH",
"378 1358 LINE",
"363 1288 LINE",
"708 1288 LINE SMOOTH",
"992 1288 OFFCURVE",
"1153 1224 OFFCURVE",
"1153 1053 CURVE SMOOTH",
"1153 943 OFFCURVE",
"1090 865 OFFCURVE",
"1000 813 CURVE SMOOTH",
"933 774 OFFCURVE",
"802 752 OFFCURVE",
"481 752 CURVE SMOOTH",
"408 752 LINE",
"403 682 LINE",
"463 682 LINE SMOOTH",
"912 682 OFFCURVE",
"978 468 OFFCURVE",
"978 374 CURVE SMOOTH",
"978 210 OFFCURVE",
"858 70 OFFCURVE",
"393 70 CURVE SMOOTH",
"-110 70 LINE",
"-134 0 LINE"
);
},
{
closed = 1;
nodes = (
"202 35 LINE",
"699 1325 LINE",
"570 1325 LINE",
"73 35 LINE"
);
}
);
width = 1190;
},
{
anchors = (
{
name = bottom;
position = "{377, 0}";
},
{
name = top;
position = "{858, 1363}";
}
);
layerId = "3C607254-4343-4A81-9940-4A77E9130A74";
paths = (
{
closed = 1;
nodes = (
"488 0 LINE SMOOTH",
"919 0 OFFCURVE",
"1059 176 OFFCURVE",
"1059 385 CURVE SMOOTH",
"1059 555 OFFCURVE",
"964 655 OFFCURVE",
"652 738 CURVE",
"654 692 LINE",
"1025 692 OFFCURVE",
"1211 820 OFFCURVE",
"1211 1039 CURVE SMOOTH",
"1211 1241 OFFCURVE",
"1060 1358 OFFCURVE",
"712 1358 CURVE SMOOTH",
"344 1358 LINE",
"315 1272 LINE",
"619 1272 LINE SMOOTH",
"872 1272 OFFCURVE",
"965 1204 OFFCURVE",
"965 1040 CURVE SMOOTH",
"965 939 OFFCURVE",
"932 879 OFFCURVE",
"862 831 CURVE SMOOTH",
"778 773 OFFCURVE",
"688 767 OFFCURVE",
"464 767 CURVE SMOOTH",
"338 767 LINE",
"333 680 LINE",
"439 680 LINE SMOOTH",
"737 680 OFFCURVE",
"795 546 OFFCURVE",
"795 388 CURVE SMOOTH",
"795 156 OFFCURVE",
"668 86 OFFCURVE",
"384 86 CURVE SMOOTH",
"-118 86 LINE",
"-148 0 LINE"
);
},
{
closed = 1;
nodes = (
"269 41 LINE",
"718 1317 LINE",
"476 1317 LINE",
"27 41 LINE"
);
}
);
width = 1104;
}
);
leftMetricsKey = H;
note = B;
rightKerningGroup = B;
unicode = 0042;
},
{
glyphname = C;
lastChange = "2019-01-27 16:34:52 +0000";
layers = (
{
anchors = (
{
name = bottom;
position = "{498, 0}";
},
{
name = top;
position = "{1060, 1358}";
}
);
hints = (
{
horizontal = 1;
origin = "{0, 27}";
type = Anchor;
},
{
horizontal = 1;
origin = "{0, 33}";
type = Anchor;
},
{
horizontal = 1;
origin = "{0, 27}";
target = "{0, 16}";
type = TTStem;
options = 4;
},
{
horizontal = 1;
origin = "{0, 33}";
target = "{0, 10}";
type = TTStem;
options = 4;
}
);
layerId = "72F15D98-3CFC-4C1E-A8AD-435DAE6C7B41";
paths = (
{
closed = 1;
nodes = (
"711 -27 OFFCURVE",
"850 6 OFFCURVE",
"1086 167 CURVE",
"1069 190 LINE",
"978 -7 LINE",
"1040 -7 LINE",
"1248 439 LINE",
"1182 439 LINE",
"1074 202 OFFCURVE",
"819 34 OFFCURVE",
"575 34 CURVE SMOOTH",
"346 34 OFFCURVE",
"225 174 OFFCURVE",
"225 396 CURVE SMOOTH",
"225 778 OFFCURVE",
"583 1324 OFFCURVE",
"1052 1324 CURVE SMOOTH",
"1320 1324 OFFCURVE",
"1372 1141 OFFCURVE",
"1372 955 CURVE",
"1431 955 LINE",
"1584 1370 LINE",
"1521 1370 LINE",
"1439 1141 LINE",
"1472 1172 LINE",
"1362 1328 OFFCURVE",
"1207 1385 OFFCURVE",
"1044 1385 CURVE SMOOTH",
"541 1385 OFFCURVE",
"93 829 OFFCURVE",
"93 396 CURVE SMOOTH",
"93 139 OFFCURVE",
"254 -27 OFFCURVE",
"566 -27 CURVE SMOOTH"
);
}
);
width = 1342;
},
{
anchors = (
{
name = bottom;
position = "{525, 0}";
},
{
name = top;
position = "{1089, 1358}";
}
);
layerId = "9207B417-A6D7-41AF-BE7C-4506B089B767";
paths = (
{
closed = 1;
nodes = (
"736 -27 OFFCURVE",
"911 2 OFFCURVE",
"1147 197 CURVE",
"1107 214 LINE",
"1006 0 LINE",
"1115 0 LINE",
"1321 450 LINE",
"1219 450 LINE",
"1123 232 OFFCURVE",
"881 68 OFFCURVE",
"649 68 CURVE SMOOTH",
"461 68 OFFCURVE",
"381 182 OFFCURVE",
"381 359 CURVE SMOOTH",
"381 709 OFFCURVE",
"693 1296 OFFCURVE",
"1124 1296 CURVE SMOOTH",
"1350 1296 OFFCURVE",
"1409 1134 OFFCURVE",
"1409 965 CURVE",
"1504 965 LINE",
"1656 1370 LINE",
"1556 1370 LINE",
"1478 1154 LINE",
"1507 1172 LINE",
"1422 1338 OFFCURVE",
"1249 1385 OFFCURVE",
"1083 1385 CURVE SMOOTH",
"540 1385 OFFCURVE",
"68 885 OFFCURVE",
"68 422 CURVE SMOOTH",
"68 147 OFFCURVE",
"235 -27 OFFCURVE",
"590 -27 CURVE SMOOTH"
);
}
);
width = 1412;
},
{
anchors = (
{
name = bottom;
position = "{537, 0}";
},
{
name = top;
position = "{1140, 1363}";
}
);
layerId = "521C1B5A-C509-4418-B7D4-F4ADA96264C1";
paths = (
{
closed = 1;
nodes = (
"734 -27 OFFCURVE",
"883 6 OFFCURVE",
"1136 167 CURVE",
"1118 190 LINE",
"1020 -7 LINE",
"1087 -7 LINE",
"1310 439 LINE",
"1239 439 LINE",
"1123 207 OFFCURVE",
"850 43 OFFCURVE",
"588 43 CURVE SMOOTH",
"340 43 OFFCURVE",
"210 179 OFFCURVE",
"210 396 CURVE SMOOTH",
"210 774 OFFCURVE",
"595 1315 OFFCURVE",
"1100 1315 CURVE SMOOTH",
"1387 1315 OFFCURVE",
"1443 1136 OFFCURVE",
"1443 955 CURVE",
"1506 955 LINE",
"1670 1370 LINE",
"1602 1370 LINE",
"1511 1141 LINE",
"1550 1172 LINE",
"1432 1328 OFFCURVE",
"1266 1385 OFFCURVE",
"1091 1385 CURVE SMOOTH",
"553 1385 OFFCURVE",
"74 829 OFFCURVE",
"74 396 CURVE SMOOTH",
"74 139 OFFCURVE",
"246 -27 OFFCURVE",
"579 -27 CURVE SMOOTH"
);
}
);
width = 1441;
},
{
anchors = (
{
name = bottom;
position = "{496, 0}";
},
{
name = top;
position = "{1059, 1358}";
}
);
layerId = "3C607254-4343-4A81-9940-4A77E9130A74";
paths = (
{
closed = 1;
nodes = (
"707 -27 OFFCURVE",
"873 3 OFFCURVE",
"1109 189 CURVE",
"1075 208 LINE",
"976 -2 LINE",
"1073 -2 LINE",
"1280 447 LINE",
"1187 447 LINE",
"1088 224 OFFCURVE",
"842 59 OFFCURVE",
"608 59 CURVE SMOOTH",
"409 59 OFFCURVE",
"319 181 OFFCURVE",
"319 368 CURVE SMOOTH",
"319 727 OFFCURVE",
"643 1303 OFFCURVE",
"1083 1303 CURVE SMOOTH",
"1320 1303 OFFCURVE",
"1377 1135 OFFCURVE",
"1377 962 CURVE",
"1463 962 LINE",
"1615 1370 LINE",
"1525 1370 LINE",
"1446 1151 LINE",
"1476 1172 LINE",
"1383 1338 OFFCURVE",
"1211 1385 OFFCURVE",
"1051 1385 CURVE SMOOTH",
"520 1385 OFFCURVE",
"55 870 OFFCURVE",
"55 415 CURVE SMOOTH",
"55 145 OFFCURVE",
"220 -27 OFFCURVE",
"561 -27 CURVE SMOOTH"
);
}
);
width = 1342;
}
);
leftKerningGroup = C;
leftMetricsKey = O;
note = C;
rightKerningGroup = C;
unicode = 0043;
},
{
glyphname = D;
lastChange = "2019-01-27 16:34:52 +0000";
layers = (
{
anchors = (
{
name = bottom;
position = "{549, 0}";
},
{
name = center;
position = "{466, 679}";
},
{
name = overlay;
position = "{474, 704}";
},
{
name = top;
position = "{903, 1358}";
}
);
background = {
paths = (
{
closed = 1;
nodes = (
"545 0 LINE SMOOTH",
"729 0 OFFCURVE",
"880 19 OFFCURVE",
"1012 80 CURVE SMOOTH",
"1316 221 OFFCURVE",
"1463 514 OFFCURVE",
"1463 779 CURVE SMOOTH",
"1463 1000 OFFCURVE",
"1360 1189 OFFCURVE",
"1180 1289 CURVE SMOOTH",
"1054 1359 OFFCURVE",
"896 1385 OFFCURVE",
"723 1385 CURVE SMOOTH",
"588 1385 OFFCURVE",
"482 1369 OFFCURVE",
"362 1337 CURVE",
"389 1274 LINE",
"490 1310 OFFCURVE",
"612 1324 OFFCURVE",
"722 1324 CURVE SMOOTH",
"894 1324 OFFCURVE",
"1031 1290 OFFCURVE",
"1138 1213 CURVE SMOOTH",
"1251 1132 OFFCURVE",
"1328 1002 OFFCURVE",
"1328 815 CURVE SMOOTH",
"1328 593 OFFCURVE",
"1223 324 OFFCURVE",
"1021 194 CURVE SMOOTH",
"854 87 OFFCURVE",
"604 58 OFFCURVE",
"289 58 CURVE SMOOTH",
"-31 58 LINE",
"-53 0 LINE"
);
},
{
closed = 1;
nodes = (
"251 0 LINE",
"719 1352 LINE",
"598 1352 LINE",
"130 0 LINE"
);
}
);
};
hints = (
{
horizontal = 1;
origin = "{0, 12}";
type = Anchor;
},
{
horizontal = 1;
origin = "{0, 33}";
type = Anchor;
},
{
horizontal = 1;
origin = "{0, 12}";
target = "{0, 19}";
type = TTStem;
options = 4;
},
{
horizontal = 1;
origin = "{0, 12}";
target = "{0, 19}";
other1 = "{1, 1}";
type = Interpolate;
options = 4;
},
{
horizontal = 1;
origin = "{0, 33}";
target = "{0, 32}";
type = TTStem;
options = 4;
},
{
horizontal = 1;
origin = "{0, 33}";
target = "{0, 32}";
other1 = "{1, 3}";
type = Interpolate;
options = 4;
}
);
layerId = "72F15D98-3CFC-4C1E-A8AD-435DAE6C7B41";
paths = (
{
closed = 1;
nodes = (
"545 0 LINE SMOOTH",
"729 0 OFFCURVE",
"880 19 OFFCURVE",
"1012 80 CURVE SMOOTH",
"1316 221 OFFCURVE",
"1463 514 OFFCURVE",
"1463 779 CURVE SMOOTH",
"1463 1000 OFFCURVE",
"1360 1189 OFFCURVE",
"1180 1289 CURVE SMOOTH",
"1054 1359 OFFCURVE",
"896 1385 OFFCURVE",
"723 1385 CURVE SMOOTH",
"588 1385 OFFCURVE",
"482 1369 OFFCURVE",
"362 1337 CURVE",
"389 1274 LINE",
"490 1310 OFFCURVE",
"612 1324 OFFCURVE",
"722 1324 CURVE SMOOTH",
"894 1324 OFFCURVE",
"1031 1290 OFFCURVE",
"1138 1213 CURVE SMOOTH",
"1251 1132 OFFCURVE",
"1328 1002 OFFCURVE",
"1328 815 CURVE SMOOTH",
"1328 593 OFFCURVE",
"1223 324 OFFCURVE",
"1021 194 CURVE SMOOTH",
"854 87 OFFCURVE",
"604 58 OFFCURVE",
"289 58 CURVE SMOOTH",
"-31 58 LINE",
"-53 0 LINE"
);
},
{
closed = 1;
nodes = (
"260 27 LINE",
"719 1352 LINE",
"598 1352 LINE",
"139 27 LINE"
);
}
);
width = 1444;
},
{
anchors = (
{
name = bottom;
position = "{610, 0}";
},
{
name = center;
position = "{551, 682}";
},
{
name = overlay;
position = "{560, 704}";
},
{
name = top;
position = "{1101, 1363}";
}
);
layerId = "9207B417-A6D7-41AF-BE7C-4506B089B767";
paths = (
{
closed = 1;
nodes = (
"572 0 LINE SMOOTH",
"702 0 OFFCURVE",
"879 0 OFFCURVE",
"1063 82 CURVE SMOOTH",
"1359 214 OFFCURVE",
"1542 503 OFFCURVE",
"1542 782 CURVE SMOOTH",
"1542 995 OFFCURVE",
"1435 1182 OFFCURVE",
"1242 1287 CURVE SMOOTH",
"1122 1352 OFFCURVE",
"970 1385 OFFCURVE",
"763 1385 CURVE SMOOTH",
"614 1385 OFFCURVE",
"496 1368 OFFCURVE",
"357 1332 CURVE",
"374 1259 LINE",
"466 1287 OFFCURVE",
"550 1299 OFFCURVE",
"659 1299 CURVE SMOOTH",
"836 1299 OFFCURVE",
"973 1268 OFFCURVE",
"1068 1200 CURVE SMOOTH",
"1178 1121 OFFCURVE",
"1229 994 OFFCURVE",
"1229 812 CURVE SMOOTH",
"1229 567 OFFCURVE",
"1136 343 OFFCURVE",
"942 217 CURVE SMOOTH",
"755 96 OFFCURVE",
"519 96 OFFCURVE",
"257 96 CURVE SMOOTH",
"-62 96 LINE",
"-102 0 LINE"
);
},
{
closed = 1;
nodes = (
"411 44 LINE",
"860 1338 LINE",
"585 1336 LINE",
"136 44 LINE"
);
}
);
width = 1487;
},
{
anchors = (
{
name = bottom;
position = "{520, 0}";
},
{
name = center;
position = "{452, 679}";
},
{
name = overlay;
position = "{457, 704}";
},
{
name = top;
position = "{885, 1358}";
}
);
background = {
paths = (
{
closed = 1;
nodes = (
"435 3 LINE SMOOTH",
"719 5 OFFCURVE",
"870 19 OFFCURVE",
"1010 84 CURVE SMOOTH",
"1307 221 OFFCURVE",
"1454 514 OFFCURVE",
"1454 779 CURVE SMOOTH",
"1454 1000 OFFCURVE",
"1350 1189 OFFCURVE",
"1170 1289 CURVE SMOOTH",
"1045 1359 OFFCURVE",
"886 1385 OFFCURVE",
"713 1385 CURVE SMOOTH",
"578 1385 OFFCURVE",
"471 1369 OFFCURVE",
"351 1337 CURVE",
"377 1266 LINE",
"478 1303 OFFCURVE",
"598 1315 OFFCURVE",
"709 1315 CURVE SMOOTH",
"880 1315 OFFCURVE",
"1014 1289 OFFCURVE",
"1121 1213 CURVE SMOOTH",
"1238 1130 OFFCURVE",
"1313 1000 OFFCURVE",
"1313 812 CURVE SMOOTH",
"1313 591 OFFCURVE",
"1209 331 OFFCURVE",
"1006 201 CURVE SMOOTH",
"838 93 OFFCURVE",
"614 70 OFFCURVE",
"269 70 CURVE SMOOTH",
"-44 70 LINE",
"-66 0 LINE"
);
},
{
closed = 1;
nodes = (
"248 0 LINE",
"717 1352 LINE",
"586 1352 LINE",
"117 0 LINE"
);
}
);
};
layerId = "521C1B5A-C509-4418-B7D4-F4ADA96264C1";
paths = (
{
closed = 1;
nodes = (
"435 0 LINE SMOOTH",
"719 0 OFFCURVE",
"870 19 OFFCURVE",
"1010 84 CURVE SMOOTH",
"1307 221 OFFCURVE",
"1454 514 OFFCURVE",
"1454 779 CURVE SMOOTH",
"1454 1000 OFFCURVE",
"1350 1189 OFFCURVE",
"1170 1289 CURVE SMOOTH",
"1045 1359 OFFCURVE",
"886 1385 OFFCURVE",
"713 1385 CURVE SMOOTH",
"578 1385 OFFCURVE",
"471 1369 OFFCURVE",
"351 1337 CURVE",
"377 1266 LINE",
"478 1303 OFFCURVE",
"598 1315 OFFCURVE",
"709 1315 CURVE SMOOTH",
"880 1315 OFFCURVE",
"1014 1289 OFFCURVE",
"1121 1213 CURVE SMOOTH",
"1238 1130 OFFCURVE",
"1313 1000 OFFCURVE",
"1313 812 CURVE SMOOTH",
"1313 591 OFFCURVE",
"1209 331 OFFCURVE",
"1006 201 CURVE SMOOTH",
"838 93 OFFCURVE",
"614 70 OFFCURVE",
"269 70 CURVE SMOOTH",
"-44 70 LINE",
"-66 0 LINE"
);
},
{
closed = 1;
nodes = (
"258 30 LINE",
"717 1352 LINE",
"586 1352 LINE",
"127 30 LINE"
);
}
);
width = 1455;
},
{
associatedMasterId = "521C1B5A-C509-4418-B7D4-F4ADA96264C1";
background = {
paths = (
{
closed = 1;
nodes = (
"365 0 LINE SMOOTH",
"980 0 OFFCURVE",
"1366 292 OFFCURVE",
"1366 756 CURVE SMOOTH",
"1366 1126 OFFCURVE",
"1113 1358 OFFCURVE",
"712 1358 CURVE SMOOTH",
"345 1358 LINE",
"333 1300 LINE",
"443 1300 OFFCURVE",
"491 1277 OFFCURVE",
"491 1231 CURVE SMOOTH",
"491 1217 OFFCURVE",
"489 1209 OFFCURVE",
"483 1195 CURVE SMOOTH",
"91 163 LINE SMOOTH",
"68 93 OFFCURVE",
"-8 58 OFFCURVE",
"-111 58 CURVE",
"-123 0 LINE"
);
},
{
closed = 1;
nodes = (
"299 53 OFFCURVE",
"243 90 OFFCURVE",
"243 166 CURVE SMOOTH",
"243 199 OFFCURVE",
"256 250 OFFCURVE",
"274 298 CURVE SMOOTH",
"654 1297 LINE",
"708 1297 LINE SMOOTH",
"1009 1297 OFFCURVE",
"1199 1088 OFFCURVE",
"1199 756 CURVE SMOOTH",
"1199 324 OFFCURVE",
"877 53 OFFCURVE",
"366 53 CURVE SMOOTH"
);
}
);
};
layerId = "EE92A02A-0CA2-4B17-8FB3-C0510ED3C4AB";
name = "Nov 2 18, 05:35";
paths = (
{
closed = 1;
nodes = (
"467 0 LINE SMOOTH",
"584 0 OFFCURVE",
"698 3 OFFCURVE",
"814 33 CURVE SMOOTH",
"948 68 OFFCURVE",
"1072 154 OFFCURVE",
"1164 285 CURVE SMOOTH",
"1246 402 OFFCURVE",
"1296 569 OFFCURVE",
"1296 737 CURVE SMOOTH",
"1296 1115 OFFCURVE",
"1027 1358 OFFCURVE",
"612 1358 CURVE SMOOTH",
"506 1358 OFFCURVE",
"402 1342 OFFCURVE",
"296 1310 CURVE",
"312 1253 LINE",
"395 1280 OFFCURVE",
"480 1293 OFFCURVE",
"571 1293 CURVE SMOOTH",
"795 1293 OFFCURVE",
"982 1195 OFFCURVE",
"1062 1061 CURVE SMOOTH",
"1111 979 OFFCURVE",
"1133 894 OFFCURVE",
"1133 781 CURVE SMOOTH",
"1133 506 OFFCURVE",
"1024 290 OFFCURVE",
"820 167 CURVE SMOOTH",
"652 66 OFFCURVE",
"454 56 OFFCURVE",
"232 56 CURVE SMOOTH",
"145 56 OFFCURVE",
"57 58 OFFCURVE",
"-29 61 CURVE SMOOTH",
"-56 62 OFFCURVE",
"-82 63 OFFCURVE",
"-108 63 CURVE",
"-114 0 LINE"
);
},
{
closed = 1;
nodes = (
"-190 1320 LINE",
"-354 1327 LINE",
"-807 21 LINE",
"-649 21 LINE"
);
}
);
width = 1376;
},
{
anchors = (
{
name = bottom;
position = "{571, 0}";
},
{
name = center;
position = "{476, 681}";
},
{
name = overlay;
position = "{484, 704}";
},
{
name = top;
position = "{887, 1362}";
}
);
layerId = "3C607254-4343-4A81-9940-4A77E9130A74";
paths = (
{
closed = 1;
nodes = (
"542 0 LINE SMOOTH",
"674 0 OFFCURVE",
"851 0 OFFCURVE",
"1035 82 CURVE SMOOTH",
"1332 214 OFFCURVE",
"1516 503 OFFCURVE",
"1516 781 CURVE SMOOTH",
"1516 997 OFFCURVE",
"1405 1185 OFFCURVE",
"1213 1288 CURVE SMOOTH",
"1090 1354 OFFCURVE",
"935 1385 OFFCURVE",
"734 1385 CURVE SMOOTH",
"585 1385 OFFCURVE",
"469 1368 OFFCURVE",
"335 1333 CURVE",
"354 1263 LINE",
"449 1293 OFFCURVE",
"551 1305 OFFCURVE",
"661 1305 CURVE SMOOTH",
"840 1305 OFFCURVE",
"981 1273 OFFCURVE",
"1081 1202 CURVE SMOOTH",
"1195 1121 OFFCURVE",
"1252 991 OFFCURVE",
"1252 809 CURVE SMOOTH",
"1252 560 OFFCURVE",
"1145 338 OFFCURVE",
"952 213 CURVE SMOOTH",
"756 86 OFFCURVE",
"512 86 OFFCURVE",
"242 86 CURVE SMOOTH",
"-78 86 LINE",
"-113 0 LINE"
);
},
{
closed = 1;
nodes = (
"350 42 LINE",
"800 1342 LINE",
"558 1340 LINE",
"108 42 LINE"
);
}
);
width = 1444;
}
);
leftMetricsKey = H;
note = D;
rightKerningGroup = D;
rightMetricsKey = O;
unicode = 0044;
},
{
glyphname = E;
lastChange = "2019-01-27 16:34:52 +0000";
layers = (
{
anchors = (
{
name = bottom;
position = "{414, 0}";
},
{
name = ogonek;
position = "{852, 10}";
},
{
name = top;
position = "{915, 1363}";
},
{
name = topleft;
position = "{371, 1363}";
}
);
hints = (
{
horizontal = 1;
origin = "{1, 8}";
type = Anchor;
},
{
horizontal = 1;
origin = "{4, 2}";
type = Anchor;
},
{
horizontal = 1;
origin = "{1, 8}";
target = "{1, 7}";
type = TTStem;
options = 4;
},
{
horizontal = 1;
origin = "{4, 2}";
target = "{4, 3}";
type = TTStem;
options = 4;
},
{
horizontal = 1;
origin = "{1, 8}";
target = "{4, 2}";
other1 = "{2, 3}";
type = Interpolate;
},
{
horizontal = 1;
origin = "{2, 3}";
target = "{2, 2}";
type = TTStem;
options = 4;
},
{
horizontal = 1;
origin = "{1, 8}";
target = "{1, 7}";
other1 = "{0, 3}";
type = Interpolate;
options = 4;
},
{
horizontal = 1;
origin = "{4, 2}";
target = "{4, 3}";
other1 = "{0, 2}";
type = Interpolate;
options = 4;
}
);
layerId = "72F15D98-3CFC-4C1E-A8AD-435DAE6C7B41";
paths = (
{
closed = 1;
nodes = (
"208 28 LINE",
"667 1330 LINE",
"546 1330 LINE",
"87 28 LINE"
);
},
{
closed = 1;
nodes = (
"913 0 LINE",
"1035 342 LINE",
"1010 342 LINE",
"831 104 LINE SMOOTH",
"806 71 OFFCURVE",
"765 58 OFFCURVE",
"711 58 CURVE SMOOTH",
"-89 58 LINE",
"-100 0 LINE"
);
},
{
closed = 1;
nodes = (
"788 612 LINE",
"810 671 LINE",
"396 671 LINE",
"374 612 LINE"
);
},
{
closed = 1;
nodes = (
"758 425 LINE",
"916 872 LINE",
"857 872 LINE",
"699 425 LINE"
);
},
{
closed = 1;
nodes = (
"1193 1023 LINE",
"1326 1358 LINE",
"369 1358 LINE",
"358 1300 LINE",
"1059 1300 LINE SMOOTH",
"1139 1300 OFFCURVE",
"1180 1282 OFFCURVE",
"1179 1254 CURVE SMOOTH",
"1168 1023 LINE"
);
}
);
width = 1150;
},
{
anchors = (
{
name = bottom;
position = "{387, 0}";
},
{
name = ogonek;
position = "{935, 10}";
},
{
name = top;
position = "{958, 1363}";
},
{
name = topleft;
position = "{344, 1363}";
}
);
layerId = "9207B417-A6D7-41AF-BE7C-4506B089B767";
paths = (
{
closed = 1;
nodes = (
"350 43 LINE",
"810 1315 LINE",
"530 1315 LINE",
"61 43 LINE"
);
},
{
closed = 1;
nodes = (
"1040 0 LINE",
"1164 354 LINE",
"1108 354 LINE",
"934 166 LINE SMOOTH",
"904 133 OFFCURVE",
"866 96 OFFCURVE",
"814 96 CURVE SMOOTH",
"-93 96 LINE",
"-127 0 LINE"
);
},
{
closed = 1;
nodes = (
"871 594 LINE",
"871 686 LINE",
"488 686 LINE",
"488 594 LINE"
);
},
{
closed = 1;
nodes = (
"862 417 LINE",
"1023 881 LINE",
"896 881 LINE",
"735 417 LINE"
);
},
{
closed = 1;
nodes = (
"1342 1011 LINE",
"1462 1358 LINE",
"368 1358 LINE",
"334 1262 LINE",
"1131 1262 LINE SMOOTH",
"1220 1262 OFFCURVE",
"1247 1242 OFFCURVE",
"1251 1216 CURVE SMOOTH",
"1286 1011 LINE"
);
}
);
width = 1228;
},
{
anchors = (
{
name = bottom;
position = "{372, 0}";
},
{
name = ogonek;
position = "{840, 10}";
},
{
name = top;
position = "{893, 1363}";
},
{
name = topleft;
position = "{311, 1363}";
}
);
layerId = "521C1B5A-C509-4418-B7D4-F4ADA96264C1";
paths = (
{
closed = 1;
nodes = (
"210 32 LINE",
"701 1322 LINE",
"571 1322 LINE",
"81 32 LINE"
);
},
{
closed = 1;
nodes = (
"964 0 LINE",
"1095 342 LINE",
"1058 342 LINE",
"876 116 LINE SMOOTH",
"849 82 OFFCURVE",
"805 70 OFFCURVE",
"747 70 CURVE SMOOTH",
"-110 70 LINE",
"-122 0 LINE"
);
},
{
closed = 1;
nodes = (
"830 607 LINE",
"854 677 LINE",
"410 677 LINE",
"386 607 LINE"
);
},
{
closed = 1;
nodes = (
"805 425 LINE",
"974 872 LINE",
"904 872 LINE",
"735 425 LINE"
);
},
{
closed = 1;
nodes = (
"1264 1023 LINE",
"1407 1358 LINE",
"381 1358 LINE",
"357 1289 LINE",
"1120 1289 LINE SMOOTH",
"1206 1289 OFFCURVE",
"1252 1271 OFFCURVE",
"1249 1243 CURVE SMOOTH",
"1227 1023 LINE"
);
}
);
width = 1223;
},
{
anchors = (
{
name = bottom;
position = "{370, 0}";
},
{
name = ogonek;
position = "{890, 10}";
},
{
name = top;
position = "{923, 1363}";
},
{
name = topleft;
position = "{327, 1363}";
}
);
layerId = "3C607254-4343-4A81-9940-4A77E9130A74";
paths = (
{
closed = 1;
nodes = (
"290 40 LINE",
"748 1320 LINE",
"509 1320 LINE",
"44 40 LINE"
);
},
{
closed = 1;
nodes = (
"964 0 LINE",
"1087 351 LINE",
"1039 351 LINE",
"864 150 LINE SMOOTH",
"835 117 OFFCURVE",
"796 86 OFFCURVE",
"744 86 CURVE SMOOTH",
"-116 86 LINE",
"-144 0 LINE"
);
},
{
closed = 1;
nodes = (
"806 599 LINE",
"811 682 LINE",
"441 682 LINE",
"435 599 LINE"
);
},
{
closed = 1;
nodes = (
"791 419 LINE",
"952 879 LINE",
"842 879 LINE",
"682 419 LINE"
);
},
{
closed = 1;
nodes = (
"1260 1014 LINE",
"1383 1358 LINE",
"344 1358 LINE",
"316 1272 LINE",
"1069 1272 LINE SMOOTH",
"1156 1272 OFFCURVE",
"1186 1252 OFFCURVE",
"1189 1226 CURVE SMOOTH",
"1212 1014 LINE"
);
}
);
width = 1150;
}
);
leftMetricsKey = H;
note = E;
rightKerningGroup = AE;
unicode = 0045;
},
{
glyphname = F;
lastChange = "2019-01-27 16:34:52 +0000";
layers = (
{
anchors = (
{
name = bottom;
position = "{387, 0}";
},
{
name = top;
position = "{868, 1363}";
}
);
annotations = (
{
position = "{1329, 1275}";
text = "Width of serif a little narrower at top than at bottom, but otherwise construction is the same.";
type = Text;
}
);
hints = (
{
horizontal = 1;
origin = "{1, 2}";
type = Anchor;
},
{
horizontal = 1;
origin = "{1, 2}";
target = "{1, 3}";
type = TTStem;
options = 4;
},
{
horizontal = 1;
origin = "{2, 3}";
type = Anchor;
},
{
horizontal = 1;
origin = "{2, 3}";
target = "{2, 2}";
type = TTStem;
options = 4;
},
{
horizontal = 1;
origin = "{1, 2}";
target = "{2, 3}";
other1 = "{3, 3}";
type = Interpolate;
},
{
horizontal = 1;
origin = "{3, 3}";
target = "{3, 2}";
type = TTStem;
options = 4;
}
);
layerId = "72F15D98-3CFC-4C1E-A8AD-435DAE6C7B41";
paths = (
{
closed = 1;
nodes = (
"207 24 LINE",
"666 1327 LINE",
"545 1327 LINE",
"86 24 LINE"
);
},
{
closed = 1;
nodes = (
"1180 990 LINE",
"1310 1358 LINE",
"369 1358 LINE",
"358 1300 LINE",
"1046 1300 LINE SMOOTH",
"1123 1300 OFFCURVE",
"1167 1286 OFFCURVE",
"1166 1254 CURVE SMOOTH",
"1156 990 LINE"
);
},
{
closed = 1;
nodes = (
"407 0 LINE",
"429 58 LINE",
"-78 58 LINE",
"-100 0 LINE"
);
},
{
closed = 1;
nodes = (
"812 593 LINE",
"834 651 LINE",
"370 651 LINE",
"348 593 LINE"
);
},
{
closed = 1;
nodes = (
"765 358 LINE",
"956 898 LINE",
"897 898 LINE",
"706 358 LINE"
);
}
);
width = 1023;
},
{
anchors = (
{
name = bottom;
position = "{450, 0}";
},
{
name = top;
position = "{931, 1363}";
}
);
layerId = "9207B417-A6D7-41AF-BE7C-4506B089B767";
paths = (
{
closed = 1;
nodes = (
"358 45 LINE",
"815 1309 LINE",
"535 1309 LINE",
"69 45 LINE"
);
},
{
closed = 1;
nodes = (
"1319 991 LINE",
"1448 1358 LINE",
"366 1358 LINE",
"333 1262 LINE",
"1126 1262 LINE SMOOTH",
"1202 1262 OFFCURVE",
"1226 1244 OFFCURVE",
"1230 1216 CURVE SMOOTH",
"1263 991 LINE"
);
},
{
closed = 1;
nodes = (
"527 0 LINE",
"561 96 LINE",
"-56 96 LINE",
"-90 0 LINE"
);
},
{
closed = 1;
nodes = (
"907 573 LINE",
"907 669 LINE",
"494 669 LINE",
"494 573 LINE"
);
},
{
closed = 1;
nodes = (
"852 332 LINE",
"1054 885 LINE",
"927 885 LINE",
"725 332 LINE"
);
}
);
width = 1163;
},
{
anchors = (
{
name = bottom;
position = "{348, 0}";
},
{
name = top;
position = "{848, 1363}";
}
);
layerId = "521C1B5A-C509-4418-B7D4-F4ADA96264C1";
paths = (
{
closed = 1;
nodes = (
"195 30 LINE",
"686 1330 LINE",
"556 1330 LINE",
"66 30 LINE"
);
},
{
closed = 1;
nodes = (
"1236 990 LINE",
"1376 1358 LINE",
"367 1358 LINE",
"355 1300 LINE",
"1093 1300 LINE SMOOTH",
"1175 1300 OFFCURVE",
"1222 1286 OFFCURVE",
"1221 1254 CURVE SMOOTH",
"1210 990 LINE"
);
},
{
closed = 1;
nodes = (
"408 0 LINE",
"431 58 LINE",
"-112 58 LINE",
"-136 0 LINE"
);
},
{
closed = 1;
nodes = (
"842 587 LINE",
"865 657 LINE",
"368 657 LINE",
"344 587 LINE"
);
},
{
closed = 1;
nodes = (
"791 358 LINE",
"996 898 LINE",
"933 898 LINE",
"728 358 LINE"
);
}
);
width = 1097;
},
{
anchors = (
{
name = bottom;
position = "{411, 0}";
},
{
name = top;
position = "{892, 1363}";
}
);
annotations = (
{
position = "{1329, 1275}";
text = "Width of serif a little narrower at top than at bottom, but otherwise construction is the same.";
type = Text;
}
);
layerId = "3C607254-4343-4A81-9940-4A77E9130A74";
paths = (
{
closed = 1;
nodes = (
"275 43 LINE",
"739 1320 LINE",
"497 1320 LINE",
"33 43 LINE"
);
},
{
closed = 1;
nodes = (
"1211 991 LINE",
"1340 1358 LINE",
"344 1358 LINE",
"317 1272 LINE",
"1033 1272 LINE SMOOTH",
"1109 1272 OFFCURVE",
"1138 1255 OFFCURVE",
"1141 1226 CURVE SMOOTH",
"1163 991 LINE"
);
},
{
closed = 1;
nodes = (
"474 0 LINE",
"505 86 LINE",
"-84 86 LINE",
"-115 0 LINE"
);
},
{
closed = 1;
nodes = (
"810 578 LINE",
"816 664 LINE",
"420 664 LINE",
"414 578 LINE"
);
},
{
closed = 1;
nodes = (
"757 339 LINE",
"956 888 LINE",
"847 888 LINE",
"648 339 LINE"
);
}
);
width = 1023;
}
);
leftMetricsKey = H;
note = F;
rightKerningGroup = F;
unicode = 0046;
},
{
glyphname = G;
lastChange = "2019-01-27 16:34:52 +0000";
layers = (
{
anchors = (
{
name = bottom;
position = "{563, 0}";
},
{
name = top;
position = "{1080, 1363}";
}
);
background = {
paths = (
{
closed = 1;
nodes = (
"677 -27 OFFCURVE",
"794 -24 OFFCURVE",
"942 9 CURVE SMOOTH",
"1036 30 OFFCURVE",
"1094 42 OFFCURVE",
"1131 49 CURVE",
"1136 87 LINE",
"1111 87 OFFCURVE",
"1109 102 OFFCURVE",
"1125 147 CURVE SMOOTH",
"1262 520 LINE",
"1139 520 LINE",
"971 53 LINE",
"1061 158 LINE",
"912 66 OFFCURVE",
"729 38 OFFCURVE",
"618 38 CURVE SMOOTH",
"370 38 OFFCURVE",
"239 173 OFFCURVE",
"239 396 CURVE SMOOTH",
"239 774 OFFCURVE",
"617 1324 OFFCURVE",
"1073 1324 CURVE SMOOTH",
"1319 1324 OFFCURVE",
"1369 1149 OFFCURVE",
"1369 955 CURVE",
"1418 955 LINE",
"1571 1370 LINE",
"1508 1370 LINE",
"1419 1128 LINE",
"1462 1170 LINE",
"1360 1295 OFFCURVE",
"1284 1385 OFFCURVE",
"1077 1385 CURVE SMOOTH",
"521 1385 OFFCURVE",
"100 833 OFFCURVE",
"100 419 CURVE SMOOTH",
"100 149 OFFCURVE",
"288 -27 OFFCURVE",
"613 -27 CURVE SMOOTH"
);
},
{
closed = 1;
nodes = (
"1394 486 LINE",
"1394 544 LINE",
"903 544 LINE",
"903 486 LINE"
);
}
);
};
hints = (
{
horizontal = 1;
origin = "{0, 39}";
type = Anchor;
},
{
horizontal = 1;
origin = "{0, 33}";
type = Anchor;
},
{
horizontal = 1;
origin = "{0, 33}";
target = "{0, 22}";
type = TTStem;
options = 4;
},
{
horizontal = 1;
origin = "{0, 39}";
target = "{0, 16}";
type = TTStem;
options = 4;
},
{
horizontal = 1;
origin = "{0, 39}";
target = "{0, 33}";
other1 = "{1, 3}";
type = Interpolate;
},
{
horizontal = 1;
origin = "{1, 3}";
target = "{1, 2}";
type = TTStem;
options = 4;
},
{
horizontal = 1;
origin = "{1, 3}";
target = "{1, 2}";
other1 = "{0, 11}";
type = Interpolate;
options = 4;
}
);
layerId = "72F15D98-3CFC-4C1E-A8AD-435DAE6C7B41";
paths = (
{
closed = 1;
nodes = (
"681 -27 OFFCURVE",
"797 -23 OFFCURVE",
"942 9 CURVE SMOOTH",
"1037 30 OFFCURVE",
"1069 37 OFFCURVE",
"1131 49 CURVE",
"1136 87 LINE",
"1108 87 OFFCURVE",
"1110 107 OFFCURVE",
"1125 147 CURVE SMOOTH",
"1262 520 LINE",
"1139 520 LINE",
"971 53 LINE",
"1061 158 LINE",
"912 66 OFFCURVE",
"729 38 OFFCURVE",
"618 38 CURVE SMOOTH",
"370 38 OFFCURVE",
"239 173 OFFCURVE",
"239 396 CURVE SMOOTH",
"239 774 OFFCURVE",
"619 1324 OFFCURVE",
"1068 1324 CURVE SMOOTH",
"1319 1324 OFFCURVE",
"1369 1152 OFFCURVE",
"1369 955 CURVE",
"1418 955 LINE",
"1571 1370 LINE",
"1508 1370 LINE",
"1419 1128 LINE",
"1462 1176 LINE",
"1373 1298 OFFCURVE",
"1284 1385 OFFCURVE",
"1068 1385 CURVE SMOOTH",
"525 1385 OFFCURVE",
"100 833 OFFCURVE",
"100 419 CURVE SMOOTH",
"100 149 OFFCURVE",
"281 -27 OFFCURVE",
"629 -27 CURVE SMOOTH"
);
},
{
closed = 1;
nodes = (
"1394 486 LINE",
"1394 544 LINE",
"903 544 LINE",
"903 486 LINE"
);
}
);
width = 1413;
},
{
anchors = (
{
name = bottom;
position = "{599, 0}";
},
{
name = top;
position = "{1076, 1363}";
}
);
layerId = "9207B417-A6D7-41AF-BE7C-4506B089B767";
paths = (
{
closed = 1;
nodes = (
"694 -27 OFFCURVE",
"834 -20 OFFCURVE",
"942 -2 CURVE SMOOTH",
"1078 21 OFFCURVE",
"1150 31 OFFCURVE",
"1199 35 CURVE",
"1215 118 LINE",
"1188 118 OFFCURVE",
"1181 123 OFFCURVE",
"1188 142 CURVE SMOOTH",
"1327 525 LINE",
"1046 525 LINE",
"873 40 LINE",
"1030 201 LINE",
"880 109 OFFCURVE",
"765 68 OFFCURVE",
"657 68 CURVE SMOOTH",
"487 68 OFFCURVE",
"360 193 OFFCURVE",
"360 360 CURVE SMOOTH",
"360 841 OFFCURVE",
"724 1296 OFFCURVE",
"1109 1296 CURVE SMOOTH",
"1342 1296 OFFCURVE",
"1379 1135 OFFCURVE",
"1379 965 CURVE",
"1484 965 LINE",
"1636 1370 LINE",
"1531 1370 LINE",
"1432 1106 LINE",
"1514 1130 LINE",
"1387 1336 OFFCURVE",
"1269 1384 OFFCURVE",
"1078 1384 CURVE SMOOTH",
"571 1384 OFFCURVE",
"74 925 OFFCURVE",
"74 440 CURVE SMOOTH",
"74 146 OFFCURVE",
"278 -27 OFFCURVE",
"622 -27 CURVE SMOOTH"
);
},
{
closed = 1;
nodes = (
"1435 477 LINE",
"1460 566 LINE",
"860 566 LINE",
"834 477 LINE"
);
}
);
width = 1433;
},
{
anchors = (
{
name = bottom;
position = "{572, 0}";
},
{
name = top;
position = "{1107, 1363}";
}
);
layerId = "521C1B5A-C509-4418-B7D4-F4ADA96264C1";
paths = (
{
closed = 1;
nodes = (
"700 -27 OFFCURVE",
"825 -24 OFFCURVE",
"984 9 CURVE SMOOTH",
"1084 30 OFFCURVE",
"1147 42 OFFCURVE",
"1186 49 CURVE",
"1192 87 LINE",
"1165 87 OFFCURVE",
"1163 102 OFFCURVE",
"1180 147 CURVE SMOOTH",
"1327 520 LINE",
"1195 520 LINE",
"1015 53 LINE",
"1111 158 LINE",
"951 66 OFFCURVE",
"755 38 OFFCURVE",
"636 38 CURVE SMOOTH",
"370 38 OFFCURVE",
"230 173 OFFCURVE",
"230 396 CURVE SMOOTH",
"230 774 OFFCURVE",
"635 1324 OFFCURVE",
"1124 1324 CURVE SMOOTH",
"1388 1324 OFFCURVE",
"1441 1149 OFFCURVE",
"1441 955 CURVE",
"1494 955 LINE",
"1658 1370 LINE",
"1590 1370 LINE",
"1489 1113 LINE",
"1541 1170 LINE",
"1431 1294 OFFCURVE",
"1348 1385 OFFCURVE",
"1128 1385 CURVE SMOOTH",
"532 1385 OFFCURVE",
"81 833 OFFCURVE",
"81 419 CURVE SMOOTH",
"81 149 OFFCURVE",
"283 -27 OFFCURVE",
"631 -27 CURVE SMOOTH"
);
},
{
closed = 1;
nodes = (
"1468 486 LINE",
"1468 544 LINE",
"942 544 LINE",
"942 486 LINE"
);
}
);
width = 1484;
},
{
anchors = (
{
name = bottom;
position = "{582, 0}";
},
{
name = top;
position = "{1069, 1363}";
}
);
layerId = "3C607254-4343-4A81-9940-4A77E9130A74";
paths = (
{
closed = 1;
nodes = (
"678 -27 OFFCURVE",
"817 -21 OFFCURVE",
"936 1 CURVE SMOOTH",
"1074 26 OFFCURVE",
"1127 33 OFFCURVE",
"1174 39 CURVE",
"1187 110 LINE",
"1160 110 OFFCURVE",
"1155 119 OFFCURVE",
"1164 143 CURVE SMOOTH",
"1303 524 LINE",
"1062 524 LINE",
"890 43 LINE",
"1030 190 LINE",
"879 97 OFFCURVE",
"746 60 OFFCURVE",
"639 60 CURVE SMOOTH",
"452 60 OFFCURVE",
"325 188 OFFCURVE",
"325 369 CURVE SMOOTH",
"325 824 OFFCURVE",
"692 1303 OFFCURVE",
"1091 1303 CURVE SMOOTH",
"1328 1303 OFFCURVE",
"1369 1140 OFFCURVE",
"1369 962 CURVE",
"1459 962 LINE",
"1612 1370 LINE",
"1517 1370 LINE",
"1421 1112 LINE",
"1493 1142 LINE",
"1376 1326 OFFCURVE",
"1265 1384 OFFCURVE",
"1068 1384 CURVE SMOOTH",
"546 1384 OFFCURVE",
"61 901 OFFCURVE",
"61 435 CURVE SMOOTH",
"61 147 OFFCURVE",
"263 -27 OFFCURVE",
"616 -27 CURVE SMOOTH"
);
},
{
closed = 1;
nodes = (
"1417 479 LINE",
"1435 560 LINE",
"863 560 LINE",
"844 479 LINE"
);
}
);
width = 1413;
}
);
leftKerningGroup = C;
leftMetricsKey = O;
note = G;
rightKerningGroup = G;
unicode = 0047;
},
{
glyphname = uni021C;
lastChange = "2019-01-27 21:49:34 +0000";
layers = (
{
hints = (
{
horizontal = 1;
origin = "{0, 36}";
type = Anchor;
},
{
horizontal = 1;
origin = "{0, 12}";
type = Anchor;
},
{
horizontal = 1;
origin = "{0, 12}";
target = "{0, 19}";
type = TTStem;
options = 4;
},
{
horizontal = 1;
origin = "{0, 35}";
target = "{0, 36}";
type = TTStem;
options = 4;
},
{
horizontal = 1;
origin = "{0, 36}";
target = "{0, 12}";
other1 = "{0, 26}";
type = Interpolate;
options = 4;
},
{
horizontal = 1;
origin = "{0, 26}";
target = "{0, 25}";
type = TTStem;
options = 4;
}
);
layerId = "72F15D98-3CFC-4C1E-A8AD-435DAE6C7B41";
paths = (
{
closed = 1;
nodes = (
"754 -57 OFFCURVE",
"866 416 OFFCURVE",
"866 530 CURVE SMOOTH",
"866 669 OFFCURVE",
"789 758 OFFCURVE",
"640 771 CURVE",
"633 733 LINE",
"981 931 OFFCURVE",
"1020 1117 OFFCURVE",
"1020 1193 CURVE SMOOTH",
"1020 1305 OFFCURVE",
"936 1386 OFFCURVE",
"796 1386 CURVE SMOOTH",
"711 1386 OFFCURVE",
"552 1356 OFFCURVE",
"361 1156 CURVE",
"323 979 LINE",
"441 1213 OFFCURVE",
"574 1295 OFFCURVE",
"701 1295 CURVE SMOOTH",
"800 1295 OFFCURVE",
"864 1245 OFFCURVE",
"864 1148 CURVE SMOOTH",
"864 901 OFFCURVE",
"445 738 OFFCURVE",
"327 674 CURVE",
"353 606 LINE",
"446 664 OFFCURVE",
"513 680 OFFCURVE",
"563 680 CURVE SMOOTH",
"657 680 OFFCURVE",
"712 622 OFFCURVE",
"712 487 CURVE SMOOTH",
"712 345 OFFCURVE",
"546 -2 OFFCURVE",
"-43 -2 CURVE",
"-61 -57 LINE"
);
},
{
closed = 1;
nodes = (
"325 960 LINE",
"459 1342 LINE",
"384 1342 LINE",
"250 960 LINE"
);
}
);
width = 889;
},
{
layerId = "9207B417-A6D7-41AF-BE7C-4506B089B767";
paths = (
{
closed = 1;
nodes = (
"699 -39 OFFCURVE",
"937 370 OFFCURVE",
"937 585 CURVE SMOOTH",
"937 716 OFFCURVE",
"849 774 OFFCURVE",
"691 803 CURVE",
"649 691 LINE",
"1043 940 OFFCURVE",
"1082 1067 OFFCURVE",
"1082 1163 CURVE SMOOTH",
"1082 1332 OFFCURVE",
"963 1384 OFFCURVE",
"816 1384 CURVE SMOOTH",
"709 1384 OFFCURVE",
"557 1356 OFFCURVE",
"329 1153 CURVE",
"311 956 LINE",
"403 1170 OFFCURVE",
"550 1241 OFFCURVE",
"661 1241 CURVE SMOOTH",
"746 1241 OFFCURVE",
"778 1199 OFFCURVE",
"778 1123 CURVE SMOOTH",
"778 1030 OFFCURVE",
"731 882 OFFCURVE",
"283 657 CURVE",
"312 572 LINE",
"433 639 OFFCURVE",
"496 666 OFFCURVE",
"536 666 CURVE SMOOTH",
"589 666 OFFCURVE",
"616 620 OFFCURVE",
"616 574 CURVE SMOOTH",
"616 480 OFFCURVE",
"506 65 OFFCURVE",
"-65 65 CURVE",
"-90 -39 LINE"
);
},
{
closed = 1;
nodes = (
"321 946 LINE",
"458 1341 LINE",
"352 1341 LINE",
"215 946 LINE"
);
}
);
width = 943;
},
{
layerId = "521C1B5A-C509-4418-B7D4-F4ADA96264C1";
paths = (
{
closed = 1;
nodes = (
"783 -57 OFFCURVE",
"903 416 OFFCURVE",
"903 530 CURVE SMOOTH",
"903 669 OFFCURVE",
"820 758 OFFCURVE",
"660 771 CURVE",
"653 733 LINE",
"1026 931 OFFCURVE",
"1068 1117 OFFCURVE",
"1068 1193 CURVE SMOOTH",
"1068 1305 OFFCURVE",
"978 1386 OFFCURVE",
"828 1386 CURVE SMOOTH",
"737 1386 OFFCURVE",
"566 1356 OFFCURVE",
"361 1156 CURVE",
"321 979 LINE",
"447 1213 OFFCURVE",
"590 1295 OFFCURVE",
"726 1295 CURVE SMOOTH",
"832 1295 OFFCURVE",
"901 1245 OFFCURVE",
"901 1148 CURVE SMOOTH",
"901 901 OFFCURVE",
"451 738 OFFCURVE",
"325 674 CURVE",
"353 606 LINE",
"453 664 OFFCURVE",
"524 680 OFFCURVE",
"578 680 CURVE SMOOTH",
"679 680 OFFCURVE",
"738 622 OFFCURVE",
"738 487 CURVE SMOOTH",
"738 345 OFFCURVE",
"560 -2 OFFCURVE",
"-72 -2 CURVE",
"-91 -57 LINE"
);
},
{
closed = 1;
nodes = (
"323 960 LINE",
"466 1342 LINE",
"386 1342 LINE",
"242 960 LINE"
);
}
);
width = 940;
},
{
layerId = "3C607254-4343-4A81-9940-4A77E9130A74";
paths = (
{
closed = 1;
nodes = (
"682 -44 OFFCURVE",
"886 382 OFFCURVE",
"886 571 CURVE SMOOTH",
"886 704 OFFCURVE",
"805 770 OFFCURVE",
"658 795 CURVE",
"624 702 LINE",
"998 938 OFFCURVE",
"1036 1080 OFFCURVE",
"1036 1171 CURVE SMOOTH",
"1036 1325 OFFCURVE",
"929 1385 OFFCURVE",
"790 1385 CURVE SMOOTH",
"690 1385 OFFCURVE",
"535 1356 OFFCURVE",
"317 1154 CURVE",
"294 962 LINE",
"392 1181 OFFCURVE",
"537 1255 OFFCURVE",
"651 1255 CURVE SMOOTH",
"739 1255 OFFCURVE",
"780 1211 OFFCURVE",
"780 1129 CURVE SMOOTH",
"780 997 OFFCURVE",
"637 845 OFFCURVE",
"274 661 CURVE",
"302 581 LINE",
"416 645 OFFCURVE",
"479 670 OFFCURVE",
"522 670 CURVE SMOOTH",
"587 670 OFFCURVE",
"622 620 OFFCURVE",
"622 552 CURVE SMOOTH",
"622 446 OFFCURVE",
"498 48 OFFCURVE",
"-80 48 CURVE",
"-103 -44 LINE"
);
},
{
closed = 1;
nodes = (
"312 950 LINE",
"448 1341 LINE",
"350 1341 LINE",
"214 950 LINE"
);
}
);
width = 889;
}
);
note = uni021C;
rightMetricsKey = "=B+30";
unicode = 021C;
},
{
glyphname = H;
lastChange = "2019-01-27 16:34:52 +0000";
layers = (
{
anchors = (
{
name = bottom;
position = "{508, 0}";
},
{
name = center;
position = "{755, 679}";
},
{
name = top;
position = "{1002, 1358}";
},
{
name = topleft;
position = "{358, 1358}";
}
);
guideLines = (
{
position = "{242, 32}";
},
{
position = "{713, 1332}";
}
);
hints = (
{
horizontal = 1;
origin = "{5, 3}";
type = Anchor;
},
{
horizontal = 1;
origin = "{3, 2}";
type = Anchor;
},
{
horizontal = 1;
origin = "{3, 2}";
target = "{3, 3}";
type = TTStem;
options = 4;
},
{
horizontal = 1;
origin = "{5, 3}";
target = "{5, 2}";
type = TTStem;
options = 4;
},
{
horizontal = 1;
origin = "{5, 3}";
target = "{6, 3}";
type = Align;
options = 4;
},
{
horizontal = 1;
origin = "{3, 2}";
target = "{4, 2}";
type = Align;
options = 4;
},
{
horizontal = 1;
origin = "{3, 3}";
target = "{4, 3}";
type = Align;
options = 4;
},
{
horizontal = 1;
origin = "{5, 2}";
target = "{6, 2}";
type = Align;
options = 4;
},
{
horizontal = 1;
origin = "{5, 3}";
target = "{3, 2}";
other1 = "{0, 3}";
type = Interpolate;
},
{
horizontal = 1;
origin = "{0, 3}";
target = "{0, 2}";
type = TTStem;
options = 4;
},
{
horizontal = 1;
origin = "{5, 3}";
target = "{5, 2}";
other1 = "{1, 3}";
type = Interpolate;
options = 4;
},
{
horizontal = 1;
origin = "{1, 3}";
target = "{2, 3}";
type = Align;
options = 4;
}
);
layerId = "72F15D98-3CFC-4C1E-A8AD-435DAE6C7B41";
paths = (
{
closed = 1;
nodes = (
"1133 666 LINE",
"1145 735 LINE",
"393 735 LINE",
"381 666 LINE"
);
},
{
closed = 1;
nodes = (
"204 32 LINE",
"663 1332 LINE",
"542 1332 LINE",
"83 32 LINE"
);
},
{
closed = 1;
nodes = (
"964 32 LINE",
"1423 1332 LINE",
"1302 1332 LINE",
"843 32 LINE"
);
},
{
closed = 1;
nodes = (
"834 1300 LINE",
"856 1358 LINE",
"370 1358 LINE",
"348 1300 LINE"
);
},
{
closed = 1;
nodes = (
"1594 1300 LINE",
"1616 1358 LINE",
"1130 1358 LINE",
"1108 1300 LINE"
);
},
{
closed = 1;
nodes = (
"374 0 LINE",
"396 58 LINE",
"-87 58 LINE",
"-109 0 LINE"
);
},
{
closed = 1;
nodes = (
"1134 0 LINE",
"1156 58 LINE",
"673 58 LINE",
"651 0 LINE"
);
}
);
width = 1327;
},
{
anchors = (
{
name = bottom;
position = "{567, 0}";
},
{
name = center;
position = "{814, 679}";
},
{
name = top;
position = "{1061, 1358}";
},
{
name = topleft;
position = "{358, 1358}";
}
);
layerId = "9207B417-A6D7-41AF-BE7C-4506B089B767";
paths = (
{
closed = 1;
nodes = (
"1221 659 LINE",
"1233 742 LINE",
"423 742 LINE",
"411 659 LINE"
);
},
{
closed = 1;
nodes = (
"342 43 LINE",
"799 1312 LINE",
"519 1312 LINE",
"53 43 LINE"
);
},
{
closed = 1;
nodes = (
"1117 43 LINE",
"1574 1312 LINE",
"1294 1312 LINE",
"828 43 LINE"
);
},
{
closed = 1;
nodes = (
"952 1261 LINE",
"986 1358 LINE",
"372 1358 LINE",
"338 1261 LINE"
);
},
{
closed = 1;
nodes = (
"1727 1261 LINE",
"1761 1358 LINE",
"1147 1358 LINE",
"1113 1261 LINE"
);
},
{
closed = 1;
nodes = (
"497 0 LINE",
"531 96 LINE",
"-93 96 LINE",
"-127 0 LINE"
);
},
{
closed = 1;
nodes = (
"1272 -1 LINE",
"1306 96 LINE",
"682 96 LINE",
"648 -1 LINE"
);
}
);
width = 1446;
},
{
anchors = (
{
name = bottom;
position = "{530, 0}";
},
{
name = center;
position = "{778, 679}";
},
{
name = top;
position = "{1025, 1358}";
},
{
name = topleft;
position = "{343, 1358}";
}
);
layerId = "521C1B5A-C509-4418-B7D4-F4ADA96264C1";
paths = (
{
closed = 1;
nodes = (
"1183 666 LINE",
"1196 736 LINE",
"391 736 LINE",
"378 666 LINE"
);
},
{
closed = 1;
nodes = (
"190 36 LINE",
"676 1324 LINE",
"546 1324 LINE",
"61 36 LINE"
);
},
{
closed = 1;
nodes = (
"1008 36 LINE",
"1494 1324 LINE",
"1364 1324 LINE",
"879 36 LINE"
);
},
{
closed = 1;
nodes = (
"851 1288 LINE",
"877 1358 LINE",
"360 1358 LINE",
"334 1288 LINE"
);
},
{
closed = 1;
nodes = (
"1669 1288 LINE",
"1695 1358 LINE",
"1178 1358 LINE",
"1152 1288 LINE"
);
},
{
closed = 1;
nodes = (
"383 0 LINE",
"409 70 LINE",
"-110 70 LINE",
"-136 0 LINE"
);
},
{
closed = 1;
nodes = (
"1201 0 LINE",
"1227 70 LINE",
"708 70 LINE",
"682 0 LINE"
);
}
);
width = 1404;
},
{
anchors = (
{
name = bottom;
position = "{502, 0}";
},
{
name = center;
position = "{749, 679}";
},
{
name = top;
position = "{996, 1358}";
},
{
name = topleft;
position = "{308, 1358}";
}
);
layerId = "3C607254-4343-4A81-9940-4A77E9130A74";
paths = (
{
closed = 1;
nodes = (
"1149 661 LINE",
"1161 740 LINE",
"366 740 LINE",
"354 661 LINE"
);
},
{
closed = 1;
nodes = (
"256 42 LINE",
"719 1314 LINE",
"477 1314 LINE",
"14 42 LINE"
);
},
{
closed = 1;
nodes = (
"1025 42 LINE",
"1487 1314 LINE",
"1245 1314 LINE",
"783 42 LINE"
);
},
{
closed = 1;
nodes = (
"852 1271 LINE",
"883 1358 LINE",
"345 1358 LINE",
"314 1271 LINE"
);
},
{
closed = 1;
nodes = (
"1620 1271 LINE",
"1651 1358 LINE",
"1113 1358 LINE",
"1082 1271 LINE"
);
},
{
closed = 1;
nodes = (
"396 0 LINE",
"427 86 LINE",
"-118 86 LINE",
"-149 0 LINE"
);
},
{
closed = 1;
nodes = (
"1164 0 LINE",
"1195 86 LINE",
"650 86 LINE",
"619 0 LINE"
);
}
);
width = 1327;
}
);
note = H;
rightKerningGroup = H;
unicode = 0048;
},
{
glyphname = I;
lastChange = "2019-01-27 16:34:52 +0000";
layers = (
{
anchors = (
{
name = bottom;
position = "{132, 0}";
},
{
name = ogonek;
position = "{253, 10}";
},
{
name = top;
position = "{633, 1363}";
},
{
name = topleft;
position = "{360, 1363}";
}
);
guideLines = (
{
position = "{880, 1277}";
},
{
position = "{474, 81}";
}
);
hints = (
{
horizontal = 1;
origin = "{2, 3}";
type = Anchor;
},
{
horizontal = 1;
origin = "{1, 2}";
type = Anchor;
},
{
horizontal = 1;
origin = "{2, 3}";
target = "{2, 2}";
type = TTStem;
options = 4;
},
{
horizontal = 1;
origin = "{1, 2}";
target = "{1, 3}";
type = TTStem;
options = 4;
},
{
horizontal = 1;
origin = "{2, 3}";
target = "{2, 2}";
other1 = "{0, 3}";
type = Interpolate;
options = 4;
},
{
horizontal = 1;
origin = "{1, 2}";
target = "{1, 3}";
other1 = "{0, 2}";
type = Interpolate;
options = 4;
}
);
layerId = "72F15D98-3CFC-4C1E-A8AD-435DAE6C7B41";
paths = (
{
closed = 1;
nodes = (
"203 30 LINE",
"662 1330 LINE",
"541 1330 LINE",
"82 30 LINE"
);
},
{
closed = 1;
nodes = (
"834 1300 LINE",
"856 1358 LINE",
"370 1358 LINE",
"348 1300 LINE"
);
},
{
closed = 1;
nodes = (
"374 0 LINE",
"396 58 LINE",
"-87 58 LINE",
"-109 0 LINE"
);
}
);
width = 567;
},
{
anchors = (
{
name = bottom;
position = "{177, 0}";
},
{
name = ogonek;
position = "{338, 10}";
},
{
name = top;
position = "{677, 1358}";
},
{
name = topleft;
position = "{344, 1358}";
}
);
layerId = "9207B417-A6D7-41AF-BE7C-4506B089B767";
paths = (
{
closed = 1;
nodes = (
"340 41 LINE",
"799 1310 LINE",
"519 1310 LINE",
"51 41 LINE"
);
},
{
closed = 1;
nodes = (
"952 1261 LINE",
"986 1358 LINE",
"372 1358 LINE",
"338 1261 LINE"
);
},
{
closed = 1;
nodes = (
"497 0 LINE",
"531 96 LINE",
"-93 96 LINE",
"-127 0 LINE"
);
}
);
width = 671;
},
{
anchors = (
{
name = bottom;
position = "{121, 0}";
},
{
name = ogonek;
position = "{251, 10}";
},
{
name = top;
position = "{641, 1363}";
},
{
name = topleft;
position = "{350, 1363}";
}
);
guideLines = (
{
position = "{909, 1265}";
},
{
position = "{497, 93}";
}
);
layerId = "521C1B5A-C509-4418-B7D4-F4ADA96264C1";
paths = (
{
closed = 1;
nodes = (
"190 34 LINE",
"676 1323 LINE",
"546 1323 LINE",
"61 34 LINE"
);
},
{
closed = 1;
nodes = (
"851 1288 LINE",
"877 1358 LINE",
"360 1358 LINE",
"334 1288 LINE"
);
},
{
closed = 1;
nodes = (
"383 0 LINE",
"409 70 LINE",
"-110 70 LINE",
"-136 0 LINE"
);
}
);
width = 586;
},
{
anchors = (
{
name = bottom;
position = "{124, 0}";
},
{
name = ogonek;
position = "{275, 10}";
},
{
name = top;
position = "{629, 1359}";
},
{
name = topleft;
position = "{306, 1359}";
}
);
guideLines = (
{
position = "{877, 1277}";
},
{
position = "{471, 81}";
}
);
layerId = "3C607254-4343-4A81-9940-4A77E9130A74";
paths = (
{
closed = 1;
nodes = (
"263 41 LINE",
"726 1315 LINE",
"484 1315 LINE",
"21 41 LINE"
);
},
{
closed = 1;
nodes = (
"866 1271 LINE",
"897 1358 LINE",
"346 1358 LINE",
"315 1271 LINE"
);
},
{
closed = 1;
nodes = (
"404 0 LINE",
"435 86 LINE",
"-118 86 LINE",
"-149 0 LINE"
);
}
);
width = 567;
}
);
leftMetricsKey = H;
note = I;
rightKerningGroup = I;
rightMetricsKey = H;
unicode = 0049;
},
{
glyphname = J;
lastChange = "2019-01-27 16:34:52 +0000";
layers = (
{
anchors = (
{
name = bottom;
position = "{39, 0}";
},
{
name = top;
position = "{536, 1358}";
}
);
hints = (
{
horizontal = 1;
origin = "{0, 27}";
type = Anchor;
},
{
horizontal = 1;
origin = "{0, 27}";
target = "{0, 21}";
type = TTStem;
options = 4;
},
{
horizontal = 1;
origin = "{1, 2}";
type = Anchor;
},
{
horizontal = 1;
origin = "{1, 2}";
target = "{1, 3}";
type = TTStem;
options = 4;
},
{
horizontal = 1;
origin = "{1, 2}";
target = "{1, 3}";
other1 = "{0, 10}";
type = Interpolate;
options = 4;
}
);
layerId = "72F15D98-3CFC-4C1E-A8AD-435DAE6C7B41";
paths = (
{
closed = 1;
nodes = (
"-331 -419 OFFCURVE",
"-280 -403 OFFCURVE",
"-230 -376 CURVE SMOOTH",
"-19 -260 OFFCURVE",
"85 -73 OFFCURVE",
"191 200 CURVE SMOOTH",
"233 308 OFFCURVE",
"287 449 OFFCURVE",
"352 634 CURVE SMOOTH",
"596 1328 LINE",
"475 1328 LINE",
"98 260 LINE SMOOTH",
"10 11 OFFCURVE",
"-54 -143 OFFCURVE",
"-97 -203 CURVE SMOOTH",
"-147 -272 OFFCURVE",
"-205 -330 OFFCURVE",
"-261 -332 CURVE",
"-241 -351 LINE",
"-225 -311 OFFCURVE",
"-254 -237 OFFCURVE",
"-340 -237 CURVE SMOOTH",
"-401 -237 OFFCURVE",
"-469 -279 OFFCURVE",
"-469 -351 CURVE SMOOTH",
"-469 -396 OFFCURVE",
"-434 -419 OFFCURVE",
"-383 -419 CURVE SMOOTH"
);
},
{
closed = 1;
nodes = (
"764 1300 LINE",
"786 1358 LINE",
"300 1358 LINE",
"278 1300 LINE"
);
}
);
width = 484;
},
{
anchors = (
{
name = bottom;
position = "{287, 0}";
},
{
name = top;
position = "{778, 1358}";
}
);
layerId = "9207B417-A6D7-41AF-BE7C-4506B089B767";
paths = (
{
closed = 1;
nodes = (
"-125 -420 OFFCURVE",
"-52 -400 OFFCURVE",
"10 -371 CURVE SMOOTH",
"242 -262 OFFCURVE",
"395 -86 OFFCURVE",
"505 195 CURVE SMOOTH",
"590 411 OFFCURVE",
"641 551 OFFCURVE",
"669 629 CURVE SMOOTH",
"917 1312 LINE",
"637 1312 LINE",
"255 254 LINE SMOOTH",
"164 1 OFFCURVE",
"106 -144 OFFCURVE",
"71 -195 CURVE SMOOTH",
"37 -245 OFFCURVE",
"-11 -277 OFFCURVE",
"-26 -285 CURVE",
"11 -350 LINE",
"11 -222 OFFCURVE",
"-34 -138 OFFCURVE",
"-145 -138 CURVE SMOOTH",
"-242 -138 OFFCURVE",
"-334 -204 OFFCURVE",
"-334 -305 CURVE SMOOTH",
"-334 -370 OFFCURVE",
"-265 -420 OFFCURVE",
"-187 -420 CURVE SMOOTH"
);
},
{
closed = 1;
nodes = (
"1039 1261 LINE",
"1073 1358 LINE",
"459 1358 LINE",
"425 1261 LINE"
);
}
);
width = 754;
},
{
anchors = (
{
name = bottom;
position = "{102, 0}";
},
{
name = top;
position = "{597, 1358}";
}
);
layerId = "521C1B5A-C509-4418-B7D4-F4ADA96264C1";
paths = (
{
closed = 1;
nodes = (
"-336 -419 OFFCURVE",
"-282 -403 OFFCURVE",
"-229 -376 CURVE SMOOTH",
"-5 -260 OFFCURVE",
"104 -72 OFFCURVE",
"216 200 CURVE SMOOTH",
"261 308 OFFCURVE",
"317 450 OFFCURVE",
"384 634 CURVE SMOOTH",
"635 1326 LINE",
"502 1326 LINE",
"115 260 LINE SMOOTH",
"24 10 OFFCURVE",
"-43 -143 OFFCURVE",
"-88 -203 CURVE SMOOTH",
"-140 -272 OFFCURVE",
"-202 -327 OFFCURVE",
"-260 -333 CURVE",
"-241 -349 LINE",
"-225 -309 OFFCURVE",
"-258 -237 OFFCURVE",
"-348 -237 CURVE SMOOTH",
"-414 -237 OFFCURVE",
"-484 -278 OFFCURVE",
"-484 -350 CURVE SMOOTH",
"-484 -404 OFFCURVE",
"-439 -419 OFFCURVE",
"-392 -419 CURVE SMOOTH"
);
},
{
closed = 1;
nodes = (
"811 1288 LINE",
"837 1358 LINE",
"320 1358 LINE",
"294 1288 LINE"
);
}
);
width = 545;
},
{
anchors = (
{
name = bottom;
position = "{79, 0}";
},
{
name = top;
position = "{583, 1358}";
}
);
layerId = "3C607254-4343-4A81-9940-4A77E9130A74";
paths = (
{
closed = 1;
nodes = (
"-323 -420 OFFCURVE",
"-255 -401 OFFCURVE",
"-195 -372 CURVE SMOOTH",
"29 -263 OFFCURVE",
"169 -82 OFFCURVE",
"279 196 CURVE SMOOTH",
"378 446 OFFCURVE",
"409 525 OFFCURVE",
"446 630 CURVE SMOOTH",
"690 1315 LINE",
"448 1315 LINE",
"70 255 LINE SMOOTH",
"-19 4 OFFCURVE",
"-79 -143 OFFCURVE",
"-116 -196 CURVE SMOOTH",
"-159 -258 OFFCURVE",
"-206 -290 OFFCURVE",
"-231 -297 CURVE",
"-198 -350 LINE",
"-194 -245 OFFCURVE",
"-235 -163 OFFCURVE",
"-339 -163 CURVE SMOOTH",
"-426 -163 OFFCURVE",
"-513 -223 OFFCURVE",
"-513 -317 CURVE SMOOTH",
"-513 -376 OFFCURVE",
"-453 -420 OFFCURVE",
"-382 -420 CURVE SMOOTH"
);
},
{
closed = 1;
nodes = (
"784 1271 LINE",
"815 1358 LINE",
"354 1358 LINE",
"323 1271 LINE"
);
}
);
width = 484;
}
);
leftKerningGroup = J;
note = J;
rightKerningGroup = J;
rightMetricsKey = H;
unicode = 004A;
},
{
glyphname = K;
lastChange = "2019-01-27 16:34:52 +0000";
layers = (
{
anchors = (
{
name = bottom;
position = "{474, 0}";
},
{
name = top;
position = "{968, 1358}";
}
);
guideLines = (
{
position = "{711, 1331}";
},
{
position = "{286, 31}";
}
);
hints = (
{
horizontal = 1;
origin = "{4, 2}";
type = Anchor;
},
{
horizontal = 1;
origin = "{2, 3}";
type = Anchor;
},
{
horizontal = 1;
origin = "{2, 3}";
target = "{2, 2}";
type = TTStem;
options = 4;
},
{
horizontal = 1;
origin = "{4, 2}";
target = "{4, 3}";
type = TTStem;
options = 4;
},
{
horizontal = 1;
origin = "{4, 2}";
target = "{5, 2}";
type = Align;
options = 4;
},
{
horizontal = 1;
origin = "{4, 3}";
target = "{5, 3}";
type = Align;
options = 4;
},
{
horizontal = 1;
origin = "{2, 3}";
target = "{3, 3}";
type = Align;
options = 4;
},
{
horizontal = 1;
origin = "{2, 2}";
target = "{3, 2}";
type = Align;
options = 4;
},
{
horizontal = 1;
origin = "{4, 2}";
target = "{2, 3}";
other1 = "{1, 10}";
type = Interpolate;
options = 4;
},
{
horizontal = 1;
origin = "{1, 10}";
target = "{1, 9}";
type = TTStem;
options = 4;
},
{
horizontal = 1;
origin = "{2, 3}";
target = "{2, 2}";
other1 = "{0, 3}";
type = Interpolate;
options = 4;
},
{
horizontal = 1;
origin = "{0, 3}";
target = "{1, 15}";
type = Align;
options = 4;
},
{
horizontal = 1;
origin = "{4, 2}";
target = "{4, 3}";
other1 = "{0, 2}";
type = Interpolate;
options = 4;
},
{
horizontal = 1;
origin = "{0, 2}";
target = "{1, 4}";
type = Align;
options = 4;
}
);
layerId = "72F15D98-3CFC-4C1E-A8AD-435DAE6C7B41";
paths = (
{
closed = 1;
nodes = (
"204 31 LINE",
"662 1331 LINE",
"541 1331 LINE",
"83 31 LINE"
);
},
{
closed = 1;
nodes = (
"948 31 LINE",
"604 780 LINE",
"583 710 LINE",
"1320 1331 LINE",
"1226 1331 LINE",
"620 810 LINE SMOOTH",
"596 789 OFFCURVE",
"499 706 OFFCURVE",
"465 706 CURVE SMOOTH",
"432 706 LINE",
"412 651 LINE",
"449 651 LINE SMOOTH",
"499 651 OFFCURVE",
"539 595 OFFCURVE",
"563 539 CURVE SMOOTH",
"779 31 LINE"
);
},
{
closed = 1;
nodes = (
"374 0 LINE",
"396 58 LINE",
"-87 58 LINE",
"-109 0 LINE"
);
},
{
closed = 1;
nodes = (
"1076 0 LINE",
"1098 58 LINE",
"603 58 LINE",
"581 0 LINE"
);
},
{
closed = 1;
nodes = (
"834 1300 LINE",
"856 1358 LINE",
"370 1358 LINE",
"348 1300 LINE"
);
},
{
closed = 1;
nodes = (
"1412 1300 LINE",
"1434 1358 LINE",
"1072 1358 LINE",
"1050 1300 LINE"
);
}
);
width = 1260;
},
{
anchors = (
{
name = bottom;
position = "{586, 0}";
},
{
name = top;
position = "{1080, 1358}";
}
);
guideLines = (
{
position = "{1100, 47}";
},
{
position = "{1532, 1307}";
}
);
layerId = "9207B417-A6D7-41AF-BE7C-4506B089B767";
paths = (
{
closed = 1;
nodes = (
"344 47 LINE",
"797 1307 LINE",
"517 1307 LINE",
"55 47 LINE"
);
},
{
closed = 1;
nodes = (
"1176 47 LINE",
"803 797 LINE",
"778 729 LINE",
"1483 1307 LINE",
"1320 1307 LINE",
"739 825 LINE SMOOTH",
"698 791 OFFCURVE",
"659 770 OFFCURVE",
"629 770 CURVE SMOOTH",
"569 770 LINE",
"509 598 LINE",
"590 598 LINE SMOOTH",
"614 598 OFFCURVE",
"632 562 OFFCURVE",
"648 524 CURVE SMOOTH",
"847 47 LINE"
);
},
{
closed = 1;
nodes = (
"497 -1 LINE",
"531 96 LINE",
"-93 96 LINE",
"-127 -1 LINE"
);
},
{
closed = 1;
nodes = (
"1303 -1 LINE",
"1337 96 LINE",
"707 96 LINE",
"673 -1 LINE"
);
},
{
closed = 1;
nodes = (
"952 1261 LINE",
"986 1358 LINE",
"372 1358 LINE",
"338 1261 LINE"
);
},
{
closed = 1;
nodes = (
"1580 1261 LINE",
"1614 1358 LINE",
"1174 1358 LINE",
"1140 1261 LINE"
);
}
);
width = 1483;
},
{
anchors = (
{
name = bottom;
position = "{492, 0}";
},
{
name = top;
position = "{987, 1358}";
}
);
guideLines = (
{
position = "{297, 35}";
},
{
position = "{788, 1325}";
}
);
layerId = "521C1B5A-C509-4418-B7D4-F4ADA96264C1";
paths = (
{
closed = 1;
nodes = (
"189 35 LINE",
"677 1325 LINE",
"547 1325 LINE",
"60 35 LINE"
);
},
{
closed = 1;
nodes = (
"993 35 LINE",
"621 780 LINE",
"599 710 LINE",
"1375 1325 LINE",
"1270 1325 LINE",
"638 810 LINE SMOOTH",
"624 799 OFFCURVE",
"509 713 OFFCURVE",
"473 713 CURVE SMOOTH",
"418 713 LINE",
"397 643 LINE",
"457 643 LINE SMOOTH",
"510 643 OFFCURVE",
"560 598 OFFCURVE",
"580 551 CURVE SMOOTH",
"800 35 LINE"
);
},
{
closed = 1;
nodes = (
"383 0 LINE",
"409 70 LINE",
"-110 70 LINE",
"-136 0 LINE"
);
},
{
closed = 1;
nodes = (
"1115 0 LINE",
"1141 70 LINE",
"610 70 LINE",
"584 0 LINE"
);
},
{
closed = 1;
nodes = (
"851 1288 LINE",
"877 1358 LINE",
"360 1358 LINE",
"334 1288 LINE"
);
},
{
closed = 1;
nodes = (
"1453 1288 LINE",
"1479 1358 LINE",
"1092 1358 LINE",
"1066 1288 LINE"
);
}
);
width = 1327;
},
{
anchors = (
{
name = bottom;
position = "{511, 0}";
},
{
name = top;
position = "{1005, 1358}";
}
);
guideLines = (
{
position = "{336, 48}";
},
{
position = "{800, 1319}";
}
);
layerId = "3C607254-4343-4A81-9940-4A77E9130A74";
paths = (
{
closed = 1;
nodes = (
"260 48 LINE",
"721 1319 LINE",
"479 1319 LINE",
"18 48 LINE"
);
},
{
closed = 1;
nodes = (
"1016 48 LINE",
"718 819 LINE",
"681 724 LINE",
"1340 1319 LINE",
"1195 1319 LINE",
"662 821 LINE SMOOTH",
"628 789 OFFCURVE",
"572 754 OFFCURVE",
"540 754 CURVE SMOOTH",
"487 754 LINE",
"438 612 LINE",
"507 612 LINE SMOOTH",
"537 612 OFFCURVE",
"564 571 OFFCURVE",
"580 528 CURVE SMOOTH",
"759 48 LINE"
);
},
{
closed = 1;
nodes = (
"399 -1 LINE",
"430 86 LINE",
"-118 86 LINE",
"-149 -1 LINE"
);
},
{
closed = 1;
nodes = (
"1092 -1 LINE",
"1123 86 LINE",
"588 86 LINE",
"557 -1 LINE"
);
},
{
closed = 1;
nodes = (
"855 1271 LINE",
"886 1358 LINE",
"345 1358 LINE",
"314 1271 LINE"
);
},
{
closed = 1;
nodes = (
"1424 1271 LINE",
"1455 1358 LINE",
"1055 1358 LINE",
"1024 1271 LINE"
);
}
);
width = 1260;
}
);
leftMetricsKey = H;
note = K;
rightKerningGroup = K;
unicode = 004B;
},
{
glyphname = L;
lastChange = "2019-01-27 16:34:52 +0000";
layers = (
{
anchors = (
{
name = bottom;
position = "{459, 0}";
},
{
name = center;
position = "{403, 682}";
},
{
name = ogonek;
position = "{253, 10}";
},
{
name = top;
position = "{641, 1363}";
},
{
name = topleft;
position = "{360, 1363}";
},
{
name = topright;
position = "{911, 939}";
}
);
annotations = (
{
position = "{498, 235}";
text = "Curve of serif is a box, 120 x 46.";
type = Text;
},
{
position = "{1081.154, 185.939}";
text = "Width of serif is approx. stem width x 1.35.";
type = Text;
width = 138;
},
{
position = "{1110.561, 368.826}";
text = "Width of serif end is approx stem width / 4.8.";
type = Text;
}
);
hints = (
{
horizontal = 1;
origin = "{0, 8}";
type = Anchor;
},
{
horizontal = 1;
origin = "{0, 8}";
target = "{0, 7}";
type = TTStem;
options = 4;
},
{
horizontal = 1;
origin = "{2, 2}";
type = Anchor;
},
{
horizontal = 1;
origin = "{2, 2}";
target = "{2, 3}";
type = TTStem;
options = 4;
},
{
horizontal = 1;
origin = "{2, 2}";
target = "{2, 3}";
other1 = "{1, 2}";
type = Interpolate;
options = 4;
},
{
horizontal = 1;
origin = "{0, 8}";
target = "{0, 7}";
other1 = "{1, 3}";
type = Interpolate;
options = 4;
}
);
layerId = "72F15D98-3CFC-4C1E-A8AD-435DAE6C7B41";
paths = (
{
closed = 1;
nodes = (
"985 0 LINE",
"1087 381 LINE",
"1062 381 LINE",
"899 104 LINE SMOOTH",
"880 71 OFFCURVE",
"824 58 OFFCURVE",
"779 58 CURVE SMOOTH",
"-78 58 LINE",
"-98 0 LINE"
);
},
{
closed = 1;
nodes = (
"203 27 LINE",
"661 1329 LINE",
"540 1329 LINE",
"82 27 LINE"
);
},
{
closed = 1;
nodes = (
"834 1300 LINE",
"856 1358 LINE",
"370 1358 LINE",
"348 1300 LINE"
);
}
);
width = 1192;
},
{
anchors = (
{
name = bottom;
position = "{458, 0}";
},
{
name = center;
position = "{452, 682}";
},
{
name = ogonek;
position = "{358, 10}";
},
{
name = top;
position = "{730, 1363}";
},
{
name = topleft;
position = "{364, 1358}";
},
{
name = topright;
position = "{1081, 906}";
}
);
layerId = "9207B417-A6D7-41AF-BE7C-4506B089B767";
paths = (
{
closed = 1;
nodes = (
"1161 0 LINE",
"1298 401 LINE",
"1240 401 LINE",
"1013 143 LINE SMOOTH",
"985 112 OFFCURVE",
"956 97 OFFCURVE",
"893 97 CURVE SMOOTH",
"-92 97 LINE",
"-125 0 LINE"
);
},
{
closed = 1;
nodes = (
"363 48 LINE",
"819 1312 LINE",
"539 1312 LINE",
"74 48 LINE"
);
},
{
closed = 1;
nodes = (
"972 1261 LINE",
"1006 1358 LINE",
"392 1358 LINE",
"358 1261 LINE"
);
}
);
width = 1337;
},
{
anchors = (
{
name = bottom;
position = "{474, 0}";
},
{
name = center;
position = "{377, 682}";
},
{
name = ogonek;
position = "{252, 10}";
},
{
name = top;
position = "{655, 1363}";
},
{
name = topleft;
position = "{351, 1363}";
},
{
name = topright;
position = "{942, 943}";
}
);
layerId = "521C1B5A-C509-4418-B7D4-F4ADA96264C1";
paths = (
{
closed = 1;
nodes = (
"1030 0 LINE",
"1163 381 LINE",
"1137 381 LINE",
"949 116 LINE SMOOTH",
"927 85 OFFCURVE",
"876 70 OFFCURVE",
"829 70 CURVE SMOOTH",
"-110 70 LINE",
"-134 0 LINE"
);
},
{
closed = 1;
nodes = (
"189 31 LINE",
"677 1325 LINE",
"547 1325 LINE",
"60 31 LINE"
);
},
{
closed = 1;
nodes = (
"852 1288 LINE",
"878 1358 LINE",
"361 1358 LINE",
"335 1288 LINE"
);
}
);
width = 1253;
},
{
anchors = (
{
name = bottom;
position = "{396, 0}";
},
{
name = center;
position = "{377, 682}";
},
{
name = ogonek;
position = "{268, 10}";
},
{
name = top;
position = "{645, 1363}";
},
{
name = topleft;
position = "{300, 1359}";
},
{
name = topright;
position = "{975, 914}";
}
);
annotations = (
{
position = "{498, 235}";
text = "Curve of serif is a box, 120 x 46.";
type = Text;
},
{
position = "{1081.154, 185.939}";
text = "Width of serif is approx. stem width x 1.35.";
type = Text;
width = 138;
},
{
position = "{1110.561, 368.826}";
text = "Width of serif end is approx stem width / 4.8.";
type = Text;
}
);
layerId = "3C607254-4343-4A81-9940-4A77E9130A74";
paths = (
{
closed = 1;
nodes = (
"1018 0 LINE",
"1146 396 LINE",
"1097 396 LINE",
"886 133 LINE SMOOTH",
"854 93 OFFCURVE",
"812 86 OFFCURVE",
"766 86 CURVE SMOOTH",
"-112 86 LINE",
"-150 0 LINE"
);
},
{
closed = 1;
nodes = (
"255 41 LINE",
"719 1316 LINE",
"477 1316 LINE",
"13 41 LINE"
);
},
{
closed = 1;
nodes = (
"874 1271 LINE",
"905 1358 LINE",
"344 1358 LINE",
"313 1271 LINE"
);
}
);
width = 1192;
}
);
leftMetricsKey = H;
note = L;
rightKerningGroup = L;
unicode = 004C;
},
{
glyphname = M;
lastChange = "2019-01-27 16:34:52 +0000";
layers = (
{
anchors = (
{
name = bottom;
position = "{683, 0}";
},
{
name = top;
position = "{1164, 1363}";
}
);
guideLines = (
{
position = "{567, 1149}";
},
{
position = "{402, 30}";
}
);
hints = (
{
horizontal = 1;
origin = "{3, 3}";
type = Anchor;
},
{
horizontal = 1;
origin = "{3, 3}";
target = "{3, 2}";
type = TTStem;
options = 4;
},
{
horizontal = 1;
origin = "{3, 3}";
target = "{4, 3}";
type = Align;
options = 4;
},
{
horizontal = 1;
origin = "{3, 2}";
target = "{4, 2}";
type = Align;
options = 4;
},
{
horizontal = 1;
origin = "{0, 15}";
type = Anchor;
},
{
horizontal = 1;
origin = "{0, 15}";
target = "{0, 16}";
type = TTStem;
options = 4;
},
{
horizontal = 1;
origin = "{0, 15}";
target = "{0, 4}";
type = Align;
options = 4;
},
{
horizontal = 1;
origin = "{0, 16}";
target = "{0, 3}";
type = Align;
options = 4;
},
{
horizontal = 1;
origin = "{3, 3}";
target = "{3, 2}";
other1 = "{0, 19}";
type = Interpolate;
options = 4;
},
{
horizontal = 1;
origin = "{3, 3}";
target = "{3, 2}";
other1 = "{1, 3}";
type = Interpolate;
options = 4;
},
{
horizontal = 1;
origin = "{1, 3}";
target = "{2, 3}";
type = Align;
options = 4;
}
);
layerId = "72F15D98-3CFC-4C1E-A8AD-435DAE6C7B41";
paths = (
{
closed = 1;
nodes = (
"687 7 LINE",
"1635 1313 LINE",
"1547 1287 LINE",
"1845 1287 LINE",
"1869 1358 LINE",
"1676 1358 LINE SMOOTH",
"1614 1358 OFFCURVE",
"1566 1341 OFFCURVE",
"1531 1291 CURVE SMOOTH",
"706 131 LINE",
"751 131 LINE",
"706 1285 LINE SMOOTH",
"704 1340 OFFCURVE",
"672 1358 OFFCURVE",
"606 1358 CURVE SMOOTH",
"407 1358 LINE",
"383 1287 LINE",
"627 1287 LINE",
"588 1320 LINE",
"642 7 LINE"
);
},
{
closed = 1;
nodes = (
"132 30 LINE",
"644 1295 LINE",
"594 1315 LINE",
"50 30 LINE"
);
},
{
closed = 1;
nodes = (
"1237 30 LINE",
"1692 1323 LINE",
"1571 1323 LINE",
"1116 30 LINE"
);
},
{
closed = 1;
nodes = (
"288 0 LINE",
"310 58 LINE",
"-117 58 LINE",
"-139 0 LINE"
);
},
{
closed = 1;
nodes = (
"1406 0 LINE",
"1428 58 LINE",
"952 58 LINE",
"930 0 LINE"
);
}
);
width = 1599;
},
{
anchors = (
{
name = bottom;
position = "{754, 0}";
},
{
name = top;
position = "{1235, 1363}";
}
);
guideLines = (
{
position = "{1156, 997}";
},
{
position = "{1622, 47}";
}
);
layerId = "9207B417-A6D7-41AF-BE7C-4506B089B767";
paths = (
{
closed = 1;
nodes = (
"772 7 LINE",
"1923 1313 LINE",
"1747 1262 LINE",
"2206 1262 LINE",
"2230 1358 LINE",
"1892 1358 LINE SMOOTH",
"1830 1358 OFFCURVE",
"1788 1337 OFFCURVE",
"1747 1291 CURVE SMOOTH",
"780 226 LINE",
"915 261 LINE",
"811 1285 LINE SMOOTH",
"805 1340 OFFCURVE",
"777 1358 OFFCURVE",
"711 1358 CURVE SMOOTH",
"370 1358 LINE",
"346 1262 LINE",
"627 1262 LINE",
"529 1320 LINE",
"673 7 LINE"
);
},
{
closed = 1;
nodes = (
"160 47 LINE",
"666 1295 LINE",
"555 1315 LINE",
"17 47 LINE"
);
},
{
closed = 1;
nodes = (
"1605 47 LINE",
"2064 1323 LINE",
"1770 1282 LINE",
"1315 47 LINE"
);
},
{
closed = 1;
nodes = (
"319 0 LINE",
"355 96 LINE",
"-111 96 LINE",
"-147 0 LINE"
);
},
{
closed = 1;
nodes = (
"1758 0 LINE",
"1792 96 LINE",
"1162 96 LINE",
"1128 0 LINE"
);
}
);
width = 1932;
},
{
anchors = (
{
name = bottom;
position = "{725, 0}";
},
{
name = top;
position = "{1224, 1363}";
}
);
guideLines = (
{
position = "{179, 31}";
}
);
layerId = "521C1B5A-C509-4418-B7D4-F4ADA96264C1";
paths = (
{
closed = 1;
nodes = (
"746 7 LINE",
"1757 1313 LINE",
"1668 1287 LINE",
"1996 1287 LINE",
"2020 1358 LINE",
"1807 1358 LINE SMOOTH",
"1740 1358 OFFCURVE",
"1689 1341 OFFCURVE",
"1651 1291 CURVE SMOOTH",
"763 120 LINE",
"828 149 LINE",
"778 1285 LINE SMOOTH",
"776 1340 OFFCURVE",
"742 1358 OFFCURVE",
"671 1358 CURVE SMOOTH",
"414 1358 LINE",
"389 1287 LINE",
"682 1287 LINE",
"654 1320 LINE",
"712 7 LINE"
);
},
{
closed = 1;
nodes = (
"151 31 LINE",
"701 1295 LINE",
"646 1315 LINE",
"63 31 LINE"
);
},
{
closed = 1;
nodes = (
"1340 31 LINE",
"1827 1323 LINE",
"1697 1323 LINE",
"1211 31 LINE"
);
},
{
closed = 1;
nodes = (
"319 0 LINE",
"342 58 LINE",
"-115 58 LINE",
"-139 0 LINE"
);
},
{
closed = 1;
nodes = (
"1525 0 LINE",
"1548 58 LINE",
"1052 58 LINE",
"1028 0 LINE"
);
}
);
width = 1730;
},
{
anchors = (
{
name = bottom;
position = "{612, 0}";
},
{
name = top;
position = "{1093, 1363}";
}
);
guideLines = (
{
position = "{567, 1149}";
},
{
position = "{178, 41}";
}
);
layerId = "3C607254-4343-4A81-9940-4A77E9130A74";
paths = (
{
closed = 1;
nodes = (
"616 7 LINE",
"1627 1313 LINE",
"1484 1268 LINE",
"1882 1268 LINE",
"1906 1358 LINE",
"1625 1358 LINE SMOOTH",
"1563 1358 OFFCURVE",
"1517 1340 OFFCURVE",
"1479 1291 CURVE SMOOTH",
"637 202 LINE",
"759 259 LINE",
"743 1285 LINE SMOOTH",
"742 1349 OFFCURVE",
"696 1358 OFFCURVE",
"643 1358 CURVE SMOOTH",
"375 1358 LINE",
"351 1268 LINE",
"603 1268 LINE",
"520 1320 LINE",
"541 7 LINE"
);
},
{
closed = 1;
nodes = (
"128 41 LINE",
"636 1295 LINE",
"541 1315 LINE",
"1 41 LINE"
);
},
{
closed = 1;
nodes = (
"1298 41 LINE",
"1757 1323 LINE",
"1507 1292 LINE",
"1052 41 LINE"
);
},
{
closed = 1;
nodes = (
"267 0 LINE",
"299 86 LINE",
"-117 86 LINE",
"-149 0 LINE"
);
},
{
closed = 1;
nodes = (
"1436 0 LINE",
"1467 86 LINE",
"916 86 LINE",
"885 0 LINE"
);
}
);
width = 1599;
}
);
leftKerningGroup = M;
note = M;
rightKerningGroup = M;
rightMetricsKey = H;
unicode = 004D;
},
{
glyphname = N;
lastChange = "2019-01-27 16:34:52 +0000";
layers = (
{
anchors = (
{
name = bottom;
position = "{541, 0}";
},
{
name = top;
position = "{1021, 1363}";
}
);
hints = (
{
horizontal = 1;
origin = "{3, 3}";
type = Anchor;
},
{
horizontal = 1;
origin = "{3, 3}";
target = "{3, 2}";
type = TTStem;
options = 4;
},
{
horizontal = 1;
origin = "{0, 9}";
type = Anchor;
},
{
horizontal = 1;
origin = "{0, 9}";
target = "{0, 10}";
type = TTStem;
options = 4;
},
{
horizontal = 1;
origin = "{0, 9}";
target = "{2, 2}";
type = Align;
options = 4;
},
{
horizontal = 1;
origin = "{0, 10}";
target = "{2, 3}";
type = Align;
options = 4;
},
{
horizontal = 1;
origin = "{0, 14}";
type = Anchor;
},
{
horizontal = 1;
origin = "{3, 3}";
target = "{3, 2}";
other1 = "{1, 3}";
type = Interpolate;
options = 4;
},
{
horizontal = 1;
origin = "{2, 2}";
target = "{2, 3}";
other1 = "{0, 2}";
type = Interpolate;
options = 4;
}
);
layerId = "72F15D98-3CFC-4C1E-A8AD-435DAE6C7B41";
paths = (
{
closed = 1;
nodes = (
"1040 -21 LINE",
"1528 1331 LINE",
"1445 1331 LINE",
"1026 116 LINE",
"1081 181 LINE",
"641 1309 LINE SMOOTH",
"625 1351 OFFCURVE",
"579 1358 OFFCURVE",
"521 1358 CURVE SMOOTH",
"369 1358 LINE",
"349 1300 LINE",
"491 1300 OFFCURVE",
"521 1271 OFFCURVE",
"548 1202 CURVE SMOOTH",
"1020 -21 LINE"
);
},
{
closed = 1;
nodes = (
"172 26 LINE",
"620 1321 LINE",
"560 1327 LINE",
"89 26 LINE"
);
},
{
closed = 1;
nodes = (
"1630 1300 LINE",
"1652 1358 LINE",
"1304 1358 LINE",
"1282 1300 LINE"
);
},
{
closed = 1;
nodes = (
"314 0 LINE",
"336 58 LINE",
"-47 58 LINE",
"-69 0 LINE"
);
}
);
width = 1350;
},
{
anchors = (
{
name = bottom;
position = "{600, 0}";
},
{
name = top;
position = "{1040, 1363}";
}
);
layerId = "9207B417-A6D7-41AF-BE7C-4506B089B767";
paths = (
{
closed = 1;
nodes = (
"1142 -20 LINE",
"1619 1309 LINE",
"1471 1309 LINE",
"1138 333 LINE",
"1203 333 LINE",
"745 1298 LINE SMOOTH",
"726 1337 OFFCURVE",
"680 1358 OFFCURVE",
"609 1358 CURVE SMOOTH",
"367 1358 LINE",
"332 1262 LINE",
"438 1262 OFFCURVE",
"501 1168 OFFCURVE",
"607 944 CURVE SMOOTH",
"1064 -20 LINE"
);
},
{
closed = 1;
nodes = (
"227 43 LINE",
"652 1285 LINE",
"520 1303 LINE",
"69 43 LINE"
);
},
{
closed = 1;
nodes = (
"1757 1261 LINE",
"1791 1358 LINE",
"1317 1358 LINE",
"1283 1261 LINE"
);
},
{
closed = 1;
nodes = (
"377 0 LINE",
"411 96 LINE",
"-63 96 LINE",
"-97 0 LINE"
);
}
);
width = 1472;
},
{
anchors = (
{
name = bottom;
position = "{494, 0}";
},
{
name = top;
position = "{993, 1363}";
}
);
layerId = "521C1B5A-C509-4418-B7D4-F4ADA96264C1";
paths = (
{
closed = 1;
nodes = (
"1089 -21 LINE",
"1611 1330 LINE",
"1524 1330 LINE",
"1081 131 LINE",
"1116 180 LINE",
"654 1309 LINE SMOOTH",
"637 1351 OFFCURVE",
"587 1358 OFFCURVE",
"525 1358 CURVE SMOOTH",
"360 1358 LINE",
"338 1300 LINE",
"479 1300 OFFCURVE",
"543 1271 OFFCURVE",
"571 1202 CURVE SMOOTH",
"1067 -21 LINE"
);
},
{
closed = 1;
nodes = (
"149 28 LINE",
"629 1321 LINE",
"564 1327 LINE",
"61 28 LINE"
);
},
{
closed = 1;
nodes = (
"1721 1300 LINE",
"1745 1358 LINE",
"1372 1358 LINE",
"1348 1300 LINE"
);
},
{
closed = 1;
nodes = (
"301 0 LINE",
"324 58 LINE",
"-86 58 LINE",
"-110 0 LINE"
);
}
);
width = 1453;
},
{
anchors = (
{
name = bottom;
position = "{554, 0}";
},
{
name = top;
position = "{1053, 1363}";
}
);
associatedMasterId = "521C1B5A-C509-4418-B7D4-F4ADA96264C1";
background = {
paths = (
{
closed = 1;
nodes = (
"302 -31 LINE",
"720 1124 LINE",
"307 1124 LINE",
"-104 -31 LINE"
);
},
{
closed = 1;
nodes = (
"470 1096 LINE",
"545 1096 LINE",
"139 0 LINE",
"72 0 LINE"
);
}
);
};
layerId = "FCCC5490-14E4-4D0A-AC11-9BB29079CF7C";
name = "Sep 27 18, 22:42";
paths = (
{
closed = 1;
nodes = (
"1088 -21 LINE",
"1528 1171 LINE SMOOTH",
"1563 1265 OFFCURVE",
"1610 1287 OFFCURVE",
"1718 1287 CURVE",
"1718 1358 LINE",
"1334 1358 LINE",
"1334 1287 LINE",
"1445 1287 OFFCURVE",
"1468 1278 OFFCURVE",
"1468 1206 CURVE SMOOTH",
"1468 1196 OFFCURVE",
"1465 1183 OFFCURVE",
"1460 1171 CURVE SMOOTH",
"1140 308 LINE",
"1108 308 LINE",
"670 1309 LINE SMOOTH",
"651 1352 OFFCURVE",
"602 1358 OFFCURVE",
"540 1358 CURVE SMOOTH",
"340 1358 LINE",
"340 1287 LINE",
"428 1287 OFFCURVE",
"496 1271 OFFCURVE",
"496 1194 CURVE SMOOTH",
"496 1174 OFFCURVE",
"489 1150 OFFCURVE",
"480 1124 CURVE SMOOTH",
"141 186 LINE SMOOTH",
"104 83 OFFCURVE",
"87 69 OFFCURVE",
"-69 69 CURVE",
"-69 0 LINE",
"338 0 LINE",
"338 69 LINE",
"218 69 OFFCURVE",
"196 94 OFFCURVE",
"196 126 CURVE SMOOTH",
"196 148 OFFCURVE",
"204 171 OFFCURVE",
"208 182 CURVE SMOOTH",
"548 1106 LINE",
"580 1106 LINE",
"1067 -21 LINE"
);
}
);
width = 1441;
},
{
anchors = (
{
name = bottom;
position = "{542, 0}";
},
{
name = top;
position = "{992, 1363}";
}
);
layerId = "3C607254-4343-4A81-9940-4A77E9130A74";
paths = (
{
closed = 1;
nodes = (
"1062 -20 LINE",
"1541 1315 LINE",
"1410 1315 LINE",
"1055 277 LINE",
"1118 294 LINE",
"675 1301 LINE SMOOTH",
"657 1341 OFFCURVE",
"611 1358 OFFCURVE",
"543 1358 CURVE SMOOTH",
"344 1358 LINE",
"313 1272 LINE",
"425 1272 OFFCURVE",
"475 1172 OFFCURVE",
"547 1009 CURVE SMOOTH",
"999 -20 LINE"
);
},
{
closed = 1;
nodes = (
"170 41 LINE",
"601 1294 LINE",
"487 1309 LINE",
"31 41 LINE"
);
},
{
closed = 1;
nodes = (
"1650 1271 LINE",
"1681 1358 LINE",
"1300 1358 LINE",
"1269 1271 LINE"
);
},
{
closed = 1;
nodes = (
"287 0 LINE",
"318 86 LINE",
"-82 86 LINE",
"-113 0 LINE"
);
}
);
width = 1350;
}
);
leftKerningGroup = Eng;
leftMetricsKey = H;
note = N;
rightKerningGroup = N;
rightMetricsKey = H;
unicode = 004E;
},
{
glyphname = Eng;
lastChange = "2019-01-27 16:34:52 +0000";
layers = (
{
hints = (
{
horizontal = 1;
origin = "{1, 3}";
type = Anchor;
},
{
horizontal = 1;
origin = "{1, 3}";
target = "{1, 2}";
type = TTStem;
options = 4;
},
{
horizontal = 1;
origin = "{3, 2}";
type = Anchor;
},
{
horizontal = 1;
origin = "{3, 2}";
target = "{3, 3}";
type = TTStem;
options = 4;
},
{
horizontal = 1;
origin = "{3, 2}";
target = "{2, 31}";
type = Align;
options = 4;
},
{
horizontal = 1;
origin = "{3, 3}";
target = "{2, 32}";
type = Align;
options = 4;
},
{
horizontal = 1;
origin = "{2, 19}";
type = Anchor;
},
{
horizontal = 1;
origin = "{2, 19}";
target = "{2, 13}";
type = TTStem;
options = 4;
},
{
horizontal = 1;
origin = "{2, 19}";
target = "{2, 7}";
type = TTStem;
options = 4;
},
{
horizontal = 1;
origin = "{1, 3}";
target = "{1, 2}";
other1 = "{0, 3}";
type = Interpolate;
options = 4;
},
{
horizontal = 1;
origin = "{3, 2}";
target = "{3, 3}";
other1 = "{2, 24}";
type = Interpolate;
options = 4;
}
);
layerId = "72F15D98-3CFC-4C1E-A8AD-435DAE6C7B41";
paths = (
{
closed = 1;
nodes = (
"175 30 LINE",
"622 1297 LINE",
"562 1303 LINE",
"112 30 LINE"
);
},
{
closed = 1;
nodes = (
"324 0 LINE",
"346 58 LINE",
"-37 58 LINE",
"-59 0 LINE"
);
},
{
closed = 1;
nodes = (
"481 1300 OFFCURVE",
"521 1271 OFFCURVE",
"548 1202 CURVE SMOOTH",
"1006 17 LINE",
"948 -124 LINE SMOOTH",
"884 -280 OFFCURVE",
"751 -424 OFFCURVE",
"654 -424 CURVE SMOOTH",
"645 -424 OFFCURVE",
"630 -416 OFFCURVE",
"610 -399 CURVE SMOOTH",
"589 -382 OFFCURVE",
"569 -373 OFFCURVE",
"550 -373 CURVE SMOOTH",
"507 -373 OFFCURVE",
"474 -401 OFFCURVE",
"474 -436 CURVE SMOOTH",
"474 -473 OFFCURVE",
"504 -498 OFFCURVE",
"533 -498 CURVE SMOOTH",
"853 -498 OFFCURVE",
"977 -229 OFFCURVE",
"1059 4 CURVE SMOOTH",
"1529 1333 LINE",
"1466 1333 LINE",
"1051 157 LINE",
"1081 181 LINE",
"641 1309 LINE SMOOTH",
"625 1351 OFFCURVE",
"580 1358 OFFCURVE",
"522 1358 CURVE SMOOTH",
"369 1358 LINE",
"349 1300 LINE"
);
},
{
closed = 1;
nodes = (
"1640 1300 LINE",
"1662 1358 LINE",
"1314 1358 LINE",
"1292 1300 LINE"
);
}
);
width = 1360;
},
{
layerId = "9207B417-A6D7-41AF-BE7C-4506B089B767";
paths = (
{
closed = 1;
nodes = (
"216 38 LINE",
"652 1285 LINE",
"520 1303 LINE",
"78 38 LINE"
);
},
{
closed = 1;
nodes = (
"377 -1 LINE",
"411 96 LINE",
"-63 96 LINE",
"-97 -1 LINE"
);
},
{
closed = 1;
nodes = (
"444 1262 OFFCURVE",
"506 1168 OFFCURVE",
"612 944 CURVE SMOOTH",
"1046 30 LINE",
"992 -135 LINE SMOOTH",
"959 -235 OFFCURVE",
"826 -385 OFFCURVE",
"759 -385 CURVE SMOOTH",
"749 -385 OFFCURVE",
"741 -380 OFFCURVE",
"725 -356 CURVE SMOOTH",
"706 -328 OFFCURVE",
"673 -313 OFFCURVE",
"637 -313 CURVE SMOOTH",
"579 -313 OFFCURVE",
"518 -341 OFFCURVE",
"518 -416 CURVE SMOOTH",
"518 -478 OFFCURVE",
"549 -518 OFFCURVE",
"617 -518 CURVE SMOOTH",
"849 -518 OFFCURVE",
"1032 -334 OFFCURVE",
"1142 -20 CURVE SMOOTH",
"1609 1312 LINE",
"1471 1312 LINE",
"1121 313 LINE",
"1206 317 LINE",
"740 1298 LINE SMOOTH",
"721 1337 OFFCURVE",
"675 1358 OFFCURVE",
"604 1358 CURVE SMOOTH",
"367 1358 LINE",
"332 1262 LINE"
);
},
{
closed = 1;
nodes = (
"1747 1261 LINE",
"1781 1358 LINE",
"1317 1358 LINE",
"1283 1261 LINE"
);
}
);
width = 1462;
},
{
layerId = "521C1B5A-C509-4418-B7D4-F4ADA96264C1";
paths = (
{
closed = 1;
nodes = (
"151 29 LINE",
"625 1282 LINE",
"560 1288 LINE",
"83 29 LINE"
);
},
{
closed = 1;
nodes = (
"312 0 LINE",
"335 58 LINE",
"-75 58 LINE",
"-99 0 LINE"
);
},
{
closed = 1;
nodes = (
"480 1300 OFFCURVE",
"523 1271 OFFCURVE",
"552 1202 CURVE SMOOTH",
"1043 17 LINE",
"981 -124 LINE SMOOTH",
"912 -280 OFFCURVE",
"769 -424 OFFCURVE",
"665 -424 CURVE SMOOTH",
"656 -424 OFFCURVE",
"640 -416 OFFCURVE",
"618 -399 CURVE SMOOTH",
"596 -382 OFFCURVE",
"574 -373 OFFCURVE",
"554 -373 CURVE SMOOTH",
"508 -373 OFFCURVE",
"472 -401 OFFCURVE",
"472 -436 CURVE SMOOTH",
"472 -473 OFFCURVE",
"505 -498 OFFCURVE",
"536 -498 CURVE SMOOTH",
"879 -498 OFFCURVE",
"1011 -228 OFFCURVE",
"1099 4 CURVE SMOOTH",
"1602 1331 LINE",
"1535 1331 LINE",
"1091 157 LINE",
"1123 181 LINE",
"651 1309 LINE SMOOTH",
"634 1351 OFFCURVE",
"586 1358 OFFCURVE",
"524 1358 CURVE SMOOTH",
"360 1358 LINE",
"338 1300 LINE"
);
},
{
closed = 1;
nodes = (
"1722 1300 LINE",
"1746 1358 LINE",
"1373 1358 LINE",
"1349 1300 LINE"
);
}
);
width = 1454;
},
{
layerId = "3C607254-4343-4A81-9940-4A77E9130A74";
paths = (
{
closed = 1;
nodes = (
"162 37 LINE",
"601 1288 LINE",
"487 1303 LINE",
"43 37 LINE"
);
},
{
closed = 1;
nodes = (
"300 -1 LINE",
"331 86 LINE",
"-80 86 LINE",
"-111 -1 LINE"
);
},
{
closed = 1;
nodes = (
"429 1272 OFFCURVE",
"477 1172 OFFCURVE",
"551 1009 CURVE SMOOTH",
"996 27 LINE",
"941 -132 LINE SMOOTH",
"901 -247 OFFCURVE",
"767 -395 OFFCURVE",
"692 -395 CURVE SMOOTH",
"682 -395 OFFCURVE",
"673 -389 OFFCURVE",
"656 -367 CURVE SMOOTH",
"639 -345 OFFCURVE",
"610 -328 OFFCURVE",
"575 -328 CURVE SMOOTH",
"522 -328 OFFCURVE",
"467 -356 OFFCURVE",
"467 -421 CURVE SMOOTH",
"467 -476 OFFCURVE",
"498 -513 OFFCURVE",
"556 -513 CURVE SMOOTH",
"810 -513 OFFCURVE",
"978 -307 OFFCURVE",
"1081 -14 CURVE SMOOTH",
"1547 1311 LINE",
"1428 1311 LINE",
"1063 273 LINE",
"1134 282 LINE",
"671 1301 LINE SMOOTH",
"653 1341 OFFCURVE",
"606 1358 OFFCURVE",
"539 1358 CURVE SMOOTH",
"344 1358 LINE",
"313 1272 LINE"
);
},
{
closed = 1;
nodes = (
"1660 1271 LINE",
"1691 1358 LINE",
"1297 1358 LINE",
"1266 1271 LINE"
);
}
);
width = 1360;
}
);
leftMetricsKey = N;
rightMetricsKey = N;
unicode = 014A;
},
{
glyphname = O;
lastChange = "2019-01-27 16:34:52 +0000";
layers = (
{
anchors = (
{
name = bottom;
position = "{533, 0}";
},
{
name = center;
position = "{774, 682}";
},
{
name = ogonek;
position = "{849, 42}";
},
{
name = top;
position = "{1014, 1363}";
},
{
name = topleft;
position = "{378, 1363}";
},
{
name = topright;
position = "{1649, 1363}";
}
);
hints = (
{
horizontal = 1;
origin = "{0, 11}";
target = "{1, 11}";
type = TTStem;
options = 4;
},
{
horizontal = 1;
origin = "{0, 5}";
target = "{1, 5}";
type = TTStem;
options = 4;
},
{
origin = "{0, 8}";
target = "{1, 2}";
type = TTStem;
options = 4;
},
{
origin = "{1, 8}";
target = "{0, 2}";
type = TTStem;
options = 4;
},
{
horizontal = 1;
origin = "{0, 11}";
type = Anchor;
},
{
horizontal = 1;
origin = "{0, 5}";
type = Anchor;
}
);
layerId = "72F15D98-3CFC-4C1E-A8AD-435DAE6C7B41";
paths = (
{
closed = 1;
nodes = (
"1050 -27 OFFCURVE",
"1433 503 OFFCURVE",
"1433 941 CURVE SMOOTH",
"1433 1214 OFFCURVE",
"1286 1385 OFFCURVE",
"1000 1385 CURVE SMOOTH",
"489 1385 OFFCURVE",
"106 847 OFFCURVE",
"106 411 CURVE SMOOTH",
"106 138 OFFCURVE",
"253 -27 OFFCURVE",
"534 -27 CURVE SMOOTH"
);
},
{
closed = 1;
nodes = (
"362 38 OFFCURVE",
"238 199 OFFCURVE",
"238 422 CURVE SMOOTH",
"238 804 OFFCURVE",
"593 1324 OFFCURVE",
"967 1324 CURVE SMOOTH",
"1180 1324 OFFCURVE",
"1301 1163 OFFCURVE",
"1301 944 CURVE SMOOTH",
"1301 559 OFFCURVE",
"951 38 OFFCURVE",
"577 38 CURVE SMOOTH"
);
}
);
width = 1362;
},
{
anchors = (
{
name = bottom;
position = "{591, 0}";
},
{
name = center;
position = "{838, 679}";
},
{
name = ogonek;
position = "{1105, 118}";
},
{
name = top;
position = "{1085, 1358}";
},
{
name = topleft;
position = "{356, 1358}";
},
{
name = topright;
position = "{1813, 1358}";
}
);
layerId = "9207B417-A6D7-41AF-BE7C-4506B089B767";
paths = (
{
closed = 1;
nodes = (
"1146 -27 OFFCURVE",
"1589 460 OFFCURVE",
"1589 909 CURVE SMOOTH",
"1589 1199 OFFCURVE",
"1405 1384 OFFCURVE",
"1067 1384 CURVE SMOOTH",
"517 1384 OFFCURVE",
"78 896 OFFCURVE",
"78 454 CURVE SMOOTH",
"78 152 OFFCURVE",
"283 -27 OFFCURVE",
"608 -27 CURVE SMOOTH"
);
},
{
closed = 1;
nodes = (
"466 78 OFFCURVE",
"391 222 OFFCURVE",
"391 412 CURVE SMOOTH",
"391 787 OFFCURVE",
"681 1286 OFFCURVE",
"1018 1286 CURVE SMOOTH",
"1201 1286 OFFCURVE",
"1276 1140 OFFCURVE",
"1276 955 CURVE SMOOTH",
"1276 601 OFFCURVE",
"1002 78 OFFCURVE",
"651 78 CURVE SMOOTH"
);
}
);
width = 1493;
},
{
anchors = (
{
name = bottom;
position = "{545, 0}";
},
{
name = center;
position = "{795, 682}";
},
{
name = ogonek;
position = "{874, 42}";
},
{
name = top;
position = "{1045, 1363}";
},
{
name = topleft;
position = "{364, 1363}";
},
{
name = topright;
position = "{1724, 1363}";
}
);
layerId = "521C1B5A-C509-4418-B7D4-F4ADA96264C1";
paths = (
{
closed = 1;
nodes = (
"1086 -27 OFFCURVE",
"1491 503 OFFCURVE",
"1491 941 CURVE SMOOTH",
"1491 1214 OFFCURVE",
"1336 1385 OFFCURVE",
"1035 1385 CURVE SMOOTH",
"493 1385 OFFCURVE",
"87 847 OFFCURVE",
"87 411 CURVE SMOOTH",
"87 138 OFFCURVE",
"243 -27 OFFCURVE",
"542 -27 CURVE SMOOTH"
);
},
{
closed = 1;
nodes = (
"362 43 OFFCURVE",
"221 194 OFFCURVE",
"221 422 CURVE SMOOTH",
"221 800 OFFCURVE",
"600 1315 OFFCURVE",
"1000 1315 CURVE SMOOTH",
"1228 1315 OFFCURVE",
"1357 1159 OFFCURVE",
"1357 943 CURVE SMOOTH",
"1357 568 OFFCURVE",
"991 43 OFFCURVE",
"585 43 CURVE SMOOTH"
);
}
);
width = 1437;
},
{
anchors = (
{
name = bottom;
position = "{531, 0}";
},
{
name = center;
position = "{776, 680}";
},
{
name = ogonek;
position = "{994, 99}";
},
{
name = top;
position = "{1022, 1359}";
},
{
name = topleft;
position = "{316, 1359}";
},
{
name = topright;
position = "{1726, 1359}";
}
);
layerId = "3C607254-4343-4A81-9940-4A77E9130A74";
paths = (
{
closed = 1;
nodes = (
"1060 -27 OFFCURVE",
"1475 471 OFFCURVE",
"1475 917 CURVE SMOOTH",
"1475 1203 OFFCURVE",
"1310 1384 OFFCURVE",
"1005 1384 CURVE SMOOTH",
"481 1384 OFFCURVE",
"68 883 OFFCURVE",
"68 443 CURVE SMOOTH",
"68 149 OFFCURVE",
"247 -27 OFFCURVE",
"544 -27 CURVE SMOOTH"
);
},
{
closed = 1;
nodes = (
"412 68 OFFCURVE",
"332 216 OFFCURVE",
"332 415 CURVE SMOOTH",
"332 790 OFFCURVE",
"626 1296 OFFCURVE",
"960 1296 CURVE SMOOTH",
"1132 1296 OFFCURVE",
"1211 1146 OFFCURVE",
"1211 952 CURVE SMOOTH",
"1211 591 OFFCURVE",
"930 68 OFFCURVE",
"587 68 CURVE SMOOTH"
);
}
);
width = 1362;
}
);
leftKerningGroup = C;
note = O;
rightKerningGroup = O;
unicode = 004F;
},
{
glyphname = Oslash;
lastChange = "2019-01-27 16:34:52 +0000";
layers = (
{
anchors = (
{
name = bottom;
position = "{534, 0}";
},
{
name = top;
position = "{1028, 1358}";
}
);
background = {
paths = (
{
closed = 1;
nodes = (
"1382 1376 LINE",
"1322 1427 LINE",
"92 -32 LINE",
"152 -84 LINE"
);
},
{
closed = 1;
nodes = (
"1078 -27 OFFCURVE",
"1334 479 OFFCURVE",
"1334 819 CURVE SMOOTH",
"1334 1148 OFFCURVE",
"1135 1385 OFFCURVE",
"827 1385 CURVE SMOOTH",
"329 1385 OFFCURVE",
"61 853 OFFCURVE",
"61 515 CURVE SMOOTH",
"61 207 OFFCURVE",
"240 -27 OFFCURVE",
"574 -27 CURVE SMOOTH"
);
},
{
closed = 1;
nodes = (
"398 38 OFFCURVE",
"217 242 OFFCURVE",
"217 562 CURVE SMOOTH",
"217 852 OFFCURVE",
"412 1324 OFFCURVE",
"804 1324 CURVE SMOOTH",
"1013 1324 OFFCURVE",
"1184 1096 OFFCURVE",
"1184 794 CURVE SMOOTH",
"1184 493 OFFCURVE",
"992 38 OFFCURVE",
"599 38 CURVE SMOOTH"
);
}
);
};
components = (
{
name = O;
},
{
name = uni0338.case;
transform = "{1, 0, 0, 1, 1302, 10}";
}
);
layerId = "72F15D98-3CFC-4C1E-A8AD-435DAE6C7B41";
width = 1362;
},
{
anchors = (
{
name = bottom;
position = "{614, 0}";
},
{
name = top;
position = "{1108, 1358}";
}
);
components = (
{
name = O;
},
{
name = uni0338.case;
transform = "{1, 0, 0, 1, 1365, 7}";
}
);
layerId = "9207B417-A6D7-41AF-BE7C-4506B089B767";
width = 1493;
},
{
anchors = (
{
name = bottom;
position = "{564, 0}";
},
{
name = top;
position = "{1059, 1358}";
}
);
components = (
{
name = O;
},
{
name = uni0338.case;
transform = "{1, 0, 0, 1, 1323, 10}";
}
);
layerId = "521C1B5A-C509-4418-B7D4-F4ADA96264C1";
width = 1437;
},
{
anchors = (
{
name = bottom;
position = "{534, 0}";
},
{
name = top;
position = "{1028, 1358}";
}
);
background = {
paths = (
{
closed = 1;
nodes = (
"1382 1376 LINE",
"1322 1427 LINE",
"92 -32 LINE",
"152 -84 LINE"
);
},
{
closed = 1;
nodes = (
"1078 -27 OFFCURVE",
"1334 479 OFFCURVE",
"1334 819 CURVE SMOOTH",
"1334 1148 OFFCURVE",
"1135 1385 OFFCURVE",
"827 1385 CURVE SMOOTH",
"329 1385 OFFCURVE",
"61 853 OFFCURVE",
"61 515 CURVE SMOOTH",
"61 207 OFFCURVE",
"240 -27 OFFCURVE",
"574 -27 CURVE SMOOTH"
);
},
{
closed = 1;
nodes = (
"398 38 OFFCURVE",
"217 242 OFFCURVE",
"217 562 CURVE SMOOTH",
"217 852 OFFCURVE",
"412 1324 OFFCURVE",
"804 1324 CURVE SMOOTH",
"1013 1324 OFFCURVE",
"1184 1096 OFFCURVE",
"1184 794 CURVE SMOOTH",
"1184 493 OFFCURVE",
"992 38 OFFCURVE",
"599 38 CURVE SMOOTH"
);
}
);
};
components = (
{
name = O;
},
{
name = uni0338.case;
transform = "{1, 0, 0, 1, 1303, 8}";
}
);
layerId = "3C607254-4343-4A81-9940-4A77E9130A74";
width = 1362;
}
);
leftMetricsKey = "=O";
note = Oslash;
rightKerningGroup = O;
rightMetricsKey = O;
unicode = 00D8;
},
{
glyphname = OE;
lastChange = "2019-01-27 16:34:52 +0000";
layers = (
{
anchors = (
{
name = bottom;
position = "{773, 0}";
},
{
name = top;
position = "{1254, 1363}";
}
);
hints = (
{
horizontal = 1;
origin = "{0, 24}";
type = Anchor;
},
{
horizontal = 1;
origin = "{0, 24}";
target = "{0, 6}";
type = TTStem;
options = 4;
},
{
horizontal = 1;
origin = "{0, 18}";
type = Anchor;
},
{
horizontal = 1;
origin = "{0, 18}";
target = "{0, 11}";
type = TTStem;
options = 4;
},
{
horizontal = 1;
origin = "{0, 24}";
target = "{0, 18}";
other1 = "{2, 3}";
type = Interpolate;
},
{
horizontal = 1;
origin = "{2, 3}";
target = "{2, 2}";
type = TTStem;
options = 4;
},
{
horizontal = 1;
origin = "{0, 24}";
target = "{1, 12}";
type = TTStem;
options = 4;
},
{
horizontal = 1;
origin = "{0, 18}";
target = "{1, 5}";
type = TTStem;
options = 4;
}
);
layerId = "72F15D98-3CFC-4C1E-A8AD-435DAE6C7B41";
paths = (
{
closed = 1;
nodes = (
"1617 0 LINE",
"1739 342 LINE",
"1714 342 LINE",
"1535 104 LINE SMOOTH",
"1510 71 OFFCURVE",
"1469 58 OFFCURVE",
"1415 58 CURVE SMOOTH",
"893 58 LINE",
"910 37 LINE",
"1374 1328 LINE",
"1334 1300 LINE",
"1763 1300 LINE SMOOTH",
"1843 1300 OFFCURVE",
"1884 1282 OFFCURVE",
"1883 1254 CURVE SMOOTH",
"1872 1023 LINE",
"1897 1023 LINE",
"2030 1358 LINE",
"1001 1358 LINE SMOOTH",
"359 1358 OFFCURVE",
"111 769 OFFCURVE",
"111 403 CURVE SMOOTH",
"111 177 OFFCURVE",
"246 0 OFFCURVE",
"546 0 CURVE"
);
},
{
closed = 1;
nodes = (
"386 61 OFFCURVE",
"243 217 OFFCURVE",
"243 451 CURVE SMOOTH",
"243 816 OFFCURVE",
"508 1297 OFFCURVE",
"963 1297 CURVE SMOOTH",
"1087 1297 OFFCURVE",
"1171 1297 OFFCURVE",
"1206 1208 CURVE",
"826 127 LINE",
"748 65 OFFCURVE",
"673 61 OFFCURVE",
"571 61 CURVE SMOOTH"
);
},
{
closed = 1;
nodes = (
"1514 612 LINE",
"1514 671 LINE",
"1065 671 LINE",
"1065 612 LINE"
);
},
{
closed = 1;
nodes = (
"1474 421 LINE",
"1634 876 LINE",
"1563 876 LINE",
"1403 421 LINE"
);
}
);
width = 1854;
},
{
anchors = (
{
name = bottom;
position = "{864, 0}";
},
{
name = top;
position = "{1345, 1363}";
}
);
layerId = "9207B417-A6D7-41AF-BE7C-4506B089B767";
paths = (
{
closed = 1;
nodes = (
"1820 0 LINE",
"1944 354 LINE",
"1888 354 LINE",
"1714 166 LINE SMOOTH",
"1684 133 OFFCURVE",
"1646 96 OFFCURVE",
"1594 96 CURVE SMOOTH",
"1086 96 LINE",
"1138 52 LINE",
"1585 1309 LINE",
"1467 1262 LINE",
"1911 1262 LINE SMOOTH",
"2000 1262 OFFCURVE",
"2027 1242 OFFCURVE",
"2031 1216 CURVE SMOOTH",
"2066 1011 LINE",
"2122 1011 LINE",
"2242 1358 LINE",
"1056 1358 LINE SMOOTH",
"514 1358 OFFCURVE",
"82 939 OFFCURVE",
"82 442 CURVE SMOOTH",
"82 153 OFFCURVE",
"264 0 OFFCURVE",
"572 0 CURVE"
);
},
{
closed = 1;
nodes = (
"470 90 OFFCURVE",
"396 244 OFFCURVE",
"396 450 CURVE SMOOTH",
"396 702 OFFCURVE",
"594 1262 OFFCURVE",
"1062 1262 CURVE SMOOTH",
"1163 1262 OFFCURVE",
"1229 1245 OFFCURVE",
"1256 1166 CURVE",
"891 180 LINE",
"823 103 OFFCURVE",
"742 90 OFFCURVE",
"643 90 CURVE SMOOTH"
);
},
{
closed = 1;
nodes = (
"1661 594 LINE",
"1661 686 LINE",
"1282 686 LINE",
"1282 594 LINE"
);
},
{
closed = 1;
nodes = (
"1642 417 LINE",
"1804 881 LINE",
"1677 881 LINE",
"1515 417 LINE"
);
}
);
width = 2008;
},
{
anchors = (
{
name = bottom;
position = "{777, 0}";
},
{
name = top;
position = "{1277, 1363}";
}
);
layerId = "521C1B5A-C509-4418-B7D4-F4ADA96264C1";
paths = (
{
closed = 1;
nodes = (
"1703 0 LINE",
"1834 342 LINE",
"1797 342 LINE",
"1615 116 LINE SMOOTH",
"1588 82 OFFCURVE",
"1544 70 OFFCURVE",
"1486 70 CURVE SMOOTH",
"904 70 LINE",
"946 37 LINE",
"1444 1328 LINE",
"1391 1289 LINE",
"1860 1289 LINE SMOOTH",
"1946 1289 OFFCURVE",
"1992 1271 OFFCURVE",
"1989 1243 CURVE SMOOTH",
"1967 1023 LINE",
"2004 1023 LINE",
"2147 1358 LINE",
"1044 1358 LINE SMOOTH",
"357 1358 OFFCURVE",
"91 769 OFFCURVE",
"91 403 CURVE SMOOTH",
"91 177 OFFCURVE",
"235 0 OFFCURVE",
"524 0 CURVE"
);
},
{
closed = 1;
nodes = (
"385 75 OFFCURVE",
"233 225 OFFCURVE",
"233 451 CURVE SMOOTH",
"233 810 OFFCURVE",
"516 1283 OFFCURVE",
"1003 1283 CURVE SMOOTH",
"1136 1283 OFFCURVE",
"1226 1283 OFFCURVE",
"1264 1208 CURVE",
"856 127 LINE",
"773 78 OFFCURVE",
"692 75 OFFCURVE",
"583 75 CURVE SMOOTH"
);
},
{
closed = 1;
nodes = (
"1594 612 LINE",
"1594 671 LINE",
"1112 671 LINE",
"1112 612 LINE"
);
},
{
closed = 1;
nodes = (
"1551 421 LINE",
"1722 876 LINE",
"1646 876 LINE",
"1475 421 LINE"
);
}
);
width = 1962;
},
{
anchors = (
{
name = bottom;
position = "{779, 0}";
},
{
name = top;
position = "{1260, 1363}";
}
);
layerId = "3C607254-4343-4A81-9940-4A77E9130A74";
paths = (
{
closed = 1;
nodes = (
"1668 0 LINE",
"1791 351 LINE",
"1743 351 LINE",
"1568 150 LINE SMOOTH",
"1539 117 OFFCURVE",
"1501 86 OFFCURVE",
"1448 86 CURVE SMOOTH",
"975 86 LINE",
"1018 48 LINE",
"1470 1314 LINE",
"1372 1272 LINE",
"1774 1272 LINE SMOOTH",
"1861 1272 OFFCURVE",
"1891 1252 OFFCURVE",
"1894 1226 CURVE SMOOTH",
"1917 1014 LINE",
"1965 1014 LINE",
"2088 1358 LINE",
"980 1358 LINE SMOOTH",
"439 1358 OFFCURVE",
"72 895 OFFCURVE",
"72 432 CURVE SMOOTH",
"72 160 OFFCURVE",
"226 0 OFFCURVE",
"504 0 CURVE"
);
},
{
closed = 1;
nodes = (
"413 83 OFFCURVE",
"335 238 OFFCURVE",
"335 450 CURVE SMOOTH",
"335 731 OFFCURVE",
"538 1271 OFFCURVE",
"975 1271 CURVE SMOOTH",
"1082 1271 OFFCURVE",
"1153 1258 OFFCURVE",
"1182 1177 CURVE",
"813 166 LINE",
"743 94 OFFCURVE",
"665 83 OFFCURVE",
"563 83 CURVE SMOOTH"
);
},
{
closed = 1;
nodes = (
"1542 599 LINE",
"1542 682 LINE",
"1165 682 LINE",
"1165 599 LINE"
);
},
{
closed = 1;
nodes = (
"1518 418 LINE",
"1679 880 LINE",
"1566 880 LINE",
"1405 418 LINE"
);
}
);
width = 1854;
}
);
leftKerningGroup = C;
leftMetricsKey = O;
note = OE;
rightMetricsKey = E;
unicode = 0152;
},
{
glyphname = P;
lastChange = "2019-01-27 16:34:52 +0000";
layers = (
{
anchors = (
{
name = bottom;
position = "{359, 0}";
},
{
name = ogonek;
position = "{243, 10}";
},
{
name = top;
position = "{840, 1363}";
},
{
name = topleft;
position = "{350, 1363}";
}
);
hints = (
{
horizontal = 1;
origin = "{2, 3}";
type = Anchor;
},
{
horizontal = 1;
origin = "{2, 3}";
target = "{2, 2}";
type = TTStem;
options = 4;
},
{
horizontal = 1;
origin = "{1, 6}";
type = Anchor;
},
{
horizontal = 1;
origin = "{1, 6}";
target = "{1, 7}";
type = TTStem;
options = 4;
},
{
horizontal = 1;
origin = "{2, 3}";
target = "{1, 6}";
other1 = "{1, 21}";
type = Interpolate;
},
{
horizontal = 1;
origin = "{1, 21}";
target = "{1, 14}";
type = TTStem;
options = 4;
},
{
horizontal = 1;
origin = "{2, 3}";
target = "{2, 2}";
other1 = "{0, 3}";
type = Interpolate;
options = 4;
},
{
horizontal = 1;
origin = "{1, 6}";
target = "{1, 7}";
other1 = "{0, 2}";
type = Interpolate;
options = 4;
}
);
layerId = "72F15D98-3CFC-4C1E-A8AD-435DAE6C7B41";
paths = (
{
closed = 1;
nodes = (
"200 28 LINE",
"659 1331 LINE",
"538 1331 LINE",
"79 28 LINE"
);
},
{
closed = 1;
nodes = (
"1124 596 OFFCURVE",
"1224 890 OFFCURVE",
"1224 1058 CURVE SMOOTH",
"1224 1240 OFFCURVE",
"1096 1358 OFFCURVE",
"831 1358 CURVE SMOOTH",
"369 1358 LINE",
"349 1300 LINE",
"755 1300 LINE SMOOTH",
"977 1300 OFFCURVE",
"1095 1195 OFFCURVE",
"1095 1013 CURVE SMOOTH",
"1095 790 OFFCURVE",
"905 660 OFFCURVE",
"633 660 CURVE SMOOTH",
"549 660 OFFCURVE",
"473 676 OFFCURVE",
"410 707 CURVE",
"388 638 LINE",
"485 607 OFFCURVE",
"551 596 OFFCURVE",
"646 596 CURVE SMOOTH"
);
},
{
closed = 1;
nodes = (
"371 0 LINE",
"393 58 LINE",
"-90 58 LINE",
"-112 0 LINE"
);
}
);
width = 1075;
},
{
anchors = (
{
name = bottom;
position = "{440, 0}";
},
{
name = ogonek;
position = "{321, 10}";
},
{
name = top;
position = "{921, 1363}";
},
{
name = topleft;
position = "{327, 1358}";
}
);
layerId = "9207B417-A6D7-41AF-BE7C-4506B089B767";
paths = (
{
closed = 1;
nodes = (
"344 46 LINE",
"799 1307 LINE",
"519 1307 LINE",
"55 46 LINE"
);
},
{
closed = 1;
nodes = (
"1265 596 OFFCURVE",
"1394 822 OFFCURVE",
"1394 1015 CURVE SMOOTH",
"1394 1237 OFFCURVE",
"1223 1358 OFFCURVE",
"967 1358 CURVE SMOOTH",
"366 1358 LINE",
"332 1262 LINE",
"838 1262 LINE SMOOTH",
"1001 1262 OFFCURVE",
"1088 1164 OFFCURVE",
"1088 1011 CURVE SMOOTH",
"1088 854 OFFCURVE",
"1028 691 OFFCURVE",
"656 691 CURVE SMOOTH",
"613 691 OFFCURVE",
"580 693 OFFCURVE",
"548 705 CURVE",
"512 612 LINE",
"575 599 OFFCURVE",
"637 596 OFFCURVE",
"687 596 CURVE SMOOTH"
);
},
{
closed = 1;
nodes = (
"499 0 LINE",
"533 96 LINE",
"-91 96 LINE",
"-125 0 LINE"
);
}
);
width = 1209;
},
{
anchors = (
{
name = bottom;
position = "{373, 0}";
},
{
name = ogonek;
position = "{247, 10}";
},
{
name = top;
position = "{873, 1363}";
},
{
name = topleft;
position = "{346, 1363}";
}
);
layerId = "521C1B5A-C509-4418-B7D4-F4ADA96264C1";
paths = (
{
closed = 1;
nodes = (
"196 35 LINE",
"682 1325 LINE",
"552 1325 LINE",
"67 35 LINE"
);
},
{
closed = 1;
nodes = (
"1041 596 OFFCURVE",
"1284 774 OFFCURVE",
"1284 1074 CURVE SMOOTH",
"1284 1253 OFFCURVE",
"1147 1358 OFFCURVE",
"916 1358 CURVE SMOOTH",
"359 1358 LINE",
"335 1288 LINE",
"795 1288 LINE SMOOTH",
"1021 1288 OFFCURVE",
"1143 1203 OFFCURVE",
"1143 1032 CURVE SMOOTH",
"1143 792 OFFCURVE",
"936 666 OFFCURVE",
"584 666 CURVE SMOOTH",
"525 666 OFFCURVE",
"460 674 OFFCURVE",
"417 686 CURVE",
"394 611 LINE",
"461 597 OFFCURVE",
"540 596 OFFCURVE",
"631 596 CURVE SMOOTH"
);
},
{
closed = 1;
nodes = (
"389 0 LINE",
"415 70 LINE",
"-104 70 LINE",
"-130 0 LINE"
);
}
);
width = 1147;
},
{
anchors = (
{
name = bottom;
position = "{378, 0}";
},
{
name = ogonek;
position = "{260, 10}";
},
{
name = top;
position = "{859, 1363}";
},
{
name = topleft;
position = "{292, 1359}";
}
);
layerId = "3C607254-4343-4A81-9940-4A77E9130A74";
paths = (
{
closed = 1;
nodes = (
"265 38 LINE",
"726 1316 LINE",
"484 1316 LINE",
"23 38 LINE"
);
},
{
closed = 1;
nodes = (
"1136 596 OFFCURVE",
"1251 839 OFFCURVE",
"1251 1026 CURVE SMOOTH",
"1251 1238 OFFCURVE",
"1101 1358 OFFCURVE",
"860 1358 CURVE SMOOTH",
"344 1358 LINE",
"315 1272 LINE",
"750 1272 LINE SMOOTH",
"908 1272 OFFCURVE",
"992 1172 OFFCURVE",
"992 1012 CURVE SMOOTH",
"992 838 OFFCURVE",
"908 683 OFFCURVE",
"592 683 CURVE SMOOTH",
"540 683 OFFCURVE",
"499 689 OFFCURVE",
"461 706 CURVE",
"430 619 LINE",
"499 601 OFFCURVE",
"559 596 OFFCURVE",
"617 596 CURVE SMOOTH"
);
},
{
closed = 1;
nodes = (
"405 0 LINE",
"436 86 LINE",
"-108 86 LINE",
"-139 0 LINE"
);
}
);
width = 1075;
}
);
leftMetricsKey = H;
note = P;
rightKerningGroup = P;
unicode = 0050;
},
{
glyphname = Thorn;
lastChange = "2019-01-27 16:34:52 +0000";
layers = (
{
hints = (
{
horizontal = 1;
origin = "{0, 6}";
type = Anchor;
},
{
horizontal = 1;
origin = "{0, 6}";
target = "{0, 8}";
type = TTStem;
options = 4;
},
{
horizontal = 1;
origin = "{0, 6}";
target = "{1, 8}";
type = TTStem;
stem = -1;
},
{
horizontal = 1;
origin = "{1, 8}";
target = "{1, 17}";
type = TTStem;
options = 4;
},
{
horizontal = 1;
origin = "{1, 27}";
type = Anchor;
},
{
horizontal = 1;
origin = "{1, 27}";
target = "{1, 26}";
type = TTStem;
options = 4;
},
{
horizontal = 1;
origin = "{0, 14}";
type = Anchor;
},
{
horizontal = 1;
origin = "{0, 14}";
target = "{0, 13}";
type = TTStem;
options = 4;
}
);
layerId = "72F15D98-3CFC-4C1E-A8AD-435DAE6C7B41";
paths = (
{
closed = 1;
nodes = (
"33 -343 LINE",
"60 -310 LINE",
"588 1188 LINE SMOOTH",
"611 1253 OFFCURVE",
"634 1314 OFFCURVE",
"651 1352 CURVE",
"635 1385 LINE",
"321 1317 LINE",
"321 1259 LINE",
"531 1259 LINE",
"499 1281 LINE",
"-70 -333 LINE",
"-24 -271 LINE",
"-278 -433 LINE",
"-235 -507 LINE"
);
},
{
closed = 1;
nodes = (
"279 -14 OFFCURVE",
"413 32 OFFCURVE",
"516 84 CURVE SMOOTH",
"923 290 OFFCURVE",
"1171 755 OFFCURVE",
"1171 1086 CURVE SMOOTH",
"1171 1215 OFFCURVE",
"1133 1327 OFFCURVE",
"1012 1327 CURVE SMOOTH",
"944 1327 OFFCURVE",
"885 1292 OFFCURVE",
"828 1253 CURVE SMOOTH",
"484 1018 LINE",
"456 948 LINE",
"841 1204 LINE SMOOTH",
"851 1211 OFFCURVE",
"872 1223 OFFCURVE",
"899 1223 CURVE SMOOTH",
"971 1223 OFFCURVE",
"1004 1139 OFFCURVE",
"1004 1018 CURVE SMOOTH",
"1004 719 OFFCURVE",
"805 350 OFFCURVE",
"520 160 CURVE SMOOTH",
"404 82 OFFCURVE",
"300 54 OFFCURVE",
"143 50 CURVE",
"109 -27 LINE"
);
}
);
width = 1067;
},
{
layerId = "9207B417-A6D7-41AF-BE7C-4506B089B767";
paths = (
{
closed = 1;
nodes = (
"153 -345 LINE",
"209 -288 LINE",
"737 1220 LINE SMOOTH",
"749 1254 OFFCURVE",
"769 1301 OFFCURVE",
"794 1350 CURVE",
"755 1394 LINE",
"324 1321 LINE",
"314 1225 LINE",
"545 1225 LINE",
"484 1262 LINE",
"-82 -319 LINE",
"-36 -265 LINE",
"-259 -416 LINE",
"-195 -536 LINE"
);
},
{
closed = 1;
nodes = (
"380 -12 OFFCURVE",
"508 24 OFFCURVE",
"610 66 CURVE SMOOTH",
"1024 236 OFFCURVE",
"1340 639 OFFCURVE",
"1340 1014 CURVE SMOOTH",
"1340 1193 OFFCURVE",
"1268 1329 OFFCURVE",
"1124 1329 CURVE SMOOTH",
"1057 1329 OFFCURVE",
"974 1300 OFFCURVE",
"896 1245 CURVE SMOOTH",
"630 1057 LINE",
"551 921 LINE",
"925 1165 LINE SMOOTH",
"942 1176 OFFCURVE",
"959 1182 OFFCURVE",
"966 1182 CURVE SMOOTH",
"994 1182 OFFCURVE",
"1017 1093 OFFCURVE",
"1017 997 CURVE SMOOTH",
"1017 711 OFFCURVE",
"812 337 OFFCURVE",
"560 173 CURVE SMOOTH",
"497 132 OFFCURVE",
"385 75 OFFCURVE",
"254 75 CURVE",
"219 -27 LINE"
);
}
);
width = 1196;
},
{
layerId = "521C1B5A-C509-4418-B7D4-F4ADA96264C1";
paths = (
{
closed = 1;
nodes = (
"16 -343 LINE",
"45 -310 LINE",
"594 1188 LINE SMOOTH",
"618 1253 OFFCURVE",
"641 1313 OFFCURVE",
"659 1352 CURVE",
"642 1385 LINE",
"305 1317 LINE",
"296 1259 LINE",
"537 1259 LINE",
"505 1299 LINE",
"-94 -333 LINE",
"-45 -271 LINE",
"-316 -433 LINE",
"-269 -507 LINE"
);
},
{
closed = 1;
nodes = (
"277 -14 OFFCURVE",
"419 32 OFFCURVE",
"528 84 CURVE SMOOTH",
"968 293 OFFCURVE",
"1213 761 OFFCURVE",
"1213 1083 CURVE SMOOTH",
"1213 1244 OFFCURVE",
"1152 1327 OFFCURVE",
"1045 1327 CURVE SMOOTH",
"974 1327 OFFCURVE",
"909 1291 OFFCURVE",
"849 1253 CURVE SMOOTH",
"478 1018 LINE",
"455 951 LINE",
"864 1204 LINE SMOOTH",
"877 1212 OFFCURVE",
"897 1223 OFFCURVE",
"927 1223 CURVE SMOOTH",
"995 1223 OFFCURVE",
"1036 1169 OFFCURVE",
"1036 1030 CURVE SMOOTH",
"1036 705 OFFCURVE",
"813 327 OFFCURVE",
"533 158 CURVE SMOOTH",
"408 82 OFFCURVE",
"278 52 OFFCURVE",
"130 50 CURVE",
"94 -27 LINE"
);
}
);
width = 1125;
},
{
layerId = "3C607254-4343-4A81-9940-4A77E9130A74";
paths = (
{
closed = 1;
nodes = (
"94 -344 LINE",
"143 -294 LINE",
"671 1212 LINE SMOOTH",
"686 1254 OFFCURVE",
"704 1300 OFFCURVE",
"729 1351 CURVE",
"696 1392 LINE",
"355 1320 LINE",
"318 1234 LINE",
"513 1234 LINE",
"460 1267 LINE",
"-107 -323 LINE",
"-61 -267 LINE",
"-292 -420 LINE",
"-233 -529 LINE"
);
},
{
closed = 1;
nodes = (
"305 -12 OFFCURVE",
"420 23 OFFCURVE",
"526 71 CURVE SMOOTH",
"923 251 OFFCURVE",
"1205 668 OFFCURVE",
"1205 1032 CURVE SMOOTH",
"1205 1199 OFFCURVE",
"1147 1328 OFFCURVE",
"1019 1328 CURVE SMOOTH",
"953 1328 OFFCURVE",
"879 1300 OFFCURVE",
"808 1247 CURVE SMOOTH",
"537 1047 LINE",
"473 928 LINE",
"842 1175 LINE SMOOTH",
"857 1185 OFFCURVE",
"875 1192 OFFCURVE",
"887 1192 CURVE SMOOTH",
"920 1192 OFFCURVE",
"941 1104 OFFCURVE",
"941 1002 CURVE SMOOTH",
"941 713 OFFCURVE",
"744 341 OFFCURVE",
"495 170 CURVE SMOOTH",
"419 118 OFFCURVE",
"312 70 OFFCURVE",
"176 69 CURVE",
"143 -27 LINE"
);
}
);
width = 1067;
}
);
note = Thorn;
unicode = 00DE;
},
{
glyphname = Q;
lastChange = "2019-01-27 16:34:52 +0000";
layers = (
{
hints = (
{
horizontal = 1;
origin = "{0, 28}";
type = Anchor;
},
{
horizontal = 1;
origin = "{0, 28}";
target = "{0, 21}";
type = TTStem;
options = 4;
},
{
horizontal = 1;
origin = "{0, 34}";
type = Anchor;
},
{
horizontal = 1;
origin = "{0, 34}";
target = "{0, 15}";
type = TTStem;
options = 4;
},
{
horizontal = 1;
origin = "{0, 28}";
target = "{0, 43}";
type = TTStem;
stem = -1;
},
{
horizontal = 1;
origin = "{0, 43}";
target = "{0, 6}";
type = TTStem;
options = 4;
}
);
layerId = "72F15D98-3CFC-4C1E-A8AD-435DAE6C7B41";
paths = (
{
closed = 1;
nodes = (
"1895 -276 OFFCURVE",
"2107 -224 OFFCURVE",
"2259 -143 CURVE",
"2256 -116 LINE",
"2091 -162 OFFCURVE",
"1948 -186 OFFCURVE",
"1719 -186 CURVE SMOOTH",
"1327 -186 OFFCURVE",
"893 -116 OFFCURVE",
"553 28 CURVE SMOOTH",
"414 87 OFFCURVE",
"242 179 OFFCURVE",
"242 434 CURVE SMOOTH",
"242 781 OFFCURVE",
"561 1324 OFFCURVE",
"971 1324 CURVE SMOOTH",
"1197 1324 OFFCURVE",
"1310 1159 OFFCURVE",
"1310 938 CURVE SMOOTH",
"1310 544 OFFCURVE",
"960 49 OFFCURVE",
"488 49 CURVE SMOOTH",
"440 49 OFFCURVE",
"391 54 OFFCURVE",
"338 64 CURVE",
"432 -4 LINE",
"449 -6 OFFCURVE",
"467 -6 OFFCURVE",
"485 -6 CURVE SMOOTH",
"998 -6 OFFCURVE",
"1442 490 OFFCURVE",
"1442 929 CURVE SMOOTH",
"1442 1191 OFFCURVE",
"1284 1385 OFFCURVE",
"995 1385 CURVE SMOOTH",
"489 1385 OFFCURVE",
"110 819 OFFCURVE",
"110 455 CURVE SMOOTH",
"110 184 OFFCURVE",
"250 45 OFFCURVE",
"494 -60 CURVE SMOOTH",
"775 -181 OFFCURVE",
"1297 -276 OFFCURVE",
"1641 -276 CURVE SMOOTH"
);
}
);
width = 1362;
},
{
background = {
paths = (
{
closed = 1;
nodes = (
"1086 -27 OFFCURVE",
"1491 503 OFFCURVE",
"1491 941 CURVE SMOOTH",
"1491 1214 OFFCURVE",
"1336 1385 OFFCURVE",
"1035 1385 CURVE SMOOTH",
"493 1385 OFFCURVE",
"87 847 OFFCURVE",
"87 411 CURVE SMOOTH",
"87 138 OFFCURVE",
"243 -27 OFFCURVE",
"542 -27 CURVE SMOOTH"
);
},
{
closed = 1;
nodes = (
"362 43 OFFCURVE",
"221 194 OFFCURVE",
"221 422 CURVE SMOOTH",
"221 800 OFFCURVE",
"600 1315 OFFCURVE",
"1000 1315 CURVE SMOOTH",
"1228 1315 OFFCURVE",
"1357 1159 OFFCURVE",
"1357 943 CURVE SMOOTH",
"1357 568 OFFCURVE",
"991 43 OFFCURVE",
"585 43 CURVE SMOOTH"
);
}
);
};
layerId = "521C1B5A-C509-4418-B7D4-F4ADA96264C1";
paths = (
{
closed = 1;
nodes = (
"2021 -276 OFFCURVE",
"2248 -223 OFFCURVE",
"2407 -143 CURVE",
"2403 -116 LINE",
"2224 -163 OFFCURVE",
"2069 -186 OFFCURVE",
"1834 -186 CURVE SMOOTH",
"1397 -186 OFFCURVE",
"911 -106 OFFCURVE",
"574 28 CURVE SMOOTH",
"411 93 OFFCURVE",
"238 189 OFFCURVE",
"238 449 CURVE SMOOTH",
"238 808 OFFCURVE",
"569 1324 OFFCURVE",
"992 1324 CURVE SMOOTH",
"1234 1324 OFFCURVE",
"1357 1150 OFFCURVE",
"1357 917 CURVE SMOOTH",
"1357 513 OFFCURVE",
"987 49 OFFCURVE",
"505 49 CURVE SMOOTH",
"453 49 OFFCURVE",
"400 54 OFFCURVE",
"343 64 CURVE",
"445 -4 LINE",
"463 -6 OFFCURVE",
"470 -6 OFFCURVE",
"476 -6 CURVE SMOOTH",
"1024 -6 OFFCURVE",
"1491 455 OFFCURVE",
"1491 912 CURVE SMOOTH",
"1491 1188 OFFCURVE",
"1321 1385 OFFCURVE",
"1013 1385 CURVE SMOOTH",
"486 1385 OFFCURVE",
"87 807 OFFCURVE",
"87 439 CURVE SMOOTH",
"87 210 OFFCURVE",
"242 47 OFFCURVE",
"513 -60 CURVE SMOOTH",
"806 -176 OFFCURVE",
"1369 -276 OFFCURVE",
"1746 -276 CURVE SMOOTH"
);
}
);
userData = {
assembly = "MPPEM[ ]\011/* MeasurePixelPerEm */
PUSHB[ ]\011/* 1 value pushed */
60 
LT[ ]\011/* LessThan */
IF[ ]\011/* If */
NPUSHB[ ]\011/* 16 values pushed */
0 2 1 2 134 0 1 1 0 97 0 0 0 74 1 78 
ELSE[ ]\011/* Else */
NPUSHB[ ]\011/* 21 values pushed */
0 2 1 2 134 0 0 1 1 0 89 0 0 0 1 97 0 1 0 1 81 
EIF[ ]\011/* EndIf */
NPUSHB[ ]\011/* 9 values pushed */
45 43 37 35 29 27 3 11 22 
CALL[ ]\011/* CallFunction */";
};
width = 1437;
},
{
background = {
paths = (
{
closed = 1;
nodes = (
"1138 -27 OFFCURVE",
"1581 460 OFFCURVE",
"1581 909 CURVE SMOOTH",
"1581 1199 OFFCURVE",
"1397 1384 OFFCURVE",
"1059 1384 CURVE SMOOTH",
"509 1384 OFFCURVE",
"70 896 OFFCURVE",
"70 454 CURVE SMOOTH",
"70 152 OFFCURVE",
"275 -27 OFFCURVE",
"600 -27 CURVE SMOOTH"
);
},
{
closed = 1;
nodes = (
"458 78 OFFCURVE",
"383 222 OFFCURVE",
"383 412 CURVE SMOOTH",
"383 787 OFFCURVE",
"673 1286 OFFCURVE",
"1010 1286 CURVE SMOOTH",
"1193 1286 OFFCURVE",
"1268 1140 OFFCURVE",
"1268 955 CURVE SMOOTH",
"1268 601 OFFCURVE",
"994 78 OFFCURVE",
"643 78 CURVE SMOOTH"
);
}
);
};
layerId = "9207B417-A6D7-41AF-BE7C-4506B089B767";
paths = (
{
closed = 1;
nodes = (
"1943 -306 OFFCURVE",
"2163 -242 OFFCURVE",
"2337 -146 CURVE",
"2332 -86 LINE",
"2155 -135 OFFCURVE",
"2015 -156 OFFCURVE",
"1790 -156 CURVE SMOOTH",
"1382 -156 OFFCURVE",
"910 -87 OFFCURVE",
"655 26 CURVE SMOOTH",
"459 113 OFFCURVE",
"383 229 OFFCURVE",
"383 393 CURVE SMOOTH",
"383 702 OFFCURVE",
"652 1297 OFFCURVE",
"1032 1297 CURVE SMOOTH",
"1193 1297 OFFCURVE",
"1268 1189 OFFCURVE",
"1268 1004 CURVE SMOOTH",
"1268 660 OFFCURVE",
"1009 82 OFFCURVE",
"564 82 CURVE SMOOTH",
"515 82 OFFCURVE",
"454 89 OFFCURVE",
"415 97 CURVE",
"498 -4 LINE",
"515 -6 OFFCURVE",
"533 -6 OFFCURVE",
"551 -6 CURVE SMOOTH",
"1116 -6 OFFCURVE",
"1581 480 OFFCURVE",
"1581 944 CURVE SMOOTH",
"1581 1246 OFFCURVE",
"1384 1385 OFFCURVE",
"1085 1385 CURVE SMOOTH",
"486 1385 OFFCURVE",
"70 827 OFFCURVE",
"70 450 CURVE SMOOTH",
"70 194 OFFCURVE",
"263 21 OFFCURVE",
"553 -105 CURVE SMOOTH",
"907 -259 OFFCURVE",
"1318 -306 OFFCURVE",
"1606 -306 CURVE SMOOTH"
);
}
);
width = 1493;
},
{
layerId = "3C607254-4343-4A81-9940-4A77E9130A74";
paths = (
{
closed = 1;
nodes = (
"1921 -298 OFFCURVE",
"2138 -235 OFFCURVE",
"2302 -145 CURVE",
"2297 -94 LINE",
"2123 -142 OFFCURVE",
"1982 -164 OFFCURVE",
"1757 -164 CURVE SMOOTH",
"1348 -164 OFFCURVE",
"887 -93 OFFCURVE",
"615 26 CURVE SMOOTH",
"432 106 OFFCURVE",
"332 216 OFFCURVE",
"332 403 CURVE SMOOTH",
"332 721 OFFCURVE",
"577 1304 OFFCURVE",
"965 1304 CURVE SMOOTH",
"1137 1304 OFFCURVE",
"1206 1181 OFFCURVE",
"1206 987 CURVE SMOOTH",
"1206 630 OFFCURVE",
"965 74 OFFCURVE",
"519 74 CURVE SMOOTH",
"470 74 OFFCURVE",
"423 80 OFFCURVE",
"380 89 CURVE",
"466 -4 LINE",
"483 -6 OFFCURVE",
"486 -6 OFFCURVE",
"503 -6 CURVE SMOOTH",
"1051 -6 OFFCURVE",
"1472 483 OFFCURVE",
"1472 940 CURVE SMOOTH",
"1472 1232 OFFCURVE",
"1304 1385 OFFCURVE",
"1013 1385 CURVE SMOOTH",
"438 1385 OFFCURVE",
"65 825 OFFCURVE",
"65 451 CURVE SMOOTH",
"65 194 OFFCURVE",
"240 29 OFFCURVE",
"524 -94 CURVE SMOOTH",
"858 -239 OFFCURVE",
"1298 -298 OFFCURVE",
"1600 -298 CURVE SMOOTH"
);
}
);
width = 1362;
}
);
leftKerningGroup = C;
leftMetricsKey = "=O";
widthMetricsKey = O;
note = Q;
unicode = 0051;
},
{
glyphname = R;
lastChange = "2019-01-27 16:34:52 +0000";
layers = (
{
anchors = (
{
name = bottom;
position = "{517, 0}";
},
{
name = ogonek;
position = "{243, 10}";
},
{
name = top;
position = "{858, 1363}";
},
{
name = topleft;
position = "{350, 1363}";
}
);
hints = (
{
horizontal = 1;
origin = "{2, 3}";
type = Anchor;
},
{
horizontal = 1;
origin = "{2, 3}";
target = "{2, 2}";
type = TTStem;
options = 4;
},
{
horizontal = 1;
origin = "{0, 17}";
type = Anchor;
},
{
horizontal = 1;
origin = "{0, 17}";
target = "{0, 18}";
type = TTStem;
options = 4;
},
{
horizontal = 1;
origin = "{2, 3}";
target = "{0, 17}";
other1 = "{0, 30}";
type = Interpolate;
},
{
horizontal = 1;
origin = "{0, 30}";
target = "{0, 25}";
type = TTStem;
options = 4;
},
{
horizontal = 1;
origin = "{0, 17}";
target = "{0, 18}";
other1 = "{1, 2}";
type = Interpolate;
options = 4;
},
{
horizontal = 1;
origin = "{2, 3}";
target = "{2, 2}";
other1 = "{1, 3}";
type = Interpolate;
options = 4;
}
);
layerId = "72F15D98-3CFC-4C1E-A8AD-435DAE6C7B41";
paths = (
{
closed = 1;
nodes = (
"1129 -25 OFFCURVE",
"1140 -25 OFFCURVE",
"1164 -22 CURVE",
"1176 15 LINE",
"1123 15 OFFCURVE",
"1050 57 OFFCURVE",
"987 147 CURVE SMOOTH",
"903 268 OFFCURVE",
"809 507 OFFCURVE",
"800 651 CURVE",
"764 621 LINE",
"1162 697 OFFCURVE",
"1246 970 OFFCURVE",
"1246 1100 CURVE SMOOTH",
"1246 1268 OFFCURVE",
"1129 1358 OFFCURVE",
"880 1358 CURVE SMOOTH",
"369 1358 LINE",
"349 1300 LINE",
"783 1300 LINE SMOOTH",
"985 1300 OFFCURVE",
"1104 1221 OFFCURVE",
"1104 1076 CURVE SMOOTH",
"1104 914 OFFCURVE",
"959 650 OFFCURVE",
"562 650 CURVE SMOOTH",
"530 650 OFFCURVE",
"474 651 OFFCURVE",
"405 675 CURVE",
"364 601 LINE",
"540 601 LINE SMOOTH",
"615 601 OFFCURVE",
"642 558 OFFCURVE",
"679 428 CURVE SMOOTH",
"704 341 OFFCURVE",
"726 276 OFFCURVE",
"763 213 CURVE SMOOTH",
"820 117 OFFCURVE",
"940 -25 OFFCURVE",
"1115 -25 CURVE SMOOTH"
);
},
{
closed = 1;
nodes = (
"197 29 LINE",
"655 1327 LINE",
"534 1327 LINE",
"76 29 LINE"
);
},
{
closed = 1;
nodes = (
"368 0 LINE",
"390 58 LINE",
"-93 58 LINE",
"-115 0 LINE"
);
}
);
width = 1333;
},
{
anchors = (
{
name = bottom;
position = "{607, 0}";
},
{
name = ogonek;
position = "{328, 10}";
},
{
name = top;
position = "{918, 1363}";
},
{
name = topleft;
position = "{334, 1358}";
}
);
layerId = "9207B417-A6D7-41AF-BE7C-4506B089B767";
paths = (
{
closed = 1;
nodes = (
"1218 -25 OFFCURVE",
"1248 -22 OFFCURVE",
"1284 -18 CURVE",
"1300 43 LINE",
"1247 48 OFFCURVE",
"1203 82 OFFCURVE",
"1146 176 CURVE SMOOTH",
"1071 299 OFFCURVE",
"1022 459 OFFCURVE",
"964 657 CURVE",
"920 612 LINE",
"1426 728 OFFCURVE",
"1439 1017 OFFCURVE",
"1439 1067 CURVE SMOOTH",
"1439 1245 OFFCURVE",
"1272 1358 OFFCURVE",
"979 1358 CURVE SMOOTH",
"373 1358 LINE",
"339 1262 LINE",
"859 1262 LINE SMOOTH",
"1037 1262 OFFCURVE",
"1142 1198 OFFCURVE",
"1142 1060 CURVE SMOOTH",
"1142 894 OFFCURVE",
"996 676 OFFCURVE",
"665 676 CURVE SMOOTH",
"626 676 OFFCURVE",
"581 679 OFFCURVE",
"539 687 CURVE",
"510 588 LINE",
"617 588 LINE SMOOTH",
"665 588 OFFCURVE",
"701 513 OFFCURVE",
"717 427 CURVE SMOOTH",
"728 369 OFFCURVE",
"778 253 OFFCURVE",
"837 169 CURVE SMOOTH",
"921 48 OFFCURVE",
"1027 -25 OFFCURVE",
"1185 -25 CURVE SMOOTH"
);
},
{
closed = 1;
nodes = (
"342 44 LINE",
"801 1316 LINE",
"521 1316 LINE",
"53 44 LINE"
);
},
{
closed = 1;
nodes = (
"497 -1 LINE",
"531 95 LINE",
"-93 95 LINE",
"-127 -1 LINE"
);
}
);
width = 1448;
},
{
anchors = (
{
name = bottom;
position = "{545, 0}";
},
{
name = ogonek;
position = "{251, 10}";
},
{
name = top;
position = "{895, 1363}";
},
{
name = topleft;
position = "{350, 1363}";
}
);
layerId = "521C1B5A-C509-4418-B7D4-F4ADA96264C1";
paths = (
{
closed = 1;
nodes = (
"1200 -25 OFFCURVE",
"1212 -25 OFFCURVE",
"1237 -22 CURVE",
"1250 15 LINE",
"1193 15 OFFCURVE",
"1114 57 OFFCURVE",
"1046 147 CURVE SMOOTH",
"955 268 OFFCURVE",
"852 507 OFFCURVE",
"840 651 CURVE",
"803 621 LINE",
"1151 683 OFFCURVE",
"1310 861 OFFCURVE",
"1310 1082 CURVE SMOOTH",
"1310 1264 OFFCURVE",
"1177 1358 OFFCURVE",
"918 1358 CURVE SMOOTH",
"372 1358 LINE",
"346 1288 LINE",
"816 1288 LINE SMOOTH",
"988 1288 OFFCURVE",
"1160 1258 OFFCURVE",
"1160 1074 CURVE SMOOTH",
"1160 843 OFFCURVE",
"986 671 OFFCURVE",
"586 671 CURVE SMOOTH",
"551 671 OFFCURVE",
"491 672 OFFCURVE",
"418 696 CURVE",
"375 601 LINE",
"563 601 LINE SMOOTH",
"643 601 OFFCURVE",
"672 558 OFFCURVE",
"713 428 CURVE SMOOTH",
"740 341 OFFCURVE",
"765 276 OFFCURVE",
"806 213 CURVE SMOOTH",
"868 117 OFFCURVE",
"998 -25 OFFCURVE",
"1185 -25 CURVE SMOOTH"
);
},
{
closed = 1;
nodes = (
"189 31 LINE",
"676 1323 LINE",
"546 1323 LINE",
"60 31 LINE"
);
},
{
closed = 1;
nodes = (
"383 0 LINE",
"409 70 LINE",
"-110 70 LINE",
"-136 0 LINE"
);
}
);
width = 1422;
},
{
anchors = (
{
name = bottom;
position = "{539, 0}";
},
{
name = ogonek;
position = "{261, 10}";
},
{
name = top;
position = "{858, 1363}";
},
{
name = topleft;
position = "{293, 1359}";
}
);
layerId = "3C607254-4343-4A81-9940-4A77E9130A74";
paths = (
{
closed = 1;
nodes = (
"1104 -25 OFFCURVE",
"1129 -23 OFFCURVE",
"1162 -19 CURVE",
"1177 36 LINE",
"1125 40 OFFCURVE",
"1076 74 OFFCURVE",
"1018 169 CURVE SMOOTH",
"944 291 OFFCURVE",
"885 471 OFFCURVE",
"841 655 CURVE",
"800 614 LINE",
"1264 720 OFFCURVE",
"1295 1005 OFFCURVE",
"1295 1075 CURVE SMOOTH",
"1295 1251 OFFCURVE",
"1145 1358 OFFCURVE",
"871 1358 CURVE SMOOTH",
"346 1358 LINE",
"316 1272 LINE",
"761 1272 LINE SMOOTH",
"930 1272 OFFCURVE",
"1031 1204 OFFCURVE",
"1031 1064 CURVE SMOOTH",
"1031 899 OFFCURVE",
"893 669 OFFCURVE",
"565 669 CURVE SMOOTH",
"530 669 OFFCURVE",
"481 672 OFFCURVE",
"436 684 CURVE",
"405 591 LINE",
"525 591 LINE SMOOTH",
"579 591 OFFCURVE",
"612 523 OFFCURVE",
"632 428 CURVE SMOOTH",
"646 362 OFFCURVE",
"687 260 OFFCURVE",
"740 180 CURVE SMOOTH",
"815 67 OFFCURVE",
"921 -25 OFFCURVE",
"1079 -25 CURVE SMOOTH"
);
},
{
closed = 1;
nodes = (
"260 41 LINE",
"718 1316 LINE",
"478 1316 LINE",
"14 41 LINE"
);
},
{
closed = 1;
nodes = (
"419 -1 LINE",
"450 86 LINE",
"-118 86 LINE",
"-149 -1 LINE"
);
}
);
width = 1331;
}
);
leftMetricsKey = H;
note = R;
rightKerningGroup = R;
unicode = 0052;
},
{
glyphname = S;
lastChange = "2019-01-27 16:34:52 +0000";
layers = (
{
anchors = (
{
name = bottom;
position = "{296, 0}";
},
{
name = top;
position = "{790, 1358}";
}
);
hints = (
{
horizontal = 1;
origin = "{0, 25}";
type = Anchor;
},
{
horizontal = 1;
origin = "{0, 25}";
target = "{0, 11}";
type = TTStem;
options = 4;
},
{
horizontal = 1;
origin = "{0, 51}";
type = Anchor;
},
{
horizontal = 1;
origin = "{0, 51}";
target = "{0, 37}";
type = TTStem;
options = 4;
},
{
origin = "{0, 28}";
target = "{0, 8}";
type = TTStem;
options = 4;
},
{
origin = "{0, 2}";
target = "{0, 34}";
type = TTStem;
options = 4;
}
);
layerId = "72F15D98-3CFC-4C1E-A8AD-435DAE6C7B41";
paths = (
{
closed = 1;
nodes = (
"662 -27 OFFCURVE",
"823 127 OFFCURVE",
"823 362 CURVE SMOOTH",
"823 517 OFFCURVE",
"751 607 OFFCURVE",
"647 739 CURVE SMOOTH",
"577 828 OFFCURVE",
"484 956 OFFCURVE",
"484 1085 CURVE SMOOTH",
"484 1214 OFFCURVE",
"582 1326 OFFCURVE",
"715 1326 CURVE SMOOTH",
"861 1326 OFFCURVE",
"942 1179 OFFCURVE",
"942 967 CURVE SMOOTH",
"942 937 OFFCURVE",
"940 909 OFFCURVE",
"937 879 CURVE",
"1002 879 LINE",
"1135 1328 LINE",
"1070 1328 LINE",
"1005 1110 LINE",
"1047 1142 LINE",
"947 1323 OFFCURVE",
"845 1385 OFFCURVE",
"703 1385 CURVE SMOOTH",
"488 1385 OFFCURVE",
"353 1234 OFFCURVE",
"353 1015 CURVE SMOOTH",
"353 868 OFFCURVE",
"416 785 OFFCURVE",
"528 639 CURVE SMOOTH",
"597 549 OFFCURVE",
"684 435 OFFCURVE",
"684 300 CURVE SMOOTH",
"684 147 OFFCURVE",
"568 32 OFFCURVE",
"414 32 CURVE SMOOTH",
"210 32 OFFCURVE",
"140 249 OFFCURVE",
"140 386 CURVE SMOOTH",
"140 422 OFFCURVE",
"145 470 OFFCURVE",
"158 514 CURVE",
"93 514 LINE",
"-55 15 LINE",
"10 15 LINE",
"78 243 LINE",
"23 173 LINE",
"194 1 OFFCURVE",
"317 -27 OFFCURVE",
"422 -27 CURVE SMOOTH"
);
}
);
width = 960;
},
{
anchors = (
{
name = bottom;
position = "{305, 0}";
},
{
name = top;
position = "{799, 1358}";
}
);
layerId = "9207B417-A6D7-41AF-BE7C-4506B089B767";
paths = (
{
closed = 1;
nodes = (
"666 -27 OFFCURVE",
"872 127 OFFCURVE",
"872 363 CURVE SMOOTH",
"872 513 OFFCURVE",
"821 643 OFFCURVE",
"719 788 CURVE SMOOTH",
"654 881 OFFCURVE",
"565 1018 OFFCURVE",
"565 1123 CURVE SMOOTH",
"565 1227 OFFCURVE",
"628 1300 OFFCURVE",
"732 1300 CURVE SMOOTH",
"889 1300 OFFCURVE",
"976 1193 OFFCURVE",
"976 1048 CURVE SMOOTH",
"976 1013 OFFCURVE",
"971 976 OFFCURVE",
"960 937 CURVE",
"1056 937 LINE",
"1177 1325 LINE",
"1083 1328 LINE",
"1020 1127 LINE",
"1078 1168 LINE",
"971 1341 OFFCURVE",
"829 1385 OFFCURVE",
"692 1385 CURVE SMOOTH",
"467 1385 OFFCURVE",
"290 1247 OFFCURVE",
"290 1049 CURVE SMOOTH",
"290 888 OFFCURVE",
"364 740 OFFCURVE",
"459 582 CURVE SMOOTH",
"515 488 OFFCURVE",
"591 353 OFFCURVE",
"591 253 CURVE SMOOTH",
"591 152 OFFCURVE",
"523 67 OFFCURVE",
"412 67 CURVE SMOOTH",
"205 67 OFFCURVE",
"157 262 OFFCURVE",
"157 382 CURVE SMOOTH",
"157 426 OFFCURVE",
"162 470 OFFCURVE",
"175 514 CURVE",
"76 514 LINE",
"-72 15 LINE",
"27 15 LINE",
"105 280 LINE",
"27 173 LINE",
"173 2 OFFCURVE",
"305 -27 OFFCURVE",
"422 -27 CURVE SMOOTH"
);
}
);
width = 950;
},
{
anchors = (
{
name = bottom;
position = "{317, 0}";
},
{
name = top;
position = "{812, 1358}";
}
);
layerId = "521C1B5A-C509-4418-B7D4-F4ADA96264C1";
paths = (
{
closed = 1;
nodes = (
"688 -27 OFFCURVE",
"861 127 OFFCURVE",
"861 362 CURVE SMOOTH",
"861 517 OFFCURVE",
"784 607 OFFCURVE",
"672 739 CURVE SMOOTH",
"597 828 OFFCURVE",
"498 956 OFFCURVE",
"498 1085 CURVE SMOOTH",
"498 1214 OFFCURVE",
"602 1326 OFFCURVE",
"744 1326 CURVE SMOOTH",
"901 1326 OFFCURVE",
"988 1179 OFFCURVE",
"988 967 CURVE SMOOTH",
"988 937 OFFCURVE",
"986 909 OFFCURVE",
"982 879 CURVE",
"1052 879 LINE",
"1195 1328 LINE",
"1125 1328 LINE",
"1055 1110 LINE",
"1100 1142 LINE",
"993 1323 OFFCURVE",
"884 1385 OFFCURVE",
"732 1385 CURVE SMOOTH",
"501 1385 OFFCURVE",
"356 1234 OFFCURVE",
"356 1015 CURVE SMOOTH",
"356 868 OFFCURVE",
"423 785 OFFCURVE",
"543 639 CURVE SMOOTH",
"617 549 OFFCURVE",
"710 435 OFFCURVE",
"710 300 CURVE SMOOTH",
"710 147 OFFCURVE",
"586 32 OFFCURVE",
"422 32 CURVE SMOOTH",
"203 32 OFFCURVE",
"128 249 OFFCURVE",
"128 386 CURVE SMOOTH",
"128 422 OFFCURVE",
"133 470 OFFCURVE",
"147 514 CURVE",
"78 514 LINE",
"-81 15 LINE",
"-11 15 LINE",
"62 243 LINE",
"3 173 LINE",
"186 1 OFFCURVE",
"318 -27 OFFCURVE",
"430 -27 CURVE SMOOTH"
);
}
);
width = 1010;
},
{
anchors = (
{
name = bottom;
position = "{306, 0}";
},
{
name = top;
position = "{800, 1358}";
}
);
layerId = "3C607254-4343-4A81-9940-4A77E9130A74";
paths = (
{
closed = 1;
nodes = (
"668 -27 OFFCURVE",
"863 127 OFFCURVE",
"863 363 CURVE SMOOTH",
"863 512 OFFCURVE",
"807 634 OFFCURVE",
"704 776 CURVE SMOOTH",
"638 867 OFFCURVE",
"548 1002 OFFCURVE",
"548 1113 CURVE SMOOTH",
"548 1223 OFFCURVE",
"620 1307 OFFCURVE",
"731 1307 CURVE SMOOTH",
"885 1307 OFFCURVE",
"971 1190 OFFCURVE",
"971 1027 CURVE SMOOTH",
"971 997 OFFCURVE",
"967 959 OFFCURVE",
"958 922 CURVE",
"1046 922 LINE",
"1170 1326 LINE",
"1083 1328 LINE",
"1020 1123 LINE",
"1074 1161 LINE",
"968 1337 OFFCURVE",
"836 1385 OFFCURVE",
"698 1385 CURVE SMOOTH",
"476 1385 OFFCURVE",
"310 1243 OFFCURVE",
"310 1040 CURVE SMOOTH",
"310 884 OFFCURVE",
"380 753 OFFCURVE",
"480 597 CURVE SMOOTH",
"539 505 OFFCURVE",
"618 374 OFFCURVE",
"618 265 CURVE SMOOTH",
"618 151 OFFCURVE",
"538 58 OFFCURVE",
"416 58 CURVE SMOOTH",
"218 58 OFFCURVE",
"166 259 OFFCURVE",
"166 383 CURVE SMOOTH",
"166 422 OFFCURVE",
"171 470 OFFCURVE",
"184 514 CURVE",
"94 514 LINE",
"-54 15 LINE",
"36 15 LINE",
"112 271 LINE",
"40 173 LINE",
"192 2 OFFCURVE",
"315 -27 OFFCURVE",
"426 -27 CURVE SMOOTH"
);
}
);
width = 960;
}
);
leftKerningGroup = S;
note = S;
rightKerningGroup = S;
unicode = 0053;
},
{
glyphname = uni1E9E;
lastChange = "2019-01-27 16:34:52 +0000";
layers = (
{
hints = (
{
horizontal = 1;
origin = "{1, 3}";
type = Anchor;
},
{
horizontal = 1;
origin = "{1, 3}";
target = "{1, 2}";
type = TTStem;
options = 4;
},
{
horizontal = 1;
origin = "{0, 10}";
type = Anchor;
},
{
horizontal = 1;
origin = "{0, 10}";
target = "{0, 25}";
type = TTStem;
options = 4;
},
{
horizontal = 1;
origin = "{0, 49}";
type = Anchor;
},
{
horizontal = 1;
origin = "{0, 49}";
target = "{0, 36}";
type = TTStem;
options = 4;
},
{
horizontal = 1;
origin = "{0, 10}";
target = "{0, 49}";
other1 = "{0, 30}";
type = Interpolate;
},
{
horizontal = 1;
origin = "{0, 30}";
target = "{0, 29}";
type = TTStem;
options = 4;
},
{
horizontal = 1;
origin = "{1, 3}";
target = "{1, 2}";
other1 = "{0, 17}";
type = Interpolate;
options = 4;
}
);
layerId = "72F15D98-3CFC-4C1E-A8AD-435DAE6C7B41";
paths = (
{
closed = 1;
nodes = (
"1195 -35 OFFCURVE",
"1313 323 OFFCURVE",
"1313 485 CURVE SMOOTH",
"1313 642 OFFCURVE",
"1200 735 OFFCURVE",
"998 739 CURVE",
"1528 1287 LINE",
"1523 1330 LINE",
"1420 1367 OFFCURVE",
"1323 1385 OFFCURVE",
"1196 1385 CURVE SMOOTH",
"994 1385 OFFCURVE",
"822 1334 OFFCURVE",
"663 1230 CURVE SMOOTH",
"504 1126 OFFCURVE",
"397 973 OFFCURVE",
"325 770 CURVE SMOOTH",
"62 28 LINE",
"184 28 LINE",
"435 738 LINE SMOOTH",
"505 937 OFFCURVE",
"565 1032 OFFCURVE",
"680 1144 CURVE SMOOTH",
"796 1257 OFFCURVE",
"965 1322 OFFCURVE",
"1124 1322 CURVE SMOOTH",
"1199 1322 OFFCURVE",
"1303 1302 OFFCURVE",
"1327 1247 CURVE",
"832 719 LINE",
"841 684 LINE",
"1041 684 OFFCURVE",
"1157 597 OFFCURVE",
"1157 452 CURVE SMOOTH",
"1157 302 OFFCURVE",
"1058 41 OFFCURVE",
"795 41 CURVE SMOOTH",
"680 41 OFFCURVE",
"612 130 OFFCURVE",
"612 242 CURVE SMOOTH",
"612 280 OFFCURVE",
"618 324 OFFCURVE",
"631 374 CURVE",
"571 374 LINE",
"535 275 OFFCURVE",
"517 176 OFFCURVE",
"514 73 CURVE",
"560 8 OFFCURVE",
"646 -35 OFFCURVE",
"751 -35 CURVE SMOOTH"
);
},
{
closed = 1;
nodes = (
"371 0 LINE",
"393 57 LINE",
"-110 57 LINE",
"-132 0 LINE"
);
}
);
width = 1384;
},
{
layerId = "9207B417-A6D7-41AF-BE7C-4506B089B767";
paths = (
{
closed = 1;
nodes = (
"1278 -27 OFFCURVE",
"1466 292 OFFCURVE",
"1466 493 CURVE SMOOTH",
"1466 641 OFFCURVE",
"1357 729 OFFCURVE",
"1175 739 CURVE",
"1673 1300 LINE",
"1672 1321 LINE",
"1586 1361 OFFCURVE",
"1438 1384 OFFCURVE",
"1269 1384 CURVE SMOOTH",
"1061 1384 OFFCURVE",
"856 1329 OFFCURVE",
"698 1228 CURVE SMOOTH",
"519 1113 OFFCURVE",
"395 959 OFFCURVE",
"326 770 CURVE SMOOTH",
"62 45 LINE",
"341 45 LINE",
"593 737 LINE SMOOTH",
"656 909 OFFCURVE",
"722 1037 OFFCURVE",
"801 1121 CURVE SMOOTH",
"908 1234 OFFCURVE",
"1023 1296 OFFCURVE",
"1193 1296 CURVE SMOOTH",
"1265 1296 OFFCURVE",
"1328 1284 OFFCURVE",
"1355 1261 CURVE",
"890 719 LINE",
"928 664 LINE",
"1120 664 OFFCURVE",
"1212 601 OFFCURVE",
"1212 448 CURVE SMOOTH",
"1212 264 OFFCURVE",
"1109 68 OFFCURVE",
"930 68 CURVE SMOOTH",
"824 68 OFFCURVE",
"774 138 OFFCURVE",
"774 249 CURVE SMOOTH",
"774 285 OFFCURVE",
"779 328 OFFCURVE",
"792 375 CURVE",
"660 375 LINE",
"626 268 OFFCURVE",
"605 194 OFFCURVE",
"602 80 CURVE",
"638 21 OFFCURVE",
"764 -27 OFFCURVE",
"882 -27 CURVE SMOOTH"
);
},
{
closed = 1;
nodes = (
"499 0 LINE",
"533 96 LINE",
"-103 96 LINE",
"-137 0 LINE"
);
}
);
width = 1493;
},
{
layerId = "521C1B5A-C509-4418-B7D4-F4ADA96264C1";
paths = (
{
closed = 1;
nodes = (
"1252 -35 OFFCURVE",
"1391 300 OFFCURVE",
"1391 483 CURVE SMOOTH",
"1391 665 OFFCURVE",
"1245 736 OFFCURVE",
"1053 739 CURVE",
"1614 1287 LINE",
"1609 1330 LINE",
"1498 1367 OFFCURVE",
"1394 1385 OFFCURVE",
"1258 1385 CURVE SMOOTH",
"1042 1385 OFFCURVE",
"859 1334 OFFCURVE",
"689 1230 CURVE SMOOTH",
"520 1126 OFFCURVE",
"407 972 OFFCURVE",
"332 770 CURVE SMOOTH",
"59 31 LINE",
"192 31 LINE",
"450 738 LINE SMOOTH",
"523 937 OFFCURVE",
"586 1032 OFFCURVE",
"708 1144 CURVE SMOOTH",
"830 1256 OFFCURVE",
"1012 1322 OFFCURVE",
"1182 1322 CURVE SMOOTH",
"1262 1322 OFFCURVE",
"1374 1302 OFFCURVE",
"1399 1247 CURVE",
"875 719 LINE",
"886 684 LINE",
"1076 684 OFFCURVE",
"1225 616 OFFCURVE",
"1225 453 CURVE SMOOTH",
"1225 286 OFFCURVE",
"1114 41 OFFCURVE",
"843 41 CURVE SMOOTH",
"710 41 OFFCURVE",
"647 131 OFFCURVE",
"647 265 CURVE SMOOTH",
"647 297 OFFCURVE",
"652 333 OFFCURVE",
"664 374 CURVE",
"600 374 LINE",
"561 276 OFFCURVE",
"544 173 OFFCURVE",
"542 73 CURVE",
"593 8 OFFCURVE",
"685 -35 OFFCURVE",
"797 -35 CURVE SMOOTH"
);
},
{
closed = 1;
nodes = (
"392 0 LINE",
"418 70 LINE",
"-127 70 LINE",
"-153 0 LINE"
);
}
);
width = 1478;
},
{
layerId = "3C607254-4343-4A81-9940-4A77E9130A74";
paths = (
{
closed = 1;
nodes = (
"1216 -29 OFFCURVE",
"1347 300 OFFCURVE",
"1347 491 CURVE SMOOTH",
"1347 639 OFFCURVE",
"1261 730 OFFCURVE",
"1070 739 CURVE",
"1596 1297 LINE",
"1594 1323 LINE",
"1500 1364 OFFCURVE",
"1362 1384 OFFCURVE",
"1210 1384 CURVE SMOOTH",
"1002 1384 OFFCURVE",
"806 1330 OFFCURVE",
"648 1228 CURVE SMOOTH",
"475 1116 OFFCURVE",
"356 963 OFFCURVE",
"286 770 CURVE SMOOTH",
"22 41 LINE",
"264 41 LINE",
"516 737 LINE SMOOTH",
"581 916 OFFCURVE",
"642 1034 OFFCURVE",
"732 1127 CURVE SMOOTH",
"841 1240 OFFCURVE",
"968 1303 OFFCURVE",
"1135 1303 CURVE SMOOTH",
"1200 1303 OFFCURVE",
"1279 1291 OFFCURVE",
"1308 1257 CURVE",
"835 719 LINE",
"864 669 LINE",
"1058 669 OFFCURVE",
"1118 600 OFFCURVE",
"1118 449 CURVE SMOOTH",
"1118 275 OFFCURVE",
"1056 61 OFFCURVE",
"855 61 CURVE SMOOTH",
"747 61 OFFCURVE",
"692 136 OFFCURVE",
"692 247 CURVE SMOOTH",
"692 282 OFFCURVE",
"697 325 OFFCURVE",
"711 375 CURVE",
"597 375 LINE",
"564 273 OFFCURVE",
"543 195 OFFCURVE",
"539 78 CURVE",
"578 18 OFFCURVE",
"692 -29 OFFCURVE",
"808 -29 CURVE SMOOTH"
);
},
{
closed = 1;
nodes = (
"386 -1 LINE",
"417 86 LINE",
"-105 86 LINE",
"-136 -1 LINE"
);
}
);
width = 1384;
}
);
note = uni1E9E;
unicode = 1E9E;
},
{
glyphname = T;
lastChange = "2019-01-27 16:34:52 +0000";
layers = (
{
anchors = (
{
name = bottom;
position = "{590, 0}";
},
{
name = center;
position = "{837, 679}";
},
{
name = ogonek;
position = "{718, 10}";
},
{
name = overlay;
position = "{838, 688}";
},
{
name = top;
position = "{1084, 1358}";
},
{
name = topleft;
position = "{825, 1363}";
}
);
guideLines = (
{
position = "{1189, 1083}";
}
);
hints = (
{
horizontal = 1;
origin = "{4, 3}";
type = Anchor;
},
{
horizontal = 1;
origin = "{4, 3}";
target = "{4, 2}";
type = TTStem;
options = 4;
},
{
horizontal = 1;
origin = "{0, 2}";
target = "{0, 3}";
type = TTStem;
options = 4;
},
{
horizontal = 1;
origin = "{4, 3}";
target = "{4, 2}";
other1 = "{3, 3}";
type = Interpolate;
options = 4;
},
{
horizontal = 1;
origin = "{0, 3}";
target = "{0, 2}";
other1 = "{3, 2}";
type = Interpolate;
options = 4;
},
{
horizontal = 1;
origin = "{0, 2}";
target = "{1, 5}";
type = Align;
options = 4;
},
{
horizontal = 1;
origin = "{0, 2}";
target = "{2, 5}";
type = Align;
options = 4;
},
{
horizontal = 1;
origin = "{0, 3}";
target = "{1, 4}";
type = Align;
options = 4;
},
{
horizontal = 1;
origin = "{0, 3}";
target = "{2, 6}";
type = Align;
options = 4;
}
);
layerId = "72F15D98-3CFC-4C1E-A8AD-435DAE6C7B41";
paths = (
{
closed = 1;
nodes = (
"1716 1300 LINE",
"1730 1358 LINE",
"466 1358 LINE",
"441 1300 LINE"
);
},
{
closed = 1;
nodes = (
"332 1091 LINE",
"439 1236 LINE SMOOTH",
"477 1287 OFFCURVE",
"522 1300 OFFCURVE",
"604 1300 CURVE",
"634 1358 LINE",
"529 1358 OFFCURVE",
"489 1400 OFFCURVE",
"469 1458 CURVE",
"429 1458 LINE",
"282 1091 LINE"
);
},
{
closed = 1;
nodes = (
"1692 1092 LINE",
"1818 1460 LINE",
"1750 1460 LINE",
"1726 1413 OFFCURVE",
"1673 1358 OFFCURVE",
"1620 1358 CURVE",
"1515 1300 LINE",
"1573 1300 OFFCURVE",
"1605 1285 OFFCURVE",
"1612 1247 CURVE SMOOTH",
"1642 1092 LINE"
);
},
{
closed = 1;
nodes = (
"668 26 LINE",
"1125 1330 LINE",
"1004 1330 LINE",
"547 26 LINE"
);
},
{
closed = 1;
nodes = (
"859 0 LINE",
"881 58 LINE",
"378 58 LINE",
"356 0 LINE"
);
}
);
width = 1497;
},
{
anchors = (
{
name = bottom;
position = "{570, 0}";
},
{
name = center;
position = "{817, 679}";
},
{
name = ogonek;
position = "{744, 10}";
},
{
name = overlay;
position = "{821, 690}";
},
{
name = top;
position = "{1064, 1358}";
},
{
name = topleft;
position = "{750, 1358}";
}
);
layerId = "9207B417-A6D7-41AF-BE7C-4506B089B767";
paths = (
{
closed = 1;
nodes = (
"1663 1262 LINE",
"1693 1358 LINE",
"476 1358 LINE",
"457 1262 LINE"
);
},
{
closed = 1;
nodes = (
"310 1089 LINE",
"432 1221 LINE SMOOTH",
"467 1258 OFFCURVE",
"509 1262 OFFCURVE",
"614 1262 CURVE",
"614 1358 LINE",
"509 1358 OFFCURVE",
"469 1400 OFFCURVE",
"449 1458 CURVE",
"409 1458 LINE",
"262 1089 LINE"
);
},
{
closed = 1;
nodes = (
"1671 1090 LINE",
"1797 1460 LINE",
"1730 1460 LINE",
"1706 1413 OFFCURVE",
"1653 1358 OFFCURVE",
"1600 1358 CURVE",
"1495 1262 LINE",
"1562 1262 OFFCURVE",
"1583 1250 OFFCURVE",
"1588 1230 CURVE SMOOTH",
"1623 1090 LINE"
);
},
{
closed = 1;
nodes = (
"747 43 LINE",
"1206 1312 LINE",
"926 1312 LINE",
"458 43 LINE"
);
},
{
closed = 1;
nodes = (
"913 0 LINE",
"947 96 LINE",
"313 96 LINE",
"279 0 LINE"
);
}
);
width = 1456;
},
{
anchors = (
{
name = bottom;
position = "{574, 0}";
},
{
name = center;
position = "{822, 679}";
},
{
name = ogonek;
position = "{694, 10}";
},
{
name = overlay;
position = "{821, 687}";
},
{
name = top;
position = "{1069, 1358}";
},
{
name = topleft;
position = "{793, 1363}";
}
);
layerId = "521C1B5A-C509-4418-B7D4-F4ADA96264C1";
paths = (
{
closed = 1;
nodes = (
"1700 1288 LINE",
"1715 1358 LINE",
"451 1358 LINE",
"425 1288 LINE"
);
},
{
closed = 1;
nodes = (
"317 1083 LINE",
"443 1243 LINE SMOOTH",
"469 1275 OFFCURVE",
"518 1288 OFFCURVE",
"589 1288 CURVE",
"619 1358 LINE",
"514 1358 OFFCURVE",
"474 1400 OFFCURVE",
"454 1458 CURVE",
"414 1458 LINE",
"267 1083 LINE"
);
},
{
closed = 1;
nodes = (
"1676 1084 LINE",
"1802 1460 LINE",
"1735 1460 LINE",
"1711 1413 OFFCURVE",
"1658 1358 OFFCURVE",
"1605 1358 CURVE",
"1494 1288 LINE",
"1555 1288 OFFCURVE",
"1596 1272 OFFCURVE",
"1602 1233 CURVE SMOOTH",
"1626 1084 LINE"
);
},
{
closed = 1;
nodes = (
"632 31 LINE",
"1121 1328 LINE",
"991 1328 LINE",
"503 31 LINE"
);
},
{
closed = 1;
nodes = (
"826 0 LINE",
"852 70 LINE",
"333 70 LINE",
"307 0 LINE"
);
}
);
width = 1498;
},
{
anchors = (
{
name = bottom;
position = "{590, 0}";
},
{
name = center;
position = "{837, 679}";
},
{
name = ogonek;
position = "{752, 10}";
},
{
name = overlay;
position = "{840, 689}";
},
{
name = top;
position = "{1084, 1358}";
},
{
name = topleft;
position = "{784, 1359}";
}
);
guideLines = (
{
position = "{1189, 1083}";
}
);
layerId = "3C607254-4343-4A81-9940-4A77E9130A74";
paths = (
{
closed = 1;
nodes = (
"1691 1272 LINE",
"1717 1358 LINE",
"488 1358 LINE",
"468 1272 LINE"
);
},
{
closed = 1;
nodes = (
"331 1090 LINE",
"449 1225 LINE SMOOTH",
"481 1261 OFFCURVE",
"513 1272 OFFCURVE",
"626 1272 CURVE",
"634 1358 LINE",
"530 1358 OFFCURVE",
"489 1400 OFFCURVE",
"469 1458 CURVE",
"429 1458 LINE",
"282 1090 LINE"
);
},
{
closed = 1;
nodes = (
"1691 1091 LINE",
"1817 1460 LINE",
"1750 1460 LINE",
"1726 1413 OFFCURVE",
"1672 1358 OFFCURVE",
"1620 1358 CURVE",
"1515 1272 LINE",
"1580 1272 OFFCURVE",
"1603 1259 OFFCURVE",
"1609 1235 CURVE SMOOTH",
"1643 1091 LINE"
);
},
{
closed = 1;
nodes = (
"739 39 LINE",
"1203 1318 LINE",
"961 1318 LINE",
"497 39 LINE"
);
},
{
closed = 1;
nodes = (
"914 0 LINE",
"945 86 LINE",
"345 86 LINE",
"314 0 LINE"
);
}
);
width = 1497;
}
);
leftKerningGroup = T;
note = T;
rightKerningGroup = T;
unicode = 0054;
},
{
glyphname = U;
lastChange = "2019-01-27 16:34:52 +0000";
layers = (
{
anchors = (
{
name = bottom;
position = "{559, 0}";
},
{
name = ogonek;
position = "{948, 91}";
},
{
name = top;
position = "{1039, 1363}";
},
{
name = topright;
position = "{1757, 1363}";
}
);
guideLines = (
{
position = "{773, 1329}";
}
);
hints = (
{
horizontal = 1;
origin = "{0, 29}";
type = Anchor;
},
{
horizontal = 1;
origin = "{0, 29}";
target = "{0, 11}";
type = TTStem;
options = 4;
},
{
horizontal = 1;
origin = "{1, 2}";
type = Anchor;
},
{
horizontal = 1;
origin = "{1, 2}";
target = "{1, 3}";
type = TTStem;
options = 4;
},
{
horizontal = 1;
origin = "{1, 2}";
target = "{2, 2}";
type = Align;
options = 4;
},
{
horizontal = 1;
origin = "{1, 3}";
target = "{2, 3}";
type = Align;
options = 4;
},
{
horizontal = 1;
origin = "{1, 2}";
target = "{1, 3}";
other1 = "{0, 19}";
type = Interpolate;
options = 4;
},
{
horizontal = 1;
origin = "{0, 19}";
target = "{0, 7}";
type = Align;
options = 4;
}
);
layerId = "72F15D98-3CFC-4C1E-A8AD-435DAE6C7B41";
paths = (
{
closed = 1;
nodes = (
"779 -27 OFFCURVE",
"984 73 OFFCURVE",
"1121 254 CURVE SMOOTH",
"1186 339 OFFCURVE",
"1247 493 OFFCURVE",
"1328 729 CURVE SMOOTH",
"1535 1329 LINE",
"1452 1329 LINE",
"1161 487 LINE SMOOTH",
"1051 170 OFFCURVE",
"848 38 OFFCURVE",
"591 38 CURVE SMOOTH",
"442 38 OFFCURVE",
"326 91 OFFCURVE",
"326 271 CURVE SMOOTH",
"326 345 OFFCURVE",
"348 443 OFFCURVE",
"383 541 CURVE SMOOTH",
"664 1329 LINE",
"542 1329 LINE",
"261 539 LINE SMOOTH",
"221 426 OFFCURVE",
"192 315 OFFCURVE",
"192 229 CURVE SMOOTH",
"192 147 OFFCURVE",
"216 87 OFFCURVE",
"270 46 CURVE SMOOTH",
"326 3 OFFCURVE",
"417 -27 OFFCURVE",
"544 -27 CURVE SMOOTH"
);
},
{
closed = 1;
nodes = (
"842 1300 LINE",
"864 1358 LINE",
"360 1358 LINE",
"338 1300 LINE"
);
},
{
closed = 1;
nodes = (
"1705 1300 LINE",
"1727 1358 LINE",
"1258 1358 LINE",
"1236 1300 LINE"
);
}
);
width = 1411;
},
{
anchors = (
{
name = bottom;
position = "{612, 0}";
},
{
name = ogonek;
position = "{1030, 85}";
},
{
name = top;
position = "{1092, 1363}";
},
{
name = topright;
position = "{1750, 1363}";
}
);
guideLines = (
{
position = "{883, 1311}";
}
);
layerId = "9207B417-A6D7-41AF-BE7C-4506B089B767";
paths = (
{
closed = 1;
nodes = (
"839 -27 OFFCURVE",
"1053 45 OFFCURVE",
"1204 247 CURVE SMOOTH",
"1281 351 OFFCURVE",
"1352 505 OFFCURVE",
"1438 739 CURVE SMOOTH",
"1649 1311 LINE",
"1468 1311 LINE",
"1173 502 LINE SMOOTH",
"1066 210 OFFCURVE",
"907 78 OFFCURVE",
"668 78 CURVE SMOOTH",
"505 78 OFFCURVE",
"452 139 OFFCURVE",
"452 252 CURVE SMOOTH",
"452 329 OFFCURVE",
"474 435 OFFCURVE",
"512 538 CURVE SMOOTH",
"795 1311 LINE",
"516 1311 LINE",
"235 545 LINE SMOOTH",
"195 437 OFFCURVE",
"169 338 OFFCURVE",
"169 261 CURVE SMOOTH",
"169 156 OFFCURVE",
"209 91 OFFCURVE",
"297 38 CURVE SMOOTH",
"357 2 OFFCURVE",
"478 -27 OFFCURVE",
"601 -27 CURVE SMOOTH"
);
},
{
closed = 1;
nodes = (
"930 1261 LINE",
"964 1358 LINE",
"360 1358 LINE",
"326 1261 LINE"
);
},
{
closed = 1;
nodes = (
"1775 1261 LINE",
"1809 1358 LINE",
"1302 1358 LINE",
"1268 1261 LINE"
);
}
);
width = 1494;
},
{
anchors = (
{
name = bottom;
position = "{577, 0}";
},
{
name = ogonek;
position = "{992, 91}";
},
{
name = top;
position = "{1076, 1363}";
},
{
name = topright;
position = "{1845, 1363}";
}
);
background = {
paths = (
{
closed = 1;
nodes = (
"812 -27 OFFCURVE",
"1030 73 OFFCURVE",
"1176 254 CURVE SMOOTH",
"1244 339 OFFCURVE",
"1305 494 OFFCURVE",
"1392 729 CURVE SMOOTH",
"1613 1328 LINE",
"1524 1328 LINE",
"1215 487 LINE SMOOTH",
"1098 169 OFFCURVE",
"886 38 OFFCURVE",
"611 38 CURVE SMOOTH",
"476 38 OFFCURVE",
"328 62 OFFCURVE",
"328 260 CURVE SMOOTH",
"328 339 OFFCURVE",
"344 436 OFFCURVE",
"383 541 CURVE SMOOTH",
"674 1332 LINE",
"543 1332 LINE",
"252 539 LINE SMOOTH",
"208 419 OFFCURVE",
"186 305 OFFCURVE",
"186 215 CURVE SMOOTH",
"186 123 OFFCURVE",
"219 80 OFFCURVE",
"267 46 CURVE SMOOTH",
"327 3 OFFCURVE",
"425 -27 OFFCURVE",
"561 -27 CURVE SMOOTH"
);
},
{
closed = 1;
nodes = (
"864 1288 LINE",
"890 1358 LINE",
"353 1358 LINE",
"327 1288 LINE"
);
},
{
closed = 1;
nodes = (
"1786 1288 LINE",
"1812 1358 LINE",
"1312 1358 LINE",
"1286 1288 LINE"
);
}
);
};
guideLines = (
{
position = "{1410, 1328}";
}
);
layerId = "521C1B5A-C509-4418-B7D4-F4ADA96264C1";
paths = (
{
closed = 1;
nodes = (
"812 -27 OFFCURVE",
"1030 73 OFFCURVE",
"1176 254 CURVE SMOOTH",
"1244 339 OFFCURVE",
"1305 494 OFFCURVE",
"1392 729 CURVE SMOOTH",
"1613 1328 LINE",
"1524 1328 LINE",
"1215 487 LINE SMOOTH",
"1098 170 OFFCURVE",
"886 38 OFFCURVE",
"611 38 CURVE SMOOTH",
"476 38 OFFCURVE",
"328 62 OFFCURVE",
"328 260 CURVE SMOOTH",
"328 339 OFFCURVE",
"344 436 OFFCURVE",
"383 541 CURVE SMOOTH",
"674 1328 LINE",
"543 1328 LINE",
"252 539 LINE SMOOTH",
"208 419 OFFCURVE",
"186 305 OFFCURVE",
"186 215 CURVE SMOOTH",
"186 123 OFFCURVE",
"219 80 OFFCURVE",
"267 46 CURVE SMOOTH",
"327 3 OFFCURVE",
"425 -27 OFFCURVE",
"561 -27 CURVE SMOOTH"
);
},
{
closed = 1;
nodes = (
"864 1288 LINE",
"890 1358 LINE",
"353 1358 LINE",
"327 1288 LINE"
);
},
{
closed = 1;
nodes = (
"1786 1288 LINE",
"1812 1358 LINE",
"1312 1358 LINE",
"1286 1288 LINE"
);
}
);
width = 1516;
},
{
anchors = (
{
name = bottom;
position = "{568, 0}";
},
{
name = ogonek;
position = "{978, 87}";
},
{
name = top;
position = "{1048, 1363}";
},
{
name = topright;
position = "{1721, 1363}";
}
);
guideLines = (
{
position = "{1376, 1319}";
}
);
layerId = "3C607254-4343-4A81-9940-4A77E9130A74";
paths = (
{
closed = 1;
nodes = (
"814 -27 OFFCURVE",
"1006 59 OFFCURVE",
"1150 251 CURVE SMOOTH",
"1252 388 OFFCURVE",
"1310 545 OFFCURVE",
"1379 736 CURVE SMOOTH",
"1590 1319 LINE",
"1434 1319 LINE",
"1139 498 LINE SMOOTH",
"1037 213 OFFCURVE",
"870 68 OFFCURVE",
"619 68 CURVE SMOOTH",
"460 68 OFFCURVE",
"392 126 OFFCURVE",
"392 259 CURVE SMOOTH",
"392 334 OFFCURVE",
"415 437 OFFCURVE",
"452 539 CURVE SMOOTH",
"735 1319 LINE",
"493 1319 LINE",
"211 543 LINE SMOOTH",
"171 434 OFFCURVE",
"144 329 OFFCURVE",
"144 249 CURVE SMOOTH",
"144 159 OFFCURVE",
"178 88 OFFCURVE",
"256 40 CURVE SMOOTH",
"326 -3 OFFCURVE",
"430 -27 OFFCURVE",
"563 -27 CURVE SMOOTH"
);
},
{
closed = 1;
nodes = (
"862 1271 LINE",
"893 1358 LINE",
"344 1358 LINE",
"313 1271 LINE"
);
},
{
closed = 1;
nodes = (
"1711 1271 LINE",
"1742 1358 LINE",
"1275 1358 LINE",
"1244 1271 LINE"
);
}
);
width = 1411;
}
);
leftKerningGroup = U;
note = U;
rightKerningGroup = U;
unicode = 0055;
},
{
glyphname = V;
lastChange = "2019-01-27 16:34:52 +0000";
layers = (
{
anchors = (
{
name = bottom;
position = "{65, 0}";
},
{
name = top;
position = "{545, 1363}";
}
);
guideLines = (
{
position = "{762, 1331}";
}
);
hints = (
{
horizontal = 1;
origin = "{1, 2}";
type = Anchor;
},
{
horizontal = 1;
origin = "{1, 2}";
target = "{1, 3}";
type = TTStem;
options = 4;
},
{
horizontal = 1;
origin = "{1, 2}";
target = "{2, 2}";
type = Align;
options = 4;
},
{
horizontal = 1;
origin = "{1, 3}";
target = "{2, 3}";
type = Align;
options = 4;
},
{
horizontal = 1;
origin = "{0, 8}";
type = Anchor;
},
{
horizontal = 1;
origin = "{1, 2}";
target = "{1, 3}";
other1 = "{0, 7}";
type = Interpolate;
options = 4;
},
{
horizontal = 1;
origin = "{0, 7}";
target = "{0, 3}";
type = Align;
options = 4;
}
);
layerId = "72F15D98-3CFC-4C1E-A8AD-435DAE6C7B41";
leftMetricsKey = "=H+20";
paths = (
{
closed = 1;
nodes = (
"65 -38 LINE",
"257 85 LINE",
"1618 1331 LINE",
"1512 1331 LINE",
"277 163 LINE",
"248 163 LINE",
"719 1331 LINE",
"584 1331 LINE",
"32 -38 LINE"
);
},
{
closed = 1;
nodes = (
"844 1300 LINE",
"866 1358 LINE",
"390 1358 LINE",
"368 1300 LINE"
);
},
{
closed = 1;
nodes = (
"1714 1300 LINE",
"1736 1358 LINE",
"1280 1358 LINE",
"1258 1300 LINE"
);
}
);
width = 1398;
},
{
anchors = (
{
name = bottom;
position = "{127, 0}";
},
{
name = top;
position = "{607, 1363}";
}
);
guideLines = (
{
position = "{853, 1314}";
}
);
layerId = "9207B417-A6D7-41AF-BE7C-4506B089B767";
leftMetricsKey = "=H+29";
paths = (
{
closed = 1;
nodes = (
"110 -39 LINE",
"361 172 LINE",
"1596 1314 LINE",
"1430 1314 LINE",
"372 300 LINE",
"439 322 LINE",
"811 1314 LINE",
"525 1314 LINE",
"20 -39 LINE"
);
},
{
closed = 1;
nodes = (
"956 1261 LINE",
"990 1358 LINE",
"395 1358 LINE",
"361 1261 LINE"
);
},
{
closed = 1;
nodes = (
"1705 1261 LINE",
"1739 1358 LINE",
"1235 1358 LINE",
"1201 1261 LINE"
);
}
);
width = 1393;
},
{
anchors = (
{
name = bottom;
position = "{66, 0}";
},
{
name = top;
position = "{566, 1363}";
}
);
guideLines = (
{
position = "{729, 1331}";
}
);
layerId = "521C1B5A-C509-4418-B7D4-F4ADA96264C1";
leftMetricsKey = "=H+14";
paths = (
{
closed = 1;
nodes = (
"66 -38 LINE",
"240 85 LINE",
"1599 1331 LINE",
"1486 1331 LINE",
"199 110 LINE",
"235 119 LINE",
"698 1331 LINE",
"553 1331 LINE",
"31 -38 LINE"
);
},
{
closed = 1;
nodes = (
"853 1300 LINE",
"877 1358 LINE",
"376 1358 LINE",
"352 1300 LINE"
);
},
{
closed = 1;
nodes = (
"1710 1300 LINE",
"1734 1358 LINE",
"1265 1358 LINE",
"1242 1300 LINE"
);
}
);
width = 1408;
},
{
anchors = (
{
name = bottom;
position = "{71, 0}";
},
{
name = top;
position = "{551, 1363}";
}
);
guideLines = (
{
position = "{1623, 1317}";
}
);
layerId = "3C607254-4343-4A81-9940-4A77E9130A74";
leftMetricsKey = "=H+10";
paths = (
{
closed = 1;
nodes = (
"78 -39 LINE",
"314 150 LINE",
"1592 1317 LINE",
"1442 1317 LINE",
"328 265 LINE",
"347 237 LINE",
"741 1317 LINE",
"500 1317 LINE",
"3 -39 LINE"
);
},
{
closed = 1;
nodes = (
"887 1271 LINE",
"918 1358 LINE",
"354 1358 LINE",
"323 1271 LINE"
);
},
{
closed = 1;
nodes = (
"1695 1271 LINE",
"1726 1358 LINE",
"1238 1358 LINE",
"1208 1271 LINE"
);
}
);
width = 1398;
}
);
leftKerningGroup = V;
leftMetricsKey = "=H*0.66";
note = V;
rightKerningGroup = V;
unicode = 0056;
},
{
glyphname = W;
lastChange = "2019-01-27 16:34:52 +0000";
layers = (
{
anchors = (
{
name = bottom;
position = "{331, 0}";
},
{
name = top;
position = "{1231, 1363}";
}
);
guideLines = (
{
position = "{528, 286}";
},
{
position = "{702, 1331}";
}
);
hints = (
{
horizontal = 1;
origin = "{2, 2}";
type = Anchor;
},
{
horizontal = 1;
origin = "{2, 2}";
target = "{3, 2}";
type = Align;
options = 4;
},
{
horizontal = 1;
origin = "{2, 2}";
target = "{4, 2}";
type = Align;
options = 4;
},
{
horizontal = 1;
origin = "{2, 2}";
target = "{2, 3}";
type = TTStem;
options = 4;
},
{
horizontal = 1;
origin = "{2, 3}";
target = "{3, 3}";
type = Align;
options = 4;
},
{
horizontal = 1;
origin = "{2, 3}";
target = "{4, 3}";
type = Align;
options = 4;
},
{
horizontal = 1;
origin = "{1, 7}";
type = Anchor;
},
{
horizontal = 1;
origin = "{1, 7}";
target = "{0, 7}";
type = Align;
options = 4;
},
{
horizontal = 1;
origin = "{2, 2}";
target = "{2, 3}";
other1 = "{1, 6}";
type = Interpolate;
options = 4;
},
{
horizontal = 1;
origin = "{1, 6}";
target = "{0, 6}";
type = Align;
options = 4;
},
{
horizontal = 1;
origin = "{1, 6}";
target = "{0, 2}";
type = Align;
options = 4;
}
);
layerId = "72F15D98-3CFC-4C1E-A8AD-435DAE6C7B41";
paths = (
{
closed = 1;
nodes = (
"846 -29 LINE",
"2040 1331 LINE",
"1948 1331 LINE",
"961 188 LINE",
"1001 198 LINE",
"1287 1331 LINE",
"1166 1331 LINE",
"822 -29 LINE"
);
},
{
closed = 1;
nodes = (
"115 -29 LINE",
"1128 906 LINE",
"1108 985 LINE",
"258 171 LINE",
"284 171 LINE",
"668 1331 LINE",
"547 1331 LINE",
"97 -29 LINE"
);
},
{
closed = 1;
nodes = (
"774 1300 LINE",
"796 1358 LINE",
"390 1358 LINE",
"368 1300 LINE"
);
},
{
closed = 1;
nodes = (
"1433 1300 LINE",
"1455 1358 LINE",
"1059 1358 LINE",
"1037 1300 LINE"
);
},
{
closed = 1;
nodes = (
"2124 1300 LINE",
"2146 1358 LINE",
"1790 1358 LINE",
"1768 1300 LINE"
);
}
);
width = 1808;
},
{
anchors = (
{
name = bottom;
position = "{603, 0}";
},
{
name = top;
position = "{1383, 1363}";
}
);
guideLines = (
{
position = "{2232, 1315}";
}
);
layerId = "9207B417-A6D7-41AF-BE7C-4506B089B767";
paths = (
{
closed = 1;
nodes = (
"1051 -29 LINE",
"2182 1315 LINE",
"2018 1315 LINE",
"1140 236 LINE",
"1241 236 LINE",
"1526 1315 LINE",
"1240 1315 LINE",
"885 -29 LINE"
);
},
{
closed = 1;
nodes = (
"296 -29 LINE",
"1232 793 LINE",
"1250 958 LINE",
"417 221 LINE",
"488 211 LINE",
"783 1315 LINE",
"497 1315 LINE",
"140 -29 LINE"
);
},
{
closed = 1;
nodes = (
"941 1261 LINE",
"975 1358 LINE",
"395 1358 LINE",
"361 1261 LINE"
);
},
{
closed = 1;
nodes = (
"1656 1261 LINE",
"1690 1358 LINE",
"1146 1358 LINE",
"1112 1261 LINE"
);
},
{
closed = 1;
nodes = (
"2286 1261 LINE",
"2320 1358 LINE",
"1866 1358 LINE",
"1832 1261 LINE"
);
}
);
width = 1974;
},
{
anchors = (
{
name = bottom;
position = "{362, 0}";
},
{
name = top;
position = "{1282, 1363}";
}
);
guideLines = (
{
position = "{1013, 256}";
},
{
position = "{1158, 1331}";
}
);
layerId = "521C1B5A-C509-4418-B7D4-F4ADA96264C1";
paths = (
{
closed = 1;
nodes = (
"867 -29 LINE",
"2146 1331 LINE",
"2047 1331 LINE",
"990 188 LINE",
"1033 198 LINE",
"1340 1331 LINE",
"1210 1331 LINE",
"841 -29 LINE"
);
},
{
closed = 1;
nodes = (
"83 -29 LINE",
"1169 906 LINE",
"1148 985 LINE",
"237 171 LINE",
"264 171 LINE",
"672 1331 LINE",
"542 1331 LINE",
"64 -29 LINE"
);
},
{
closed = 1;
nodes = (
"790 1300 LINE",
"813 1358 LINE",
"376 1358 LINE",
"352 1300 LINE"
);
},
{
closed = 1;
nodes = (
"1496 1300 LINE",
"1520 1358 LINE",
"1095 1358 LINE",
"1072 1300 LINE"
);
},
{
closed = 1;
nodes = (
"2237 1300 LINE",
"2261 1358 LINE",
"1879 1358 LINE",
"1855 1300 LINE"
);
}
);
width = 1935;
},
{
anchors = (
{
name = bottom;
position = "{493, 0}";
},
{
name = top;
position = "{1304, 1363}";
}
);
guideLines = (
{
position = "{550, 286}";
},
{
position = "{2075, 1315}";
}
);
layerId = "3C607254-4343-4A81-9940-4A77E9130A74";
paths = (
{
closed = 1;
nodes = (
"909 -29 LINE",
"2003 1315 LINE",
"1858 1315 LINE",
"1004 224 LINE",
"1087 226 LINE",
"1342 1315 LINE",
"1104 1315 LINE",
"782 -29 LINE"
);
},
{
closed = 1;
nodes = (
"210 -29 LINE",
"1085 822 LINE",
"1094 965 LINE",
"336 208 LINE",
"395 201 LINE",
"712 1315 LINE",
"469 1315 LINE",
"89 -29 LINE"
);
},
{
closed = 1;
nodes = (
"858 1271 LINE",
"889 1358 LINE",
"354 1358 LINE",
"323 1271 LINE"
);
},
{
closed = 1;
nodes = (
"1479 1271 LINE",
"1510 1358 LINE",
"1004 1358 LINE",
"973 1271 LINE"
);
},
{
closed = 1;
nodes = (
"2105 1271 LINE",
"2135 1358 LINE",
"1707 1358 LINE",
"1676 1271 LINE"
);
}
);
width = 1808;
}
);
leftKerningGroup = W;
leftMetricsKey = V;
note = W;
rightKerningGroup = V;
rightMetricsKey = V;
unicode = 0057;
},
{
glyphname = X;
lastChange = "2019-01-27 16:34:52 +0000";
layers = (
{
anchors = (
{
name = bottom;
position = "{542, 0}";
},
{
name = top;
position = "{993, 1363}";
}
);
guideLines = (
{
position = "{665, 1331}";
},
{
position = "{1205, 30}";
}
);
hints = (
{
horizontal = 1;
origin = "{4, 3}";
type = Anchor;
},
{
horizontal = 1;
origin = "{0, 1}";
target = "{5, 3}";
type = Align;
options = 4;
},
{
horizontal = 1;
origin = "{4, 3}";
target = "{4, 2}";
type = TTStem;
options = 4;
},
{
horizontal = 1;
origin = "{4, 2}";
target = "{5, 2}";
type = Align;
options = 4;
},
{
horizontal = 1;
origin = "{2, 2}";
type = Anchor;
},
{
horizontal = 1;
origin = "{2, 2}";
target = "{3, 2}";
type = Align;
options = 4;
},
{
horizontal = 1;
origin = "{2, 2}";
target = "{2, 3}";
type = TTStem;
options = 4;
},
{
horizontal = 1;
origin = "{2, 3}";
target = "{3, 3}";
type = Align;
options = 4;
},
{
horizontal = 1;
origin = "{0, 1}";
target = "{2, 2}";
other1 = "{0, 3}";
type = Interpolate;
options = 4;
},
{
horizontal = 1;
origin = "{0, 3}";
target = "{6, 0}";
type = Align;
options = 4;
},
{
horizontal = 1;
origin = "{0, 3}";
target = "{6, 3}";
type = TTStem;
options = 4;
},
{
horizontal = 1;
origin = "{6, 3}";
target = "{0, 0}";
type = Align;
options = 4;
},
{
horizontal = 1;
origin = "{2, 2}";
target = "{2, 3}";
other1 = "{1, 2}";
type = Interpolate;
options = 4;
},
{
horizontal = 1;
origin = "{1, 2}";
target = "{6, 2}";
type = Align;
options = 4;
},
{
horizontal = 1;
origin = "{4, 3}";
target = "{4, 2}";
other1 = "{0, 1}";
type = Interpolate;
options = 4;
},
{
horizontal = 1;
origin = "{0, 1}";
target = "{1, 3}";
type = Align;
options = 4;
}
);
layerId = "72F15D98-3CFC-4C1E-A8AD-435DAE6C7B41";
paths = (
{
closed = 1;
nodes = (
"783 772 LINE",
"5 30 LINE",
"108 30 LINE",
"805 714 LINE"
);
},
{
closed = 1;
nodes = (
"1124 30 LINE",
"629 1331 LINE",
"513 1331 LINE",
"1008 30 LINE"
);
},
{
closed = 1;
nodes = (
"827 1300 LINE",
"849 1358 LINE",
"316 1358 LINE",
"294 1300 LINE"
);
},
{
closed = 1;
nodes = (
"1533 1300 LINE",
"1555 1358 LINE",
"1116 1358 LINE",
"1094 1300 LINE"
);
},
{
closed = 1;
nodes = (
"424 0 LINE",
"446 58 LINE",
"-57 58 LINE",
"-79 0 LINE"
);
},
{
closed = 1;
nodes = (
"1271 0 LINE",
"1293 58 LINE",
"785 58 LINE",
"763 0 LINE"
);
},
{
closed = 1;
nodes = (
"785 714 LINE",
"1435 1331 LINE",
"1333 1331 LINE",
"763 772 LINE"
);
}
);
width = 1404;
},
{
anchors = (
{
name = bottom;
position = "{592, 0}";
},
{
name = top;
position = "{1073, 1363}";
}
);
guideLines = (
{
position = "{1574, 1315}";
},
{
position = "{1109, 50}";
}
);
layerId = "9207B417-A6D7-41AF-BE7C-4506B089B767";
paths = (
{
closed = 1;
nodes = (
"838 780 LINE",
"80 50 LINE",
"277 50 LINE",
"888 660 LINE"
);
},
{
closed = 1;
nodes = (
"1246 50 LINE",
"770 1315 LINE",
"484 1315 LINE",
"960 50 LINE"
);
},
{
closed = 1;
nodes = (
"958 1261 LINE",
"992 1358 LINE",
"373 1358 LINE",
"339 1261 LINE"
);
},
{
closed = 1;
nodes = (
"1620 1261 LINE",
"1654 1358 LINE",
"1177 1358 LINE",
"1143 1261 LINE"
);
},
{
closed = 1;
nodes = (
"497 0 LINE",
"531 96 LINE",
"-6 96 LINE",
"-40 0 LINE"
);
},
{
closed = 1;
nodes = (
"1355 0 LINE",
"1389 96 LINE",
"809 96 LINE",
"775 0 LINE"
);
},
{
closed = 1;
nodes = (
"868 660 LINE",
"1542 1315 LINE",
"1355 1315 LINE",
"818 780 LINE"
);
}
);
width = 1490;
},
{
anchors = (
{
name = bottom;
position = "{562, 0}";
},
{
name = top;
position = "{1042, 1363}";
}
);
guideLines = (
{
position = "{1026, 79}";
},
{
position = "{942, 1331}";
},
{
position = "{191, 30}";
}
);
layerId = "521C1B5A-C509-4418-B7D4-F4ADA96264C1";
paths = (
{
closed = 1;
nodes = (
"842 779 LINE",
"45 30 LINE",
"153 30 LINE",
"868 720 LINE"
);
},
{
closed = 1;
nodes = (
"1190 30 LINE",
"664 1331 LINE",
"540 1331 LINE",
"1066 30 LINE"
);
},
{
closed = 1;
nodes = (
"858 1288 LINE",
"884 1358 LINE",
"366 1358 LINE",
"340 1288 LINE"
);
},
{
closed = 1;
nodes = (
"1589 1288 LINE",
"1615 1358 LINE",
"1198 1358 LINE",
"1172 1288 LINE"
);
},
{
closed = 1;
nodes = (
"440 0 LINE",
"466 70 LINE",
"-46 70 LINE",
"-72 0 LINE"
);
},
{
closed = 1;
nodes = (
"1341 0 LINE",
"1367 70 LINE",
"845 70 LINE",
"819 0 LINE"
);
},
{
closed = 1;
nodes = (
"848 720 LINE",
"1496 1331 LINE",
"1391 1331 LINE",
"822 779 LINE"
);
}
);
width = 1483;
},
{
anchors = (
{
name = bottom;
position = "{547, 0}";
},
{
name = top;
position = "{1021, 1363}";
}
);
guideLines = (
{
angle = 224.2716;
position = "{620, 679}";
},
{
position = "{1526, 1315}";
},
{
position = "{287, 50}";
}
);
layerId = "3C607254-4343-4A81-9940-4A77E9130A74";
paths = (
{
closed = 1;
nodes = (
"776 796 LINE",
"13 50 LINE",
"186 50 LINE",
"819 692 LINE"
);
},
{
closed = 1;
nodes = (
"1161 50 LINE",
"683 1315 LINE",
"441 1315 LINE",
"918 50 LINE"
);
},
{
closed = 1;
nodes = (
"872 1271 LINE",
"903 1358 LINE",
"346 1358 LINE",
"315 1271 LINE"
);
},
{
closed = 1;
nodes = (
"1546 1271 LINE",
"1577 1358 LINE",
"1109 1358 LINE",
"1078 1271 LINE"
);
},
{
closed = 1;
nodes = (
"366 0 LINE",
"397 86 LINE",
"-111 86 LINE",
"-142 0 LINE"
);
},
{
closed = 1;
nodes = (
"1241 0 LINE",
"1272 86 LINE",
"751 86 LINE",
"720 0 LINE"
);
},
{
closed = 1;
nodes = (
"802 691 LINE",
"1457 1315 LINE",
"1292 1315 LINE",
"759 795 LINE"
);
}
);
width = 1404;
}
);
leftKerningGroup = X;
note = X;
rightKerningGroup = X;
unicode = 0058;
},
{
glyphname = Y;
lastChange = "2019-01-27 16:34:52 +0000";
layers = (
{
anchors = (
{
name = bottom;
position = "{516, 0}";
},
{
name = top;
position = "{997, 1363}";
},
{
name = topleft;
position = "{361, 1363}";
}
);
guideLines = (
{
position = "{650, 1330}";
}
);
hints = (
{
horizontal = 1;
origin = "{3, 3}";
type = Anchor;
},
{
horizontal = 1;
origin = "{3, 3}";
target = "{3, 2}";
type = TTStem;
options = 4;
},
{
horizontal = 1;
origin = "{1, 2}";
type = Anchor;
},
{
horizontal = 1;
origin = "{1, 2}";
target = "{2, 2}";
type = Align;
options = 4;
},
{
horizontal = 1;
origin = "{1, 2}";
target = "{1, 3}";
type = TTStem;
options = 4;
},
{
horizontal = 1;
origin = "{1, 3}";
target = "{2, 3}";
type = Align;
options = 4;
},
{
horizontal = 1;
origin = "{1, 2}";
target = "{1, 3}";
other1 = "{0, 8}";
type = Interpolate;
options = 4;
},
{
horizontal = 1;
origin = "{0, 8}";
target = "{0, 4}";
type = Align;
options = 4;
},
{
horizontal = 1;
origin = "{3, 3}";
target = "{3, 2}";
other1 = "{0, 11}";
type = Interpolate;
options = 4;
}
);
layerId = "72F15D98-3CFC-4C1E-A8AD-435DAE6C7B41";
paths = (
{
closed = 1;
nodes = (
"587 30 LINE",
"799 632 LINE",
"748 553 LINE",
"1525 1330 LINE",
"1442 1330 LINE",
"715 600 LINE",
"769 609 LINE",
"590 1330 LINE",
"474 1330 LINE",
"678 508 LINE",
"684 650 LINE",
"465 30 LINE"
);
},
{
closed = 1;
nodes = (
"769 1300 LINE",
"791 1358 LINE",
"360 1358 LINE",
"338 1300 LINE"
);
},
{
closed = 1;
nodes = (
"1624 1300 LINE",
"1646 1358 LINE",
"1260 1358 LINE",
"1238 1300 LINE"
);
},
{
closed = 1;
nodes = (
"782 0 LINE",
"804 58 LINE",
"301 58 LINE",
"279 0 LINE"
);
}
);
width = 1330;
},
{
anchors = (
{
name = bottom;
position = "{566, 0}";
},
{
name = top;
position = "{1087, 1363}";
},
{
name = topleft;
position = "{351, 1363}";
}
);
guideLines = (
{
position = "{798, 50}";
},
{
position = "{829, 1315}";
}
);
layerId = "9207B417-A6D7-41AF-BE7C-4506B089B767";
paths = (
{
closed = 1;
nodes = (
"699 50 LINE",
"924 660 LINE",
"872 582 LINE",
"1670 1315 LINE",
"1490 1315 LINE",
"820 695 LINE",
"886 680 LINE",
"716 1315 LINE",
"430 1315 LINE",
"636 542 LINE",
"633 627 LINE",
"429 50 LINE"
);
},
{
closed = 1;
nodes = (
"855 1261 LINE",
"889 1358 LINE",
"359 1358 LINE",
"325 1261 LINE"
);
},
{
closed = 1;
nodes = (
"1732 1261 LINE",
"1766 1358 LINE",
"1304 1358 LINE",
"1270 1261 LINE"
);
},
{
closed = 1;
nodes = (
"879 0 LINE",
"913 96 LINE",
"282 96 LINE",
"248 0 LINE"
);
}
);
width = 1449;
},
{
anchors = (
{
name = bottom;
position = "{523, 0}";
},
{
name = top;
position = "{1023, 1363}";
},
{
name = topleft;
position = "{343, 1363}";
}
);
guideLines = (
{
position = "{650, 1330}";
},
{
position = "{734, 30}";
}
);
layerId = "521C1B5A-C509-4418-B7D4-F4ADA96264C1";
paths = (
{
closed = 1;
nodes = (
"600 30 LINE",
"819 632 LINE",
"765 553 LINE",
"1588 1330 LINE",
"1499 1330 LINE",
"721 592 LINE",
"788 602 LINE",
"590 1330 LINE",
"466 1330 LINE",
"690 508 LINE",
"686 624 LINE",
"468 30 LINE"
);
},
{
closed = 1;
nodes = (
"781 1288 LINE",
"807 1358 LINE",
"346 1358 LINE",
"320 1288 LINE"
);
},
{
closed = 1;
nodes = (
"1681 1288 LINE",
"1707 1358 LINE",
"1293 1358 LINE",
"1267 1288 LINE"
);
},
{
closed = 1;
nodes = (
"810 0 LINE",
"836 70 LINE",
"296 70 LINE",
"270 0 LINE"
);
}
);
width = 1408;
},
{
anchors = (
{
name = bottom;
position = "{509, 0}";
},
{
name = top;
position = "{1020, 1363}";
},
{
name = topleft;
position = "{310, 1363}";
}
);
guideLines = (
{
position = "{798, 50}";
},
{
position = "{829, 1315}";
}
);
layerId = "3C607254-4343-4A81-9940-4A77E9130A74";
paths = (
{
closed = 1;
nodes = (
"632 50 LINE",
"851 653 LINE",
"796 575 LINE",
"1548 1315 LINE",
"1393 1315 LINE",
"749 671 LINE",
"812 662 LINE",
"670 1315 LINE",
"427 1315 LINE",
"603 533 LINE",
"599 633 LINE",
"394 50 LINE"
);
},
{
closed = 1;
nodes = (
"809 1271 LINE",
"840 1358 LINE",
"355 1358 LINE",
"324 1271 LINE"
);
},
{
closed = 1;
nodes = (
"1620 1271 LINE",
"1651 1358 LINE",
"1219 1358 LINE",
"1188 1271 LINE"
);
},
{
closed = 1;
nodes = (
"810 0 LINE",
"841 86 LINE",
"243 86 LINE",
"212 0 LINE"
);
}
);
width = 1330;
}
);
leftKerningGroup = Y;
note = Y;
rightKerningGroup = Y;
unicode = 0059;
},
{
glyphname = Z;
lastChange = "2019-01-27 16:34:52 +0000";
layers = (
{
anchors = (
{
name = bottom;
position = "{436, 0}";
},
{
name = top;
position = "{917, 1363}";
}
);
hints = (
{
horizontal = 1;
origin = "{0, 14}";
type = Anchor;
},
{
horizontal = 1;
origin = "{0, 14}";
target = "{0, 25}";
type = TTStem;
options = 4;
},
{
horizontal = 1;
origin = "{0, 31}";
type = Anchor;
},
{
horizontal = 1;
origin = "{0, 31}";
target = "{0, 9}";
type = TTStem;
options = 4;
}
);
layerId = "72F15D98-3CFC-4C1E-A8AD-435DAE6C7B41";
paths = (
{
closed = 1;
nodes = (
"972 -17 LINE",
"998 56 OFFCURVE",
"1056 174 OFFCURVE",
"1144 331 CURVE",
"1103 342 LINE",
"1076 298 OFFCURVE",
"908 84 OFFCURVE",
"799 77 CURVE SMOOTH",
"658 68 OFFCURVE",
"398 64 OFFCURVE",
"108 64 CURVE",
"116 86 LINE",
"1454 1337 LINE",
"1462 1358 LINE",
"628 1358 LINE",
"595 1358 OFFCURVE",
"527 1361 OFFCURVE",
"464 1367 CURVE",
"440 1349 LINE",
"408 1254 OFFCURVE",
"353 1131 OFFCURVE",
"281 989 CURVE",
"323 982 LINE",
"406 1116 OFFCURVE",
"543 1296 OFFCURVE",
"650 1296 CURVE SMOOTH",
"1248 1296 LINE",
"1240 1274 LINE",
"-115 22 LINE",
"-123 0 LINE",
"658 0 LINE SMOOTH",
"760 0 OFFCURVE",
"894 -8 OFFCURVE",
"953 -33 CURVE"
);
}
);
width = 1230;
},
{
anchors = (
{
name = bottom;
position = "{521, 0}";
},
{
name = top;
position = "{1002, 1363}";
}
);
layerId = "9207B417-A6D7-41AF-BE7C-4506B089B767";
paths = (
{
closed = 1;
nodes = (
"1107 -1 LINE",
"1140 105 OFFCURVE",
"1200 240 OFFCURVE",
"1270 337 CURVE",
"1168 370 LINE",
"1102 247 OFFCURVE",
"947 111 OFFCURVE",
"897 108 CURVE SMOOTH",
"770 100 OFFCURVE",
"536 96 OFFCURVE",
"281 96 CURVE",
"289 113 LINE",
"1597 1313 LINE",
"1609 1358 LINE",
"632 1358 LINE",
"597 1358 OFFCURVE",
"532 1366 OFFCURVE",
"489 1377 CURVE",
"448 1346 LINE",
"416 1260 OFFCURVE",
"356 1115 OFFCURVE",
"291 989 CURVE",
"403 972 LINE",
"455 1060 OFFCURVE",
"613 1264 OFFCURVE",
"698 1264 CURVE SMOOTH",
"1234 1264 LINE",
"1225 1245 LINE",
"-126 45 LINE",
"-138 0 LINE",
"706 0 LINE SMOOTH",
"850 0 OFFCURVE",
"1020 -12 OFFCURVE",
"1074 -33 CURVE"
);
}
);
width = 1323;
},
{
anchors = (
{
name = bottom;
position = "{458, 0}";
},
{
name = top;
position = "{959, 1363}";
}
);
layerId = "521C1B5A-C509-4418-B7D4-F4ADA96264C1";
paths = (
{
closed = 1;
nodes = (
"1033 -17 LINE",
"1060 56 OFFCURVE",
"1121 174 OFFCURVE",
"1213 331 CURVE",
"1143 342 LINE",
"1114 298 OFFCURVE",
"936 70 OFFCURVE",
"820 70 CURVE SMOOTH",
"670 70 OFFCURVE",
"426 70 OFFCURVE",
"115 70 CURVE",
"115 86 LINE",
"1534 1337 LINE",
"1534 1358 LINE",
"650 1358 LINE",
"615 1358 OFFCURVE",
"542 1361 OFFCURVE",
"474 1367 CURVE",
"449 1349 LINE",
"416 1254 OFFCURVE",
"358 1131 OFFCURVE",
"282 989 CURVE",
"352 982 LINE",
"440 1116 OFFCURVE",
"584 1288 OFFCURVE",
"698 1288 CURVE SMOOTH",
"1306 1288 LINE",
"1306 1274 LINE",
"-131 22 LINE",
"-131 0 LINE",
"696 0 LINE SMOOTH",
"805 0 OFFCURVE",
"948 -8 OFFCURVE",
"1013 -33 CURVE"
);
}
);
width = 1315;
},
{
anchors = (
{
name = bottom;
position = "{464, 0}";
},
{
name = top;
position = "{945, 1363}";
}
);
layerId = "3C607254-4343-4A81-9940-4A77E9130A74";
paths = (
{
closed = 1;
nodes = (
"1038 -5 LINE",
"1068 91 OFFCURVE",
"1129 224 OFFCURVE",
"1203 335 CURVE",
"1117 363 LINE",
"1059 258 OFFCURVE",
"902 104 OFFCURVE",
"837 100 CURVE SMOOTH",
"710 92 OFFCURVE",
"509 88 OFFCURVE",
"242 88 CURVE",
"250 106 LINE",
"1496 1319 LINE",
"1507 1358 LINE",
"596 1358 LINE",
"559 1358 OFFCURVE",
"496 1365 OFFCURVE",
"448 1374 CURVE",
"411 1347 LINE",
"379 1259 OFFCURVE",
"323 1125 OFFCURVE",
"254 989 CURVE",
"348 975 LINE",
"406 1072 OFFCURVE",
"560 1272 OFFCURVE",
"651 1272 CURVE SMOOTH",
"1173 1272 LINE",
"1164 1252 LINE",
"-118 39 LINE",
"-129 0 LINE",
"659 0 LINE SMOOTH",
"792 0 OFFCURVE",
"953 -11 OFFCURVE",
"1008 -33 CURVE"
);
}
);
width = 1230;
}
);
leftKerningGroup = Z;
note = Z;
rightKerningGroup = Z;
unicode = 005A;
},
{
glyphname = uni01F6;
lastChange = "2019-01-27 16:34:52 +0000";
layers = (
{
guideLines = (
{
position = "{707, 1330}";
},
{
position = "{305, 30}";
}
);
hints = (
{
horizontal = 1;
origin = "{1, 3}";
type = Anchor;
},
{
horizontal = 1;
origin = "{1, 3}";
target = "{1, 2}";
type = TTStem;
options = 4;
},
{
horizontal = 1;
origin = "{4, 2}";
type = Anchor;
},
{
horizontal = 1;
origin = "{4, 2}";
target = "{4, 3}";
type = TTStem;
options = 4;
},
{
horizontal = 1;
origin = "{4, 2}";
target = "{5, 2}";
type = Align;
options = 4;
},
{
horizontal = 1;
origin = "{1, 3}";
target = "{4, 2}";
other1 = "{3, 3}";
type = Interpolate;
options = 4;
},
{
horizontal = 1;
origin = "{3, 3}";
target = "{3, 2}";
type = TTStem;
options = 4;
},
{
horizontal = 1;
origin = "{0, 5}";
type = Anchor;
},
{
horizontal = 1;
origin = "{1, 3}";
target = "{1, 2}";
other1 = "{2, 3}";
type = Interpolate;
options = 4;
},
{
horizontal = 1;
origin = "{4, 2}";
target = "{4, 3}";
other1 = "{2, 2}";
type = Interpolate;
options = 4;
},
{
horizontal = 1;
origin = "{2, 2}";
target = "{0, 22}";
type = Align;
options = 4;
}
);
layerId = "72F15D98-3CFC-4C1E-A8AD-435DAE6C7B41";
paths = (
{
closed = 1;
nodes = (
"1545 -21 OFFCURVE",
"1744 360 OFFCURVE",
"1744 613 CURVE SMOOTH",
"1744 723 OFFCURVE",
"1708 811 OFFCURVE",
"1621 811 CURVE SMOOTH",
"1569 811 OFFCURVE",
"1497 751 OFFCURVE",
"1480 705 CURVE",
"1563 674 OFFCURVE",
"1604 617 OFFCURVE",
"1604 532 CURVE SMOOTH",
"1604 437 OFFCURVE",
"1464 33 OFFCURVE",
"1170 33 CURVE SMOOTH",
"1090 33 OFFCURVE",
"1017 64 OFFCURVE",
"1017 147 CURVE SMOOTH",
"1017 166 OFFCURVE",
"1023 194 OFFCURVE",
"1030 215 CURVE SMOOTH",
"1421 1330 LINE",
"1300 1330 LINE",
"909 218 LINE SMOOTH",
"899 191 OFFCURVE",
"892 154 OFFCURVE",
"892 132 CURVE SMOOTH",
"892 20 OFFCURVE",
"1004 -21 OFFCURVE",
"1152 -21 CURVE SMOOTH"
);
},
{
closed = 1;
nodes = (
"374 0 LINE",
"396 58 LINE",
"-87 58 LINE",
"-109 0 LINE"
);
},
{
closed = 1;
nodes = (
"203 30 LINE",
"661 1330 LINE",
"540 1330 LINE",
"82 30 LINE"
);
},
{
closed = 1;
nodes = (
"1133 666 LINE",
"1145 735 LINE",
"393 735 LINE",
"381 666 LINE"
);
},
{
closed = 1;
nodes = (
"834 1300 LINE",
"856 1358 LINE",
"370 1358 LINE",
"348 1300 LINE"
);
},
{
closed = 1;
nodes = (
"1594 1300 LINE",
"1616 1358 LINE",
"1130 1358 LINE",
"1108 1300 LINE"
);
}
);
width = 1815;
},
{
guideLines = (
{
position = "{707, 1315}";
},
{
position = "{305, 50}";
}
);
layerId = "9207B417-A6D7-41AF-BE7C-4506B089B767";
paths = (
{
closed = 1;
nodes = (
"1659 -21 OFFCURVE",
"1890 349 OFFCURVE",
"1890 612 CURVE SMOOTH",
"1890 759 OFFCURVE",
"1825 811 OFFCURVE",
"1712 811 CURVE SMOOTH",
"1652 811 OFFCURVE",
"1514 730 OFFCURVE",
"1491 689 CURVE",
"1568 663 OFFCURVE",
"1602 619 OFFCURVE",
"1602 542 CURVE SMOOTH",
"1602 477 OFFCURVE",
"1526 76 OFFCURVE",
"1250 76 CURVE SMOOTH",
"1195 76 OFFCURVE",
"1176 101 OFFCURVE",
"1176 161 CURVE SMOOTH",
"1176 188 OFFCURVE",
"1184 231 OFFCURVE",
"1195 261 CURVE SMOOTH",
"1576 1315 LINE",
"1296 1315 LINE",
"908 261 LINE SMOOTH",
"898 234 OFFCURVE",
"892 189 OFFCURVE",
"892 169 CURVE SMOOTH",
"892 59 OFFCURVE",
"1021 -21 OFFCURVE",
"1223 -21 CURVE SMOOTH"
);
},
{
closed = 1;
nodes = (
"497 0 LINE",
"531 96 LINE",
"-93 96 LINE",
"-127 0 LINE"
);
},
{
closed = 1;
nodes = (
"345 50 LINE",
"801 1315 LINE",
"521 1315 LINE",
"56 50 LINE"
);
},
{
closed = 1;
nodes = (
"1221 659 LINE",
"1233 742 LINE",
"423 742 LINE",
"411 659 LINE"
);
},
{
closed = 1;
nodes = (
"952 1261 LINE",
"986 1358 LINE",
"372 1358 LINE",
"338 1261 LINE"
);
},
{
closed = 1;
nodes = (
"1727 1261 LINE",
"1761 1358 LINE",
"1147 1358 LINE",
"1113 1261 LINE"
);
}
);
width = 1889;
},
{
guideLines = (
{
position = "{707, 1330}";
},
{
position = "{305, 30}";
}
);
layerId = "521C1B5A-C509-4418-B7D4-F4ADA96264C1";
paths = (
{
closed = 1;
nodes = (
"1618 -21 OFFCURVE",
"1831 344 OFFCURVE",
"1831 607 CURVE SMOOTH",
"1831 739 OFFCURVE",
"1788 811 OFFCURVE",
"1700 811 CURVE SMOOTH",
"1645 811 OFFCURVE",
"1569 751 OFFCURVE",
"1552 705 CURVE",
"1634 676 OFFCURVE",
"1683 625 OFFCURVE",
"1683 531 CURVE SMOOTH",
"1683 413 OFFCURVE",
"1524 33 OFFCURVE",
"1226 33 CURVE SMOOTH",
"1148 33 OFFCURVE",
"1060 60 OFFCURVE",
"1060 145 CURVE SMOOTH",
"1060 162 OFFCURVE",
"1064 185 OFFCURVE",
"1071 203 CURVE SMOOTH",
"1496 1330 LINE",
"1366 1330 LINE",
"943 205 LINE SMOOTH",
"934 180 OFFCURVE",
"929 151 OFFCURVE",
"929 132 CURVE SMOOTH",
"929 5 OFFCURVE",
"1072 -21 OFFCURVE",
"1208 -21 CURVE SMOOTH"
);
},
{
closed = 1;
nodes = (
"383 0 LINE",
"409 70 LINE",
"-110 70 LINE",
"-136 0 LINE"
);
},
{
closed = 1;
nodes = (
"187 30 LINE",
"678 1330 LINE",
"548 1330 LINE",
"58 30 LINE"
);
},
{
closed = 1;
nodes = (
"1183 666 LINE",
"1196 736 LINE",
"391 736 LINE",
"378 666 LINE"
);
},
{
closed = 1;
nodes = (
"851 1288 LINE",
"877 1358 LINE",
"360 1358 LINE",
"334 1288 LINE"
);
},
{
closed = 1;
nodes = (
"1669 1288 LINE",
"1695 1358 LINE",
"1178 1358 LINE",
"1152 1288 LINE"
);
}
);
width = 1919;
},
{
guideLines = (
{
position = "{707, 1315}";
},
{
position = "{305, 50}";
}
);
layerId = "3C607254-4343-4A81-9940-4A77E9130A74";
paths = (
{
closed = 1;
nodes = (
"1537 -21 OFFCURVE",
"1760 352 OFFCURVE",
"1760 612 CURVE SMOOTH",
"1760 750 OFFCURVE",
"1702 811 OFFCURVE",
"1596 811 CURVE SMOOTH",
"1538 811 OFFCURVE",
"1417 735 OFFCURVE",
"1396 693 CURVE",
"1474 666 OFFCURVE",
"1510 618 OFFCURVE",
"1510 539 CURVE SMOOTH",
"1510 468 OFFCURVE",
"1418 65 OFFCURVE",
"1137 65 CURVE SMOOTH",
"1076 65 OFFCURVE",
"1043 92 OFFCURVE",
"1043 157 CURVE SMOOTH",
"1043 182 OFFCURVE",
"1050 221 OFFCURVE",
"1060 249 CURVE SMOOTH",
"1443 1315 LINE",
"1204 1315 LINE",
"816 250 LINE SMOOTH",
"806 223 OFFCURVE",
"799 179 OFFCURVE",
"799 160 CURVE SMOOTH",
"799 49 OFFCURVE",
"925 -21 OFFCURVE",
"1112 -21 CURVE SMOOTH"
);
},
{
closed = 1;
nodes = (
"399 0 LINE",
"430 86 LINE",
"-118 86 LINE",
"-149 0 LINE"
);
},
{
closed = 1;
nodes = (
"264 50 LINE",
"717 1315 LINE",
"478 1315 LINE",
"18 50 LINE"
);
},
{
closed = 1;
nodes = (
"1106 661 LINE",
"1118 740 LINE",
"369 740 LINE",
"357 661 LINE"
);
},
{
closed = 1;
nodes = (
"855 1271 LINE",
"886 1358 LINE",
"345 1358 LINE",
"314 1271 LINE"
);
},
{
closed = 1;
nodes = (
"1580 1271 LINE",
"1611 1358 LINE",
"1070 1358 LINE",
"1039 1271 LINE"
);
}
);
width = 1815;
}
);
leftMetricsKey = H;
note = uni01F6;
rightMetricsKey = v;
unicode = 01F6;
},
{
glyphname = uni01F7;
lastChange = "2019-01-27 16:34:52 +0000";
layers = (
{
hints = (
{
horizontal = 1;
origin = "{0, 5}";
type = Anchor;
},
{
horizontal = 1;
origin = "{0, 5}";
target = "{0, 6}";
type = TTStem;
options = 4;
},
{
horizontal = 1;
origin = "{0, 6}";
target = "{1, 0}";
type = Align;
options = 4;
}
);
layerId = "72F15D98-3CFC-4C1E-A8AD-435DAE6C7B41";
paths = (
{
closed = 1;
nodes = (
"36 -358 LINE",
"77 -315 LINE",
"204 49 LINE",
"1416 1314 LINE",
"1401 1358 LINE",
"353 1358 LINE",
"332 1300 LINE",
"562 1300 LINE",
"529 1314 LINE",
"-43 -309 LINE",
"-247 -431 LINE",
"-219 -508 LINE"
);
},
{
closed = 1;
nodes = (
"645 1300 LINE",
"1293 1300 LINE",
"1301 1274 LINE",
"215 141 LINE",
"233 132 LINE"
);
}
);
width = 1110;
},
{
layerId = "9207B417-A6D7-41AF-BE7C-4506B089B767";
paths = (
{
closed = 1;
nodes = (
"193 -337 LINE",
"249 -261 LINE",
"379 84 LINE",
"1552 1279 LINE",
"1505 1358 LINE",
"359 1358 LINE",
"325 1262 LINE",
"576 1262 LINE",
"544 1322 LINE",
"-39 -319 LINE",
"-218 -423 LINE",
"-152 -548 LINE"
);
},
{
closed = 1;
nodes = (
"822 1262 LINE",
"1347 1264 LINE",
"1360 1230 LINE",
"337 188 LINE",
"428 215 LINE"
);
}
);
width = 1248;
},
{
layerId = "521C1B5A-C509-4418-B7D4-F4ADA96264C1";
paths = (
{
closed = 1;
nodes = (
"16 -358 LINE",
"59 -315 LINE",
"190 49 LINE",
"1474 1314 LINE",
"1457 1358 LINE",
"339 1358 LINE",
"314 1288 LINE",
"561 1288 LINE",
"532 1336 LINE",
"-70 -309 LINE",
"-287 -431 LINE",
"-256 -508 LINE"
);
},
{
closed = 1;
nodes = (
"647 1288 LINE",
"1319 1288 LINE",
"1333 1261 LINE",
"198 144 LINE",
"232 144 LINE"
);
}
);
width = 1183;
},
{
layerId = "3C607254-4343-4A81-9940-4A77E9130A74";
paths = (
{
closed = 1;
nodes = (
"101 -342 LINE",
"153 -275 LINE",
"283 75 LINE",
"1406 1288 LINE",
"1367 1358 LINE",
"346 1358 LINE",
"315 1272 LINE",
"521 1272 LINE",
"489 1320 LINE",
"-92 -316 LINE",
"-277 -425 LINE",
"-221 -538 LINE"
);
},
{
closed = 1;
nodes = (
"714 1272 LINE",
"1222 1272 LINE",
"1233 1241 LINE",
"254 176 LINE",
"328 194 LINE"
);
}
);
width = 1110;
}
);
unicode = 01F7;
},
{
glyphname = uniA732;
lastChange = "2019-01-27 16:34:52 +0000";
layers = (
{
anchors = (
{
name = bottom;
position = "{796, 0}";
},
{
name = top;
position = "{1616, 1363}";
}
);
guideLines = (
{
position = "{928, 30}";
}
);
hints = (
{
horizontal = 1;
origin = "{4, 3}";
type = Anchor;
},
{
horizontal = 1;
origin = "{4, 3}";
target = "{4, 2}";
type = TTStem;
options = 4;
},
{
horizontal = 1;
origin = "{4, 3}";
target = "{0, 3}";
type = Align;
options = 4;
},
{
horizontal = 1;
origin = "{0, 3}";
target = "{5, 3}";
type = Align;
options = 4;
},
{
horizontal = 1;
origin = "{0, 3}";
target = "{1, 0}";
type = Align;
options = 4;
},
{
horizontal = 1;
origin = "{0, 3}";
target = "{7, 3}";
type = Align;
options = 4;
},
{
horizontal = 1;
origin = "{0, 3}";
target = "{3, 11}";
type = Align;
options = 4;
},
{
horizontal = 1;
origin = "{0, 3}";
target = "{2, 3}";
type = Align;
options = 4;
},
{
horizontal = 1;
origin = "{1, 5}";
type = Anchor;
},
{
horizontal = 1;
origin = "{1, 5}";
target = "{3, 5}";
type = Align;
options = 4;
},
{
horizontal = 1;
origin = "{0, 3}";
target = "{1, 5}";
other1 = "{6, 3}";
type = Interpolate;
},
{
horizontal = 1;
origin = "{6, 3}";
target = "{8, 3}";
type = Align;
options = 4;
},
{
horizontal = 1;
origin = "{6, 3}";
target = "{6, 2}";
type = TTStem;
options = 4;
},
{
horizontal = 1;
origin = "{6, 2}";
target = "{8, 2}";
type = Align;
options = 4;
}
);
layerId = "72F15D98-3CFC-4C1E-A8AD-435DAE6C7B41";
paths = (
{
closed = 1;
nodes = (
"67 30 LINE",
"1240 1242 LINE",
"1209 1272 LINE",
"-50 30 LINE"
);
},
{
closed = 1;
nodes = (
"842 30 LINE",
"1324 1179 LINE SMOOTH",
"1343 1224 OFFCURVE",
"1386 1316 OFFCURVE",
"1410 1367 CURVE",
"1391 1385 LINE",
"1168 1294 LINE",
"1159 1263 LINE",
"1198 1237 OFFCURVE",
"1225 1198 OFFCURVE",
"1154 1029 CURVE SMOOTH",
"735 30 LINE"
);
},
{
closed = 1;
nodes = (
"1910 1242 LINE",
"1879 1272 LINE",
"886 290 LINE",
"740 30 LINE"
);
},
{
closed = 1;
nodes = (
"1513 30 LINE",
"1994 1179 LINE SMOOTH",
"2013 1224 OFFCURVE",
"2056 1316 OFFCURVE",
"2080 1367 CURVE",
"2061 1385 LINE",
"1838 1294 LINE",
"1829 1263 LINE",
"1868 1237 OFFCURVE",
"1895 1198 OFFCURVE",
"1824 1029 CURVE SMOOTH",
"1406 30 LINE"
);
},
{
closed = 1;
nodes = (
"271 0 LINE",
"293 58 LINE",
"-134 58 LINE",
"-156 0 LINE"
);
},
{
closed = 1;
nodes = (
"977 0 LINE",
"999 58 LINE",
"605 58 LINE",
"583 0 LINE"
);
},
{
closed = 1;
nodes = (
"998 504 LINE",
"1036 562 LINE",
"565 597 LINE",
"511 541 LINE"
);
},
{
closed = 1;
nodes = (
"1647 0 LINE",
"1669 58 LINE",
"1275 58 LINE",
"1253 0 LINE"
);
},
{
closed = 1;
nodes = (
"1668 504 LINE",
"1706 562 LINE",
"1235 597 LINE",
"1181 541 LINE"
);
}
);
width = 1840;
},
{
anchors = (
{
name = bottom;
position = "{770, 0}";
},
{
name = top;
position = "{1585, 1358}";
}
);
guideLines = (
{
position = "{928, 30}";
}
);
layerId = "521C1B5A-C509-4418-B7D4-F4ADA96264C1";
paths = (
{
closed = 1;
nodes = (
"45 30 LINE",
"1245 1272 LINE",
"1179 1272 LINE",
"-80 30 LINE"
);
},
{
closed = 1;
nodes = (
"812 30 LINE",
"1294 1179 LINE SMOOTH",
"1313 1224 OFFCURVE",
"1356 1316 OFFCURVE",
"1380 1367 CURVE",
"1361 1385 LINE",
"1138 1294 LINE",
"1129 1263 LINE",
"1168 1237 OFFCURVE",
"1195 1197 OFFCURVE",
"1124 1029 CURVE SMOOTH",
"705 30 LINE"
);
},
{
closed = 1;
nodes = (
"1933 1272 LINE",
"1867 1272 LINE",
"863 280 LINE",
"733 30 LINE"
);
},
{
closed = 1;
nodes = (
"1500 30 LINE",
"1982 1179 LINE SMOOTH",
"2001 1224 OFFCURVE",
"2044 1316 OFFCURVE",
"2068 1367 CURVE",
"2049 1385 LINE",
"1826 1294 LINE",
"1817 1263 LINE",
"1856 1237 OFFCURVE",
"1883 1197 OFFCURVE",
"1812 1029 CURVE SMOOTH",
"1393 30 LINE"
);
},
{
closed = 1;
nodes = (
"241 0 LINE",
"266 69 LINE",
"-161 69 LINE",
"-186 0 LINE"
);
},
{
closed = 1;
nodes = (
"947 0 LINE",
"972 70 LINE",
"578 70 LINE",
"553 0 LINE"
);
},
{
closed = 1;
nodes = (
"976 511 LINE",
"1003 581 LINE",
"551 613 LINE",
"488 545 LINE"
);
},
{
closed = 1;
nodes = (
"1635 0 LINE",
"1660 70 LINE",
"1266 70 LINE",
"1241 0 LINE"
);
},
{
closed = 1;
nodes = (
"1664 511 LINE",
"1691 581 LINE",
"1239 613 LINE",
"1176 545 LINE"
);
}
);
width = 1916;
},
{
anchors = (
{
name = bottom;
position = "{912, 0}";
},
{
name = top;
position = "{1852, 1363}";
}
);
guideLines = (
{
position = "{928, 50}";
}
);
layerId = "9207B417-A6D7-41AF-BE7C-4506B089B767";
paths = (
{
closed = 1;
nodes = (
"154 50 LINE",
"1308 1242 LINE",
"1229 1272 LINE",
"-11 50 LINE"
);
},
{
closed = 1;
nodes = (
"1018 50 LINE",
"1492 1179 LINE SMOOTH",
"1511 1224 OFFCURVE",
"1554 1316 OFFCURVE",
"1578 1367 CURVE",
"1559 1385 LINE",
"1188 1294 LINE",
"1179 1263 LINE",
"1218 1237 OFFCURVE",
"1245 1197 OFFCURVE",
"1174 1029 CURVE SMOOTH",
"763 50 LINE"
);
},
{
closed = 1;
nodes = (
"2109 1242 LINE",
"2030 1272 LINE",
"1019 273 LINE",
"956 50 LINE"
);
},
{
closed = 1;
nodes = (
"1820 50 LINE",
"2293 1179 LINE SMOOTH",
"2312 1224 OFFCURVE",
"2355 1316 OFFCURVE",
"2379 1367 CURVE",
"2360 1385 LINE",
"1989 1294 LINE",
"1980 1263 LINE",
"2019 1237 OFFCURVE",
"2046 1198 OFFCURVE",
"1975 1029 CURVE SMOOTH",
"1565 50 LINE"
);
},
{
closed = 1;
nodes = (
"349 0 LINE",
"383 96 LINE",
"-108 96 LINE",
"-142 0 LINE"
);
},
{
closed = 1;
nodes = (
"1184 0 LINE",
"1218 96 LINE",
"646 96 LINE",
"612 0 LINE"
);
},
{
closed = 1;
nodes = (
"1015 446 LINE",
"1057 542 LINE",
"591 574 LINE",
"528 480 LINE"
);
},
{
closed = 1;
nodes = (
"1985 0 LINE",
"2019 96 LINE",
"1447 96 LINE",
"1413 0 LINE"
);
},
{
closed = 1;
nodes = (
"1816 446 LINE",
"1858 542 LINE",
"1392 574 LINE",
"1329 480 LINE"
);
}
);
width = 2162;
},
{
anchors = (
{
name = bottom;
position = "{777, 0}";
},
{
name = top;
position = "{1686, 1363}";
}
);
guideLines = (
{
position = "{928, 50}";
}
);
layerId = "3C607254-4343-4A81-9940-4A77E9130A74";
paths = (
{
closed = 1;
nodes = (
"104 50 LINE",
"1185 1242 LINE",
"1118 1272 LINE",
"-49 50 LINE"
);
},
{
closed = 1;
nodes = (
"870 50 LINE",
"1344 1179 LINE SMOOTH",
"1363 1224 OFFCURVE",
"1403 1310 OFFCURVE",
"1430 1367 CURVE",
"1411 1385 LINE",
"1077 1294 LINE",
"1068 1263 LINE",
"1111 1235 OFFCURVE",
"1132 1190 OFFCURVE",
"1064 1029 CURVE SMOOTH",
"652 50 LINE"
);
},
{
closed = 1;
nodes = (
"1878 1242 LINE",
"1811 1272 LINE",
"880 277 LINE",
"797 50 LINE"
);
},
{
closed = 1;
nodes = (
"1563 50 LINE",
"2036 1179 LINE SMOOTH",
"2053 1220 OFFCURVE",
"2097 1315 OFFCURVE",
"2122 1367 CURVE",
"2103 1385 LINE",
"1770 1294 LINE",
"1761 1263 LINE",
"1807 1232 OFFCURVE",
"1820 1183 OFFCURVE",
"1756 1029 CURVE SMOOTH",
"1346 50 LINE"
);
},
{
closed = 1;
nodes = (
"260 0 LINE",
"291 86 LINE",
"-124 86 LINE",
"-155 0 LINE"
);
},
{
closed = 1;
nodes = (
"986 0 LINE",
"1017 86 LINE",
"550 86 LINE",
"519 0 LINE"
);
},
{
closed = 1;
nodes = (
"905 461 LINE",
"946 547 LINE",
"509 578 LINE",
"448 494 LINE"
);
},
{
closed = 1;
nodes = (
"1678 0 LINE",
"1709 86 LINE",
"1243 86 LINE",
"1212 0 LINE"
);
},
{
closed = 1;
nodes = (
"1598 461 LINE",
"1639 547 LINE",
"1217 582 LINE",
"1157 498 LINE"
);
}
);
width = 1840;
}
);
leftKerningGroup = A;
leftMetricsKey = A;
rightKerningGroup = A;
rightMetricsKey = A;
unicode = A732;
},
{
glyphname = uniA734;
lastChange = "2019-01-27 16:34:52 +0000";
layers = (
{
anchors = (
{
name = bottom;
position = "{973, 0}";
},
{
name = top;
position = "{1454, 1363}";
}
);
guideLines = (
{
position = "{218, 30}";
}
);
hints = (
{
horizontal = 1;
origin = "{2, 3}";
type = Anchor;
},
{
horizontal = 1;
origin = "{2, 3}";
target = "{2, 2}";
type = TTStem;
options = 4;
},
{
horizontal = 1;
origin = "{2, 3}";
target = "{3, 3}";
type = Align;
options = 4;
},
{
horizontal = 1;
origin = "{2, 2}";
target = "{3, 2}";
type = Align;
options = 4;
},
{
horizontal = 1;
origin = "{7, 5}";
type = Anchor;
},
{
horizontal = 1;
origin = "{2, 3}";
target = "{7, 5}";
other1 = "{5, 3}";
type = Interpolate;
},
{
horizontal = 1;
origin = "{5, 3}";
target = "{5, 2}";
type = TTStem;
options = 4;
},
{
horizontal = 1;
origin = "{0, 11}";
type = Anchor;
},
{
horizontal = 1;
origin = "{0, 11}";
target = "{6, 11}";
type = TTStem;
options = 4;
},
{
horizontal = 1;
origin = "{0, 5}";
type = Anchor;
},
{
horizontal = 1;
origin = "{0, 5}";
target = "{6, 5}";
type = TTStem;
options = 4;
},
{
horizontal = 1;
origin = "{2, 3}";
target = "{2, 2}";
other1 = "{1, 3}";
type = Interpolate;
options = 4;
},
{
horizontal = 1;
origin = "{1, 3}";
target = "{4, 3}";
type = Align;
options = 4;
}
);
layerId = "72F15D98-3CFC-4C1E-A8AD-435DAE6C7B41";
paths = (
{
closed = 1;
nodes = (
"1880 -27 OFFCURVE",
"2263 503 OFFCURVE",
"2263 941 CURVE SMOOTH",
"2263 1214 OFFCURVE",
"2116 1385 OFFCURVE",
"1830 1385 CURVE SMOOTH",
"1319 1385 OFFCURVE",
"936 847 OFFCURVE",
"936 411 CURVE SMOOTH",
"936 138 OFFCURVE",
"1083 -27 OFFCURVE",
"1364 -27 CURVE SMOOTH"
);
},
{
closed = 1;
nodes = (
"67 30 LINE",
"1240 1242 LINE",
"1209 1272 LINE",
"-50 30 LINE"
);
},
{
closed = 1;
nodes = (
"271 0 LINE",
"293 58 LINE",
"-134 58 LINE",
"-156 0 LINE"
);
},
{
closed = 1;
nodes = (
"977 0 LINE",
"999 58 LINE",
"605 58 LINE",
"583 0 LINE"
);
},
{
closed = 1;
nodes = (
"842 30 LINE",
"1019 451 LINE",
"976 605 LINE",
"735 30 LINE"
);
},
{
closed = 1;
nodes = (
"998 504 LINE",
"1036 562 LINE",
"565 597 LINE",
"511 541 LINE"
);
},
{
closed = 1;
nodes = (
"1192 38 OFFCURVE",
"1068 199 OFFCURVE",
"1068 422 CURVE SMOOTH",
"1068 804 OFFCURVE",
"1423 1324 OFFCURVE",
"1797 1324 CURVE SMOOTH",
"2010 1324 OFFCURVE",
"2131 1163 OFFCURVE",
"2131 944 CURVE SMOOTH",
"2131 559 OFFCURVE",
"1781 38 OFFCURVE",
"1407 38 CURVE SMOOTH"
);
},
{
closed = 1;
nodes = (
"1255 1014 LINE",
"1324 1179 LINE SMOOTH",
"1343 1224 OFFCURVE",
"1386 1316 OFFCURVE",
"1410 1367 CURVE",
"1391 1385 LINE",
"1168 1294 LINE",
"1159 1263 LINE",
"1198 1237 OFFCURVE",
"1225 1198 OFFCURVE",
"1154 1029 CURVE SMOOTH",
"1113 932 LINE"
);
}
);
width = 2192;
},
{
anchors = (
{
name = bottom;
position = "{963, 0}";
},
{
name = top;
position = "{1463, 1363}";
}
);
guideLines = (
{
position = "{218, 30}";
}
);
layerId = "521C1B5A-C509-4418-B7D4-F4ADA96264C1";
paths = (
{
closed = 1;
nodes = (
"1894 -27 OFFCURVE",
"2299 503 OFFCURVE",
"2299 941 CURVE SMOOTH",
"2299 1214 OFFCURVE",
"2144 1385 OFFCURVE",
"1843 1385 CURVE SMOOTH",
"1301 1385 OFFCURVE",
"895 847 OFFCURVE",
"895 411 CURVE SMOOTH",
"895 138 OFFCURVE",
"1051 -27 OFFCURVE",
"1350 -27 CURVE SMOOTH"
);
},
{
closed = 1;
nodes = (
"45 30 LINE",
"1245 1272 LINE",
"1179 1272 LINE",
"-80 30 LINE"
);
},
{
closed = 1;
nodes = (
"241 0 LINE",
"266 69 LINE",
"-161 69 LINE",
"-186 0 LINE"
);
},
{
closed = 1;
nodes = (
"947 0 LINE",
"972 70 LINE",
"578 70 LINE",
"553 0 LINE"
);
},
{
closed = 1;
nodes = (
"812 30 LINE",
"965 394 LINE",
"959 636 LINE",
"705 30 LINE"
);
},
{
closed = 1;
nodes = (
"976 511 LINE",
"1003 581 LINE",
"551 613 LINE",
"488 545 LINE"
);
},
{
closed = 1;
nodes = (
"1170 43 OFFCURVE",
"1029 194 OFFCURVE",
"1029 422 CURVE SMOOTH",
"1029 800 OFFCURVE",
"1408 1315 OFFCURVE",
"1808 1315 CURVE SMOOTH",
"2036 1315 OFFCURVE",
"2165 1159 OFFCURVE",
"2165 943 CURVE SMOOTH",
"2165 568 OFFCURVE",
"1799 43 OFFCURVE",
"1393 43 CURVE SMOOTH"
);
},
{
closed = 1;
nodes = (
"1247 1067 LINE",
"1294 1179 LINE SMOOTH",
"1313 1224 OFFCURVE",
"1356 1316 OFFCURVE",
"1380 1367 CURVE",
"1361 1385 LINE",
"1138 1294 LINE",
"1129 1263 LINE",
"1168 1237 OFFCURVE",
"1195 1198 OFFCURVE",
"1124 1029 CURVE SMOOTH",
"1068 895 LINE"
);
}
);
width = 2245;
},
{
anchors = (
{
name = bottom;
position = "{1112, 0}";
},
{
name = top;
position = "{1606, 1358}";
}
);
guideLines = (
{
position = "{218, 50}";
}
);
layerId = "9207B417-A6D7-41AF-BE7C-4506B089B767";
paths = (
{
closed = 1;
nodes = (
"2037 -27 OFFCURVE",
"2480 460 OFFCURVE",
"2480 909 CURVE SMOOTH",
"2480 1199 OFFCURVE",
"2296 1384 OFFCURVE",
"1958 1384 CURVE SMOOTH",
"1408 1384 OFFCURVE",
"969 896 OFFCURVE",
"969 454 CURVE SMOOTH",
"969 152 OFFCURVE",
"1174 -27 OFFCURVE",
"1499 -27 CURVE SMOOTH"
);
},
{
closed = 1;
nodes = (
"154 50 LINE",
"1308 1242 LINE",
"1229 1272 LINE",
"-11 50 LINE"
);
},
{
closed = 1;
nodes = (
"349 0 LINE",
"383 96 LINE",
"-108 96 LINE",
"-142 0 LINE"
);
},
{
closed = 1;
nodes = (
"1354 0 LINE",
"1388 96 LINE",
"746 96 LINE",
"712 0 LINE"
);
},
{
closed = 1;
nodes = (
"1117 50 LINE",
"1179 237 LINE",
"1017 537 LINE",
"862 50 LINE"
);
},
{
closed = 1;
nodes = (
"1015 446 LINE",
"1057 542 LINE",
"591 574 LINE",
"528 480 LINE"
);
},
{
closed = 1;
nodes = (
"1357 78 OFFCURVE",
"1282 222 OFFCURVE",
"1282 412 CURVE SMOOTH",
"1282 787 OFFCURVE",
"1572 1286 OFFCURVE",
"1909 1286 CURVE SMOOTH",
"2092 1286 OFFCURVE",
"2167 1140 OFFCURVE",
"2167 955 CURVE SMOOTH",
"2167 601 OFFCURVE",
"1893 78 OFFCURVE",
"1542 78 CURVE SMOOTH"
);
},
{
closed = 1;
nodes = (
"1457 1074 LINE",
"1492 1179 LINE SMOOTH",
"1507 1224 OFFCURVE",
"1552 1316 OFFCURVE",
"1578 1367 CURVE",
"1559 1385 LINE",
"1188 1294 LINE",
"1179 1263 LINE",
"1218 1237 OFFCURVE",
"1229 1203 OFFCURVE",
"1174 1029 CURVE SMOOTH",
"1118 853 LINE"
);
}
);
width = 2384;
},
{
anchors = (
{
name = bottom;
position = "{1007, 0}";
},
{
name = top;
position = "{1498, 1359}";
}
);
guideLines = (
{
position = "{218, 50}";
}
);
layerId = "3C607254-4343-4A81-9940-4A77E9130A74";
paths = (
{
closed = 1;
nodes = (
"1892 -27 OFFCURVE",
"2305 471 OFFCURVE",
"2305 917 CURVE SMOOTH",
"2305 1203 OFFCURVE",
"2136 1384 OFFCURVE",
"1823 1384 CURVE SMOOTH",
"1301 1384 OFFCURVE",
"891 883 OFFCURVE",
"891 443 CURVE SMOOTH",
"891 149 OFFCURVE",
"1075 -27 OFFCURVE",
"1378 -27 CURVE SMOOTH"
);
},
{
closed = 1;
nodes = (
"125 50 LINE",
"1221 1242 LINE",
"1154 1272 LINE",
"-28 50 LINE"
);
},
{
closed = 1;
nodes = (
"320 0 LINE",
"351 86 LINE",
"-124 86 LINE",
"-155 0 LINE"
);
},
{
closed = 1;
nodes = (
"1188 0 LINE",
"1219 86 LINE",
"640 86 LINE",
"610 0 LINE"
);
},
{
closed = 1;
nodes = (
"980 50 LINE",
"1069 292 LINE",
"937 554 LINE",
"763 50 LINE"
);
},
{
closed = 1;
nodes = (
"941 461 LINE",
"982 547 LINE",
"537 578 LINE",
"476 494 LINE"
);
},
{
closed = 1;
nodes = (
"1241 68 OFFCURVE",
"1158 216 OFFCURVE",
"1158 415 CURVE SMOOTH",
"1158 790 OFFCURVE",
"1448 1296 OFFCURVE",
"1776 1296 CURVE SMOOTH",
"1956 1296 OFFCURVE",
"2038 1146 OFFCURVE",
"2038 952 CURVE SMOOTH",
"2038 591 OFFCURVE",
"1761 68 OFFCURVE",
"1423 68 CURVE SMOOTH"
);
},
{
closed = 1;
nodes = (
"1336 1059 LINE",
"1380 1179 LINE SMOOTH",
"1396 1224 OFFCURVE",
"1443 1321 OFFCURVE",
"1466 1367 CURVE",
"1447 1385 LINE",
"1113 1294 LINE",
"1104 1263 LINE",
"1149 1233 OFFCURVE",
"1153 1186 OFFCURVE",
"1100 1029 CURVE SMOOTH",
"1047 873 LINE"
);
}
);
width = 2192;
}
);
leftKerningGroup = A;
leftMetricsKey = A;
rightKerningGroup = O;
rightMetricsKey = O;
unicode = A734;
},
